<?xml version="1.0" encoding="UTF-8"?>
<svg width="31px" height="167px" viewBox="0 0 31 167" version="1.1" xmlns="http://www.w3.org/2000/svg" xmlns:xlink="http://www.w3.org/1999/xlink">
    <!-- Generator: Sketch 47.1 (45422) - http://www.bohemiancoding.com/sketch -->
    <title>Default Pricing</title>
    <desc>Created with Sketch.</desc>
    <defs></defs>
    <g id="Website" stroke="none" stroke-width="1" fill="none" fill-rule="evenodd">
        <g id="Pricing" transform="translate(-308.000000, -324.000000)" fill="#D4D4D4">
            <path d="M256.026367,404.336914 C256.026367,405.196293 255.94336,406.062984 255.777344,406.937012 C255.611327,407.81104 255.362306,408.650875 255.030273,409.456543 C254.698241,410.262211 254.288088,411.019039 253.799805,411.727051 C253.311521,412.435062 252.742679,413.05029 252.093262,413.572754 C251.443844,414.095217 250.718754,414.50537 249.917969,414.803223 C249.117183,415.101076 248.243169,415.25 247.295898,415.25 L240.25,415.25 L240.337891,414.620117 C240.953128,414.483398 241.446287,414.334473 241.817383,414.17334 C242.188478,414.012206 242.383789,413.863282 242.40332,413.726562 L244.585938,397.774414 L242.344727,398.023438 L242.344727,397.100586 C243.467779,396.827147 244.578608,396.634278 245.677246,396.521973 C246.775884,396.409667 247.82812,396.353516 248.833984,396.353516 C249.976568,396.353516 250.992183,396.543943 251.880859,396.924805 C252.769536,397.305666 253.521481,397.84277 254.136719,398.536133 C254.751956,399.229496 255.220702,400.06689 255.542969,401.04834 C255.865236,402.02979 256.026367,403.125971 256.026367,404.336914 Z M247.632812,397.583984 L247.193359,397.583984 C247.046874,397.583984 246.900391,397.588867 246.753906,397.598633 L244.629883,413.213867 C244.610351,413.360352 244.629883,413.482421 244.688477,413.580078 C244.747071,413.677735 244.859374,413.760742 245.025391,413.829102 C245.191407,413.897461 245.428221,413.946289 245.73584,413.975586 C246.043459,414.004883 246.436521,414.019531 246.915039,414.019531 C247.637699,414.019531 248.304196,413.882814 248.914551,413.609375 C249.524905,413.335936 250.079099,412.964846 250.577148,412.496094 C251.075198,412.027341 251.517088,411.480472 251.902832,410.855469 C252.288576,410.230466 252.610839,409.568851 252.869629,408.870605 C253.128419,408.17236 253.32373,407.457035 253.455566,406.724609 C253.587403,405.992184 253.65332,405.284183 253.65332,404.600586 C253.65332,403.555659 253.521486,402.60352 253.257812,401.744141 C252.994139,400.884761 252.608401,400.147464 252.100586,399.532227 C251.592771,398.916989 250.965336,398.438478 250.218262,398.09668 C249.471188,397.754881 248.60938,397.583984 247.632812,397.583984 Z M262.354492,403.794922 C262.032225,404.087892 261.717287,404.444334 261.409668,404.864258 C261.102049,405.284182 260.823732,405.738279 260.574707,406.226562 C260.325682,406.714846 260.118165,407.225095 259.952148,407.757324 C259.786132,408.289553 259.683594,408.814451 259.644531,409.332031 C260.923835,408.833982 261.937008,408.382326 262.684082,407.977051 C263.431156,407.571775 263.995115,407.188478 264.375977,406.827148 C264.756838,406.465819 265.000976,406.119142 265.108398,405.787109 C265.215821,405.455076 265.269531,405.118166 265.269531,404.776367 C265.269531,404.473631 265.230469,404.212403 265.152344,403.992676 C265.074218,403.772948 264.97168,403.597169 264.844727,403.465332 C264.717773,403.333495 264.573731,403.23584 264.412598,403.172363 C264.251464,403.108886 264.087891,403.077148 263.921875,403.077148 C263.765624,403.077148 263.536134,403.1333 263.233398,403.245605 C262.930663,403.357911 262.637697,403.541014 262.354492,403.794922 Z M267.613281,404.117188 C267.613281,404.390626 267.581543,404.678709 267.518066,404.981445 C267.45459,405.284181 267.322755,405.596678 267.122559,405.918945 C266.922362,406.241213 266.644045,406.578123 266.287598,406.929688 C265.931151,407.281252 265.457522,407.645018 264.866699,408.020996 C264.275876,408.396975 263.555668,408.787596 262.706055,409.192871 C261.856441,409.598147 260.840826,410.020506 259.65918,410.459961 C259.717774,411.006839 259.832519,411.504881 260.003418,411.954102 C260.174317,412.403323 260.374511,412.789061 260.604004,413.111328 C260.833497,413.433595 261.082518,413.685058 261.351074,413.865723 C261.61963,414.046388 261.885741,414.136719 262.149414,414.136719 C262.354493,414.136719 262.603514,414.114746 262.896484,414.070801 C263.189455,414.026855 263.528807,413.931641 263.914551,413.785156 C264.300295,413.638671 264.734861,413.42383 265.218262,413.140625 C265.701663,412.85742 266.236325,412.481448 266.822266,412.012695 C266.929688,412.071289 267.024902,412.166503 267.10791,412.29834 C267.190918,412.430176 267.24707,412.535156 267.276367,412.613281 C266.475582,413.306644 265.767581,413.865721 265.152344,414.290527 C264.537106,414.715334 263.987795,415.042479 263.504395,415.271973 C263.020994,415.501466 262.586428,415.655273 262.200684,415.733398 C261.814939,415.811524 261.446291,415.850586 261.094727,415.850586 C260.772459,415.850586 260.406252,415.760255 259.996094,415.57959 C259.585935,415.398925 259.200197,415.110842 258.838867,414.715332 C258.477537,414.319822 258.172365,413.802249 257.92334,413.162598 C257.674315,412.522946 257.549805,411.739262 257.549805,410.811523 C257.549805,410.049801 257.642577,409.300297 257.828125,408.562988 C258.013673,407.82568 258.279783,407.117679 258.626465,406.438965 C258.973146,405.760251 259.400388,405.118167 259.908203,404.512695 C260.416018,403.907224 260.992184,403.355471 261.636719,402.857422 C261.861329,402.68164 262.115233,402.513184 262.398438,402.352051 C262.681642,402.190917 262.977049,402.049317 263.284668,401.927246 C263.592287,401.805175 263.904784,401.709961 264.222168,401.641602 C264.539552,401.573242 264.849608,401.539062 265.152344,401.539062 C265.572268,401.539062 265.936034,401.614745 266.243652,401.766113 C266.551271,401.917481 266.807616,402.115233 267.012695,402.359375 C267.217774,402.603517 267.36914,402.879393 267.466797,403.187012 C267.564454,403.49463 267.613281,403.804686 267.613281,404.117188 Z M281.646484,394.698242 C281.441405,394.844727 281.221681,395.003417 280.987305,395.174316 C280.752929,395.345216 280.523439,395.501464 280.298828,395.643066 C280.074218,395.784669 279.8667,395.901855 279.67627,395.994629 C279.485839,396.087403 279.332032,396.133789 279.214844,396.133789 C279.08789,396.133789 278.960938,396.048341 278.833984,395.877441 C278.707031,395.706542 278.56543,395.518556 278.40918,395.313477 C278.252929,395.108397 278.072267,394.920411 277.867188,394.749512 C277.662108,394.578612 277.422853,394.493164 277.149414,394.493164 C276.778318,394.493164 276.451173,394.603026 276.167969,394.822754 C275.884764,395.042482 275.635743,395.335447 275.420898,395.70166 C275.206054,396.067873 275.020509,396.487791 274.864258,396.961426 C274.708007,397.435061 274.576172,397.925779 274.46875,398.433594 C274.361328,398.941409 274.273438,399.444333 274.205078,399.942383 C274.136718,400.440432 274.078125,400.894529 274.029297,401.304688 L273.941406,401.993164 L277.691406,401.993164 L277.984375,402.40332 C277.886718,402.54004 277.754884,402.688964 277.588867,402.850098 C277.422851,403.011231 277.247071,403.165038 277.061523,403.311523 C276.875976,403.458009 276.697755,403.592285 276.526855,403.714355 C276.355956,403.836426 276.22168,403.921875 276.124023,403.970703 C276.075195,403.833984 275.999512,403.724122 275.896973,403.641113 C275.794433,403.558105 275.655274,403.492188 275.479492,403.443359 C275.30371,403.394531 275.083986,403.360352 274.820312,403.34082 C274.556639,403.321289 274.244142,403.311523 273.882812,403.311523 L273.794922,403.311523 L272.740234,412.422852 C272.613281,413.497076 272.395998,414.534663 272.088379,415.535645 C271.78076,416.536626 271.395022,417.469234 270.931152,418.333496 C270.467283,419.197758 269.93262,419.974118 269.327148,420.662598 C268.721677,421.351078 268.057621,421.915037 267.334961,422.354492 L266.954102,421.431641 C267.442385,421.158202 267.884275,420.728519 268.279785,420.142578 C268.675295,419.556638 269.021971,418.882816 269.319824,418.121094 C269.617677,417.359371 269.864257,416.551274 270.05957,415.696777 C270.254884,414.842281 270.396484,414.014652 270.484375,413.213867 L271.626953,403.311523 L269.415039,403.311523 L269.195312,402.857422 L270.674805,401.993164 L271.773438,401.993164 C271.871094,401.21191 271.985839,400.459965 272.117676,399.737305 C272.249512,399.014645 272.435057,398.331058 272.674316,397.686523 C272.913575,397.041989 273.230955,396.438968 273.626465,395.877441 C274.021975,395.315915 274.527341,394.805666 275.142578,394.34668 C275.406251,394.161132 275.660155,393.985352 275.904297,393.819336 C276.148439,393.653319 276.39746,393.506837 276.651367,393.379883 C276.905275,393.252929 277.166503,393.155274 277.435059,393.086914 C277.703615,393.018554 277.989256,392.984375 278.291992,392.984375 C278.721682,392.984375 279.109862,393.064941 279.456543,393.226074 C279.803224,393.387208 280.11328,393.56787 280.386719,393.768066 C280.660158,393.968263 280.901854,394.161132 281.111816,394.34668 C281.321778,394.532227 281.499999,394.649414 281.646484,394.698242 Z M285.44043,408.936523 C285.508789,408.497068 285.584472,408.04053 285.66748,407.566895 C285.750489,407.093259 285.833496,406.636721 285.916504,406.197266 C285.999512,405.75781 286.072754,405.354982 286.13623,404.98877 C286.199707,404.622557 286.250976,404.332032 286.290039,404.117188 C286.143554,403.999999 285.982423,403.880372 285.806641,403.758301 C285.630858,403.63623 285.442872,403.523926 285.242676,403.421387 C285.042479,403.318847 284.832521,403.23584 284.612793,403.172363 C284.393065,403.108886 284.166017,403.077148 283.931641,403.077148 C283.48242,403.077148 283.060061,403.187011 282.664551,403.406738 C282.269041,403.626466 281.902834,403.91699 281.565918,404.27832 C281.229002,404.63965 280.926271,405.052244 280.657715,405.516113 C280.389159,405.979983 280.16211,406.458494 279.976562,406.95166 C279.791015,407.444827 279.646973,407.930662 279.544434,408.40918 C279.441894,408.887698 279.390625,409.317381 279.390625,409.698242 C279.390625,410.333011 279.444335,410.904294 279.551758,411.412109 C279.65918,411.919924 279.805663,412.35449 279.991211,412.71582 C280.176759,413.07715 280.396483,413.355468 280.650391,413.550781 C280.904298,413.746095 281.177733,413.84375 281.470703,413.84375 C281.705079,413.84375 281.990721,413.694826 282.327637,413.396973 C282.664552,413.09912 283.016111,412.713381 283.382324,412.239746 C283.748537,411.766111 284.112303,411.238772 284.473633,410.657715 C284.834963,410.076657 285.157225,409.502933 285.44043,408.936523 Z M289.805664,414.253906 C288.95605,414.81055 288.270022,415.215819 287.747559,415.469727 C287.225095,415.723634 286.822267,415.850586 286.539062,415.850586 C286.36328,415.850586 286.194825,415.789551 286.033691,415.66748 C285.872558,415.54541 285.728516,415.31592 285.601562,414.979004 C285.474609,414.642088 285.374512,414.175784 285.30127,413.580078 C285.228027,412.984372 285.191406,412.212895 285.191406,411.265625 C284.937499,411.714846 284.627443,412.205564 284.26123,412.737793 C283.895018,413.270022 283.501955,413.768064 283.082031,414.231934 C282.662107,414.695803 282.229983,415.081541 281.785645,415.38916 C281.341306,415.696779 280.914065,415.850586 280.503906,415.850586 C280.181639,415.850586 279.837404,415.757813 279.471191,415.572266 C279.104979,415.386718 278.768068,415.091311 278.460449,414.686035 C278.15283,414.28076 277.896485,413.758304 277.691406,413.118652 C277.486327,412.479001 277.383789,411.7002 277.383789,410.782227 C277.383789,410.010738 277.47412,409.256351 277.654785,408.519043 C277.83545,407.781735 278.106444,407.076175 278.467773,406.402344 C278.829103,405.728512 279.270993,405.096194 279.793457,404.505371 C280.315921,403.914548 280.923825,403.384768 281.617188,402.916016 C281.880861,402.740233 282.171385,402.569337 282.48877,402.40332 C282.806154,402.237304 283.133299,402.090821 283.470215,401.963867 C283.807131,401.836913 284.1416,401.734375 284.473633,401.65625 C284.805666,401.578125 285.123045,401.539062 285.425781,401.539062 C285.63086,401.539062 285.831054,401.565918 286.026367,401.619629 C286.221681,401.67334 286.412108,401.74414 286.597656,401.832031 C286.783204,401.919922 286.958984,402.015136 287.125,402.117676 C287.291016,402.220215 287.447265,402.320312 287.59375,402.417969 C287.81836,402.251952 288.057616,402.095704 288.311523,401.949219 C288.565431,401.802734 288.824217,401.666016 289.087891,401.539062 L289.380859,402.051758 C289.214843,402.188477 289.078126,402.310546 288.970703,402.417969 C288.863281,402.525391 288.768067,402.649902 288.685059,402.791504 C288.60205,402.933106 288.53125,403.106444 288.472656,403.311523 C288.414062,403.516603 288.350586,403.785155 288.282227,404.117188 C288.135741,404.820316 287.996583,405.540524 287.864746,406.277832 C287.732909,407.01514 287.620606,407.710934 287.527832,408.365234 C287.435058,409.019535 287.361817,409.595701 287.308105,410.09375 C287.254394,410.591799 287.227539,410.948241 287.227539,411.163086 C287.227539,411.719729 287.244629,412.188475 287.278809,412.569336 C287.312988,412.950197 287.359375,413.25537 287.417969,413.484863 C287.476563,413.714357 287.549804,413.880371 287.637695,413.98291 C287.725586,414.08545 287.828124,414.136719 287.945312,414.136719 C288.140626,414.136719 288.372557,414.109864 288.641113,414.056152 C288.909669,414.002441 289.239256,413.892579 289.629883,413.726562 L289.805664,414.253906 Z M304.395508,414.253906 C303.604488,414.781253 302.933108,415.179198 302.381348,415.447754 C301.829587,415.71631 301.368166,415.850586 300.99707,415.850586 C300.811523,415.850586 300.628419,415.765138 300.447754,415.594238 C300.267089,415.423339 300.110841,415.14258 299.979004,414.751953 C299.847167,414.361326 299.754395,413.851077 299.700684,413.221191 C299.646972,412.591305 299.654297,411.817387 299.722656,410.899414 C299.322264,411.622074 298.899905,412.28613 298.455566,412.891602 C298.011228,413.497073 297.549807,414.019529 297.071289,414.458984 C296.592771,414.89844 296.099612,415.240233 295.591797,415.484375 C295.083982,415.728517 294.566409,415.850586 294.039062,415.850586 C293.843749,415.850586 293.621583,415.774903 293.372559,415.623535 C293.123534,415.472167 292.889161,415.245119 292.669434,414.942383 C292.449706,414.639647 292.264161,414.263674 292.112793,413.814453 C291.961425,413.365232 291.885742,412.842776 291.885742,412.24707 C291.885742,411.9541 291.912597,411.58301 291.966309,411.133789 C292.02002,410.684568 292.085937,410.201174 292.164062,409.683594 C292.242188,409.166013 292.330078,408.628909 292.427734,408.072266 C292.525391,407.515622 292.613281,406.983401 292.691406,406.475586 C292.769532,405.967771 292.835449,405.50635 292.88916,405.091309 C292.942871,404.676267 292.969727,404.351564 292.969727,404.117188 C292.969727,403.892577 292.955078,403.714356 292.925781,403.58252 C292.896484,403.450683 292.854981,403.353028 292.80127,403.289551 C292.747558,403.226074 292.684082,403.18457 292.61084,403.165039 C292.537597,403.145508 292.457032,403.135742 292.369141,403.135742 C292.28125,403.135742 292.154298,403.152832 291.988281,403.187012 C291.822265,403.221192 291.656251,403.262695 291.490234,403.311523 C291.294921,403.360352 291.084962,403.418945 290.860352,403.487305 L290.68457,402.945312 C291.094729,402.759765 291.507322,402.581544 291.922363,402.410645 C292.337404,402.239745 292.720701,402.090821 293.072266,401.963867 C293.42383,401.836913 293.733885,401.734375 294.002441,401.65625 C294.270997,401.578125 294.463867,401.539062 294.581055,401.539062 C294.864259,401.539062 295.054687,401.631835 295.152344,401.817383 C295.25,402.002931 295.298828,402.32031 295.298828,402.769531 C295.298828,403.052736 295.269532,403.423826 295.210938,403.882812 C295.152343,404.341799 295.079102,404.844724 294.991211,405.391602 C294.90332,405.938479 294.810547,406.50488 294.712891,407.09082 C294.615234,407.676761 294.522461,408.243161 294.43457,408.790039 C294.346679,409.336917 294.273438,409.839841 294.214844,410.298828 C294.15625,410.757815 294.126953,411.128905 294.126953,411.412109 C294.126953,412.349614 294.22705,413.028318 294.427246,413.448242 C294.627442,413.868166 294.908201,414.078125 295.269531,414.078125 C295.464845,414.078125 295.723631,413.982911 296.045898,413.79248 C296.368166,413.60205 296.734373,413.294436 297.144531,412.869629 C297.55469,412.444822 298.001462,411.890628 298.484863,411.207031 C298.968264,410.523434 299.468747,409.688481 299.986328,408.702148 C300.054688,408.282224 300.125488,407.859865 300.19873,407.435059 C300.271973,407.010252 300.342773,406.6001 300.411133,406.20459 C300.479493,405.80908 300.535644,405.433107 300.57959,405.07666 C300.623535,404.720213 300.645508,404.400392 300.645508,404.117188 C300.645508,403.892577 300.633301,403.714356 300.608887,403.58252 C300.584473,403.450683 300.547852,403.353028 300.499023,403.289551 C300.450195,403.226074 300.394043,403.18457 300.330566,403.165039 C300.26709,403.145508 300.191407,403.135742 300.103516,403.135742 C300.015625,403.135742 299.895997,403.152832 299.744629,403.187012 C299.593261,403.221192 299.439454,403.262695 299.283203,403.311523 C299.107421,403.360352 298.921876,403.418945 298.726562,403.487305 L298.506836,402.945312 C298.916994,402.759765 299.322264,402.581544 299.722656,402.410645 C300.123049,402.239745 300.491698,402.090821 300.828613,401.963867 C301.165529,401.836913 301.460936,401.734375 301.714844,401.65625 C301.968751,401.578125 302.159179,401.539062 302.286133,401.539062 C302.559572,401.539062 302.740234,401.631835 302.828125,401.817383 C302.916016,402.002931 302.959961,402.32031 302.959961,402.769531 C302.959961,403.052736 302.930664,403.421384 302.87207,403.875488 C302.813476,404.329592 302.740235,404.827634 302.652344,405.369629 C302.564453,405.911624 302.466797,406.478024 302.359375,407.068848 C302.251953,407.659671 302.154297,408.230954 302.066406,408.782715 C301.978515,409.334475 301.905274,409.849607 301.84668,410.328125 C301.788086,410.806643 301.758789,411.20703 301.758789,411.529297 C301.758789,412.417973 301.822265,413.074705 301.949219,413.499512 C302.076173,413.924319 302.261718,414.136719 302.505859,414.136719 C302.759767,414.136719 303.016112,414.104981 303.274902,414.041504 C303.533693,413.978027 303.838865,413.873048 304.19043,413.726562 L304.395508,414.253906 Z M311.470703,414.195312 C310.992185,414.498048 310.569826,414.754393 310.203613,414.964355 C309.837401,415.174317 309.505373,415.345214 309.20752,415.477051 C308.909666,415.608887 308.63379,415.704101 308.379883,415.762695 C308.125975,415.821289 307.876954,415.850586 307.632812,415.850586 C307.359374,415.850586 307.115235,415.704103 306.900391,415.411133 C306.685546,415.118163 306.578125,414.683597 306.578125,414.107422 C306.578125,413.86328 306.614746,413.448245 306.687988,412.862305 C306.761231,412.276364 306.856445,411.578129 306.973633,410.767578 C307.090821,409.957027 307.225097,409.065923 307.376465,408.094238 C307.527833,407.122554 307.68164,406.128911 307.837891,405.113281 C307.994141,404.097651 308.147948,403.091802 308.299316,402.095703 C308.450684,401.099604 308.58496,400.171879 308.702148,399.3125 C308.819337,398.453121 308.91455,397.693851 308.987793,397.034668 C309.061036,396.375485 309.097656,395.875002 309.097656,395.533203 C309.097656,395.308593 309.075684,395.130372 309.031738,394.998535 C308.987793,394.866699 308.931641,394.769043 308.863281,394.705566 C308.794922,394.64209 308.714356,394.600586 308.621582,394.581055 C308.528808,394.561523 308.438477,394.551758 308.350586,394.551758 C308.272461,394.551758 308.14795,394.57373 307.977051,394.617676 C307.806151,394.661621 307.637696,394.708008 307.47168,394.756836 C307.276366,394.81543 307.061525,394.878906 306.827148,394.947266 L306.607422,394.375977 C307.01758,394.190429 307.430174,394.014649 307.845215,393.848633 C308.260256,393.682616 308.645994,393.536133 309.002441,393.40918 C309.358889,393.282226 309.673827,393.179688 309.947266,393.101562 C310.220704,393.023437 310.420898,392.984375 310.547852,392.984375 C310.82129,392.984375 311.038573,393.072265 311.199707,393.248047 C311.360841,393.423829 311.441406,393.736326 311.441406,394.185547 C311.441406,394.566408 311.404786,395.093747 311.331543,395.767578 C311.2583,396.44141 311.163087,397.210445 311.045898,398.074707 C310.92871,398.938969 310.791993,399.866694 310.635742,400.85791 C310.479491,401.849126 310.323243,402.852534 310.166992,403.868164 C310.010741,404.883794 309.854493,405.882319 309.698242,406.86377 C309.541991,407.84522 309.405274,408.755855 309.288086,409.595703 C309.170898,410.435551 309.075684,411.17529 309.002441,411.814941 C308.929199,412.454593 308.892578,412.940428 308.892578,413.272461 C308.892578,413.604494 308.938964,413.831542 309.031738,413.953613 C309.124512,414.075684 309.249023,414.136719 309.405273,414.136719 C309.629884,414.136719 309.891112,414.097657 310.188965,414.019531 C310.486818,413.941406 310.855467,413.819337 311.294922,413.65332 L311.470703,414.195312 Z M320.625977,413.536133 C320.147459,413.907228 319.668948,414.236815 319.19043,414.524902 C318.711912,414.81299 318.257815,415.054687 317.828125,415.25 C317.398435,415.445313 317.010256,415.594238 316.663574,415.696777 C316.316893,415.799317 316.036134,415.850586 315.821289,415.850586 C315.577147,415.850586 315.345216,415.777344 315.125488,415.630859 C314.905761,415.484374 314.71045,415.28174 314.539551,415.022949 C314.368651,414.764159 314.234375,414.454103 314.136719,414.092773 C314.039062,413.731444 313.990234,413.33594 313.990234,412.90625 C313.990234,412.720702 313.995117,412.535157 314.004883,412.349609 C314.014648,412.164062 314.026855,411.971192 314.041504,411.770996 C314.056152,411.5708 314.075683,411.3584 314.100098,411.133789 C314.124512,410.909179 314.15625,410.660158 314.195312,410.386719 L315.323242,403.311523 L313.213867,403.311523 L312.994141,402.857422 L314.473633,401.993164 L315.52832,401.993164 L315.616211,401.480469 C315.674805,401.080076 315.73584,400.748048 315.799316,400.484375 C315.862793,400.220702 315.936035,400.000977 316.019043,399.825195 C316.102051,399.649413 316.192382,399.505372 316.290039,399.393066 C316.387696,399.280761 316.499999,399.175782 316.626953,399.078125 L318.106445,398.023438 L318.516602,398.389648 C318.448242,398.47754 318.375,398.633788 318.296875,398.858398 C318.228515,399.053712 318.14795,399.332029 318.055176,399.693359 C317.962402,400.054689 317.867188,400.538083 317.769531,401.143555 L317.637695,401.993164 L321.285156,401.993164 L321.578125,402.40332 C321.480468,402.54004 321.346192,402.688964 321.175293,402.850098 C321.004394,403.011231 320.826173,403.165038 320.640625,403.311523 C320.455077,403.458009 320.276856,403.592285 320.105957,403.714355 C319.935058,403.836426 319.805665,403.921875 319.717773,403.970703 C319.659179,403.833984 319.578614,403.724122 319.476074,403.641113 C319.373535,403.558105 319.234376,403.492188 319.058594,403.443359 C318.882812,403.394531 318.665529,403.360352 318.406738,403.34082 C318.147948,403.321289 317.837892,403.311523 317.476562,403.311523 L317.432617,403.311523 L316.392578,410.035156 C316.363281,410.220704 316.336426,410.418456 316.312012,410.628418 C316.287598,410.83838 316.268066,411.038573 316.253418,411.229004 C316.238769,411.419435 316.229004,411.597655 316.224121,411.763672 C316.219238,411.929688 316.216797,412.061523 316.216797,412.15918 C316.216797,412.764651 316.326659,413.211424 316.546387,413.499512 C316.766114,413.787599 317.012694,413.931641 317.286133,413.931641 C317.627931,413.931641 318.045408,413.858399 318.538574,413.711914 C319.031741,413.565429 319.644528,413.326174 320.376953,412.994141 L320.625977,413.536133 Z M341.631836,401.451172 C341.631836,402.281254 341.470705,403.060055 341.148438,403.787598 C340.82617,404.51514 340.38428,405.147458 339.822754,405.68457 C339.261228,406.221682 338.604496,406.644041 337.852539,406.95166 C337.100582,407.259279 336.299809,407.413086 335.450195,407.413086 C335.0791,407.413086 334.703127,407.3667 334.322266,407.273926 C333.941404,407.181152 333.619142,407.061524 333.355469,406.915039 L333.194336,405.831055 C333.526369,405.967774 333.855955,406.082519 334.183105,406.175293 C334.510256,406.268067 334.830077,406.314453 335.142578,406.314453 C335.787113,406.314453 336.377927,406.209474 336.915039,405.999512 C337.452151,405.78955 337.913572,405.494143 338.299316,405.113281 C338.685061,404.73242 338.98535,404.275882 339.200195,403.743652 C339.41504,403.211423 339.522461,402.627933 339.522461,401.993164 C339.522461,401.172847 339.390626,400.481936 339.126953,399.92041 C338.86328,399.358884 338.506838,398.904787 338.057617,398.558105 C337.608396,398.211424 337.08594,397.962403 336.490234,397.811035 C335.894528,397.659667 335.269535,397.583984 334.615234,397.583984 L334.219727,397.583984 C334.092773,397.583984 333.965821,397.588867 333.838867,397.598633 L331.641602,413.726562 C331.62207,413.785157 331.641601,413.848632 331.700195,413.916992 C331.758789,413.985352 331.871093,414.058593 332.037109,414.136719 C332.203126,414.214844 332.432616,414.292968 332.725586,414.371094 C333.018556,414.449219 333.394529,414.532226 333.853516,414.620117 L333.765625,415.25 L327.349609,415.25 L327.4375,414.620117 C328.052737,414.483398 328.545897,414.334473 328.916992,414.17334 C329.288088,414.012206 329.483398,413.863282 329.50293,413.726562 L331.685547,397.745117 C331.343748,397.793946 330.987307,397.852539 330.616211,397.920898 C330.245115,397.989258 329.844729,398.077148 329.415039,398.18457 L329.415039,397.305664 C329.825197,397.159179 330.247556,397.024903 330.682129,396.902832 C331.116701,396.780761 331.583005,396.680664 332.081055,396.602539 C332.579104,396.524414 333.113767,396.463379 333.685059,396.419434 C334.256351,396.375488 334.87402,396.353516 335.538086,396.353516 C336.475591,396.353516 337.320309,396.460936 338.072266,396.675781 C338.824223,396.890626 339.463865,397.212888 339.991211,397.642578 C340.518557,398.072268 340.923827,398.604489 341.207031,399.239258 C341.490236,399.874027 341.631836,400.611324 341.631836,401.451172 Z M352.735352,402.798828 C352.618163,402.955079 352.48877,403.145507 352.347168,403.370117 C352.205566,403.594728 352.063966,403.812011 351.922363,404.021973 C351.780761,404.231935 351.646485,404.410156 351.519531,404.556641 C351.392577,404.703126 351.280274,404.776367 351.182617,404.776367 C350.997069,404.776367 350.83838,404.722657 350.706543,404.615234 C350.574706,404.507812 350.452637,404.393067 350.340332,404.270996 C350.228027,404.148925 350.115723,404.03418 350.003418,403.926758 C349.891113,403.819335 349.761719,403.765625 349.615234,403.765625 C349.361327,403.765625 349.06592,403.938963 348.729004,404.285645 C348.392088,404.632326 348.055177,405.086423 347.718262,405.647949 C347.381346,406.209475 347.059084,406.839352 346.751465,407.537598 C346.443846,408.235843 346.187501,408.93652 345.982422,409.639648 C345.874999,410.010744 345.779786,410.418455 345.696777,410.862793 C345.613769,411.307131 345.540528,411.76367 345.477051,412.232422 C345.413574,412.701174 345.367188,413.162595 345.337891,413.616699 C345.308594,414.070803 345.303711,414.493162 345.323242,414.883789 C345.196288,414.952149 345.037599,415.027832 344.847168,415.11084 C344.656737,415.193848 344.461427,415.279296 344.26123,415.367188 C344.061034,415.455079 343.868165,415.540527 343.682617,415.623535 C343.497069,415.706543 343.345704,415.782226 343.228516,415.850586 L342.745117,415.396484 C342.891602,414.703122 343.033202,413.985355 343.169922,413.243164 C343.306641,412.500973 343.436035,411.761234 343.558105,411.023926 C343.680176,410.286617 343.79248,409.56641 343.89502,408.863281 C343.997559,408.160153 344.085449,407.505862 344.158691,406.900391 C344.231934,406.294919 344.290527,405.752932 344.334473,405.274414 C344.378418,404.795896 344.400391,404.410158 344.400391,404.117188 C344.400391,403.892577 344.383301,403.714356 344.349121,403.58252 C344.314941,403.450683 344.270996,403.353028 344.217285,403.289551 C344.163574,403.226074 344.100098,403.18457 344.026855,403.165039 C343.953613,403.145508 343.87793,403.135742 343.799805,403.135742 C343.702148,403.135742 343.570313,403.152832 343.404297,403.187012 C343.23828,403.221192 343.072266,403.262695 342.90625,403.311523 C342.710937,403.360352 342.50586,403.418945 342.291016,403.487305 L342.085938,402.945312 C342.496096,402.759765 342.908689,402.581544 343.32373,402.410645 C343.738772,402.239745 344.126951,402.090821 344.488281,401.963867 C344.849611,401.836913 345.164549,401.734375 345.433105,401.65625 C345.701661,401.578125 345.894531,401.539062 346.011719,401.539062 C346.148438,401.539062 346.255859,401.563476 346.333984,401.612305 C346.41211,401.661133 346.468262,401.746581 346.502441,401.868652 C346.536621,401.990723 346.558594,402.16162 346.568359,402.381348 C346.578125,402.601075 346.583008,402.881834 346.583008,403.223633 C346.583008,403.331055 346.56836,403.511717 346.539062,403.765625 C346.509765,404.019533 346.475586,404.295409 346.436523,404.593262 C346.397461,404.891115 346.355957,405.186522 346.312012,405.479492 C346.268066,405.772462 346.231445,406.011718 346.202148,406.197266 C346.670901,405.230464 347.115232,404.444339 347.535156,403.838867 C347.95508,403.233395 348.353025,402.759767 348.729004,402.417969 C349.104982,402.07617 349.463865,401.844239 349.805664,401.722168 C350.147463,401.600097 350.474608,401.539062 350.787109,401.539062 C350.962892,401.539062 351.121581,401.58789 351.263184,401.685547 C351.404786,401.783204 351.548827,401.90039 351.695312,402.037109 C351.841798,402.173829 351.998046,402.312988 352.164062,402.45459 C352.330079,402.596192 352.520507,402.710937 352.735352,402.798828 Z M358.799805,414.195312 C358.340818,414.468751 357.928224,414.708007 357.562012,414.913086 C357.195799,415.118165 356.86133,415.291503 356.558594,415.433105 C356.255858,415.574708 355.982423,415.679687 355.738281,415.748047 C355.494139,415.816407 355.26465,415.850586 355.049805,415.850586 C354.717772,415.850586 354.454103,415.696779 354.258789,415.38916 C354.063476,415.081541 353.96582,414.664065 353.96582,414.136719 C353.96582,413.843749 354.002441,413.426272 354.075684,412.884277 C354.148926,412.342282 354.239257,411.741703 354.34668,411.08252 C354.454102,410.423337 354.571288,409.734867 354.698242,409.01709 C354.825196,408.299313 354.942382,407.615726 355.049805,406.966309 C355.157227,406.316891 355.247558,405.738284 355.320801,405.230469 C355.394043,404.722654 355.430664,404.351564 355.430664,404.117188 C355.430664,403.892577 355.416016,403.714356 355.386719,403.58252 C355.357422,403.450683 355.31836,403.353028 355.269531,403.289551 C355.220703,403.226074 355.157227,403.18457 355.079102,403.165039 C355.000976,403.145508 354.917969,403.135742 354.830078,403.135742 C354.751953,403.135742 354.632325,403.152832 354.471191,403.187012 C354.310058,403.221192 354.146485,403.262695 353.980469,403.311523 C353.794921,403.360352 353.589845,403.418945 353.365234,403.487305 L353.160156,402.945312 C353.570315,402.759765 353.978025,402.581544 354.383301,402.410645 C354.788576,402.239745 355.16699,402.090821 355.518555,401.963867 C355.870119,401.836913 356.177733,401.734375 356.441406,401.65625 C356.705079,401.578125 356.90039,401.539062 357.027344,401.539062 C357.300783,401.539062 357.493652,401.631835 357.605957,401.817383 C357.718262,402.002931 357.774414,402.32031 357.774414,402.769531 C357.774414,403.052736 357.737793,403.470212 357.664551,404.021973 C357.591308,404.573733 357.496094,405.191403 357.378906,405.875 C357.261718,406.558597 357.139649,407.273922 357.012695,408.020996 C356.885742,408.76807 356.763672,409.483395 356.646484,410.166992 C356.529296,410.850589 356.434082,411.468259 356.36084,412.02002 C356.287597,412.57178 356.250977,412.989256 356.250977,413.272461 C356.250977,413.575197 356.282715,413.794921 356.346191,413.931641 C356.409668,414.06836 356.524413,414.136719 356.69043,414.136719 C356.993166,414.136719 357.28369,414.097657 357.562012,414.019531 C357.840333,413.941406 358.179685,413.819337 358.580078,413.65332 L358.799805,414.195312 Z M359.195312,396.763672 C359.195312,397.037111 359.153809,397.308104 359.070801,397.57666 C358.987793,397.845216 358.868165,398.089354 358.711914,398.309082 C358.555663,398.52881 358.365235,398.707031 358.140625,398.84375 C357.916015,398.980469 357.666994,399.048828 357.393555,399.048828 C357.090819,399.048828 356.856446,398.960938 356.69043,398.785156 C356.524413,398.609374 356.441406,398.35547 356.441406,398.023438 C356.441406,397.759764 356.485351,397.493654 356.573242,397.225098 C356.661133,396.956542 356.783202,396.709962 356.939453,396.485352 C357.095704,396.260741 357.28369,396.077637 357.503418,395.936035 C357.723146,395.794433 357.969725,395.723633 358.243164,395.723633 C358.5459,395.723633 358.780273,395.813964 358.946289,395.994629 C359.112306,396.175294 359.195312,396.431639 359.195312,396.763672 Z M371.426758,403.311523 C371.221679,403.458009 371.004396,403.614257 370.774902,403.780273 C370.545409,403.94629 370.323243,404.095214 370.108398,404.227051 C369.893554,404.358887 369.690919,404.46875 369.500488,404.556641 C369.310058,404.644532 369.151368,404.688477 369.024414,404.688477 C368.916992,404.688477 368.785157,404.60547 368.628906,404.439453 C368.472655,404.273437 368.289552,404.087892 368.07959,403.882812 C367.869628,403.677733 367.632814,403.492188 367.369141,403.326172 C367.105467,403.160155 366.817384,403.077148 366.504883,403.077148 C366.055662,403.077148 365.64551,403.184569 365.274414,403.399414 C364.903318,403.614259 364.566408,403.902342 364.263672,404.263672 C363.960936,404.625002 363.694825,405.042478 363.465332,405.516113 C363.235839,405.989748 363.045411,406.482908 362.894043,406.995605 C362.742675,407.508303 362.62793,408.023435 362.549805,408.541016 C362.471679,409.058596 362.432617,409.546873 362.432617,410.005859 C362.432617,410.640628 362.503417,411.211912 362.64502,411.719727 C362.786622,412.227542 362.984374,412.659666 363.238281,413.016113 C363.492189,413.37256 363.79492,413.648437 364.146484,413.84375 C364.498049,414.039063 364.883787,414.136719 365.303711,414.136719 C365.479493,414.136719 365.7041,414.107422 365.977539,414.048828 C366.250978,413.990234 366.565916,413.880372 366.922363,413.719238 C367.27881,413.558105 367.676756,413.340822 368.116211,413.067383 C368.555666,412.793944 369.03906,412.442385 369.566406,412.012695 C369.644532,412.120118 369.727539,412.227539 369.81543,412.334961 C369.903321,412.442383 369.971679,412.535156 370.020508,412.613281 C369.258785,413.306644 368.575198,413.865721 367.969727,414.290527 C367.364255,414.715334 366.814944,415.042479 366.321777,415.271973 C365.828611,415.501466 365.384279,415.655273 364.98877,415.733398 C364.59326,415.811524 364.219728,415.850586 363.868164,415.850586 C363.536131,415.850586 363.165041,415.767579 362.754883,415.601562 C362.344725,415.435546 361.956545,415.147463 361.590332,414.737305 C361.224119,414.327146 360.916505,413.780277 360.66748,413.09668 C360.418456,412.413083 360.293945,411.558599 360.293945,410.533203 C360.293945,409.878903 360.362304,409.20264 360.499023,408.504395 C360.635743,407.806149 360.857909,407.122562 361.165527,406.453613 C361.473146,405.784665 361.873533,405.147464 362.366699,404.541992 C362.859866,403.93652 363.46777,403.394534 364.19043,402.916016 C364.463869,402.740233 364.7666,402.569337 365.098633,402.40332 C365.430666,402.237304 365.774901,402.090821 366.131348,401.963867 C366.487795,401.836913 366.839354,401.734375 367.186035,401.65625 C367.532717,401.578125 367.85742,401.539062 368.160156,401.539062 C368.589846,401.539062 368.973143,401.622069 369.310059,401.788086 C369.646974,401.954102 369.947264,402.142089 370.210938,402.352051 C370.474611,402.562013 370.706542,402.762206 370.906738,402.952637 C371.106935,403.143067 371.280273,403.262695 371.426758,403.311523 Z M377.828125,414.195312 C377.369138,414.468751 376.956545,414.708007 376.590332,414.913086 C376.224119,415.118165 375.88965,415.291503 375.586914,415.433105 C375.284178,415.574708 375.010743,415.679687 374.766602,415.748047 C374.52246,415.816407 374.29297,415.850586 374.078125,415.850586 C373.746092,415.850586 373.482423,415.696779 373.287109,415.38916 C373.091796,415.081541 372.994141,414.664065 372.994141,414.136719 C372.994141,413.843749 373.030761,413.426272 373.104004,412.884277 C373.177246,412.342282 373.267578,411.741703 373.375,411.08252 C373.482422,410.423337 373.599609,409.734867 373.726562,409.01709 C373.853516,408.299313 373.970703,407.615726 374.078125,406.966309 C374.185547,406.316891 374.275879,405.738284 374.349121,405.230469 C374.422364,404.722654 374.458984,404.351564 374.458984,404.117188 C374.458984,403.892577 374.444336,403.714356 374.415039,403.58252 C374.385742,403.450683 374.34668,403.353028 374.297852,403.289551 C374.249023,403.226074 374.185547,403.18457 374.107422,403.165039 C374.029296,403.145508 373.94629,403.135742 373.858398,403.135742 C373.780273,403.135742 373.660645,403.152832 373.499512,403.187012 C373.338378,403.221192 373.174806,403.262695 373.008789,403.311523 C372.823241,403.360352 372.618165,403.418945 372.393555,403.487305 L372.188477,402.945312 C372.598635,402.759765 373.006346,402.581544 373.411621,402.410645 C373.816897,402.239745 374.195311,402.090821 374.546875,401.963867 C374.898439,401.836913 375.206053,401.734375 375.469727,401.65625 C375.7334,401.578125 375.92871,401.539062 376.055664,401.539062 C376.329103,401.539062 376.521972,401.631835 376.634277,401.817383 C376.746583,402.002931 376.802734,402.32031 376.802734,402.769531 C376.802734,403.052736 376.766114,403.470212 376.692871,404.021973 C376.619629,404.573733 376.524415,405.191403 376.407227,405.875 C376.290038,406.558597 376.167969,407.273922 376.041016,408.020996 C375.914062,408.76807 375.791993,409.483395 375.674805,410.166992 C375.557617,410.850589 375.462403,411.468259 375.38916,412.02002 C375.315918,412.57178 375.279297,412.989256 375.279297,413.272461 C375.279297,413.575197 375.311035,413.794921 375.374512,413.931641 C375.437989,414.06836 375.552734,414.136719 375.71875,414.136719 C376.021486,414.136719 376.31201,414.097657 376.590332,414.019531 C376.868654,413.941406 377.208006,413.819337 377.608398,413.65332 L377.828125,414.195312 Z M378.223633,396.763672 C378.223633,397.037111 378.182129,397.308104 378.099121,397.57666 C378.016113,397.845216 377.896485,398.089354 377.740234,398.309082 C377.583984,398.52881 377.393556,398.707031 377.168945,398.84375 C376.944335,398.980469 376.695314,399.048828 376.421875,399.048828 C376.119139,399.048828 375.884766,398.960938 375.71875,398.785156 C375.552734,398.609374 375.469727,398.35547 375.469727,398.023438 C375.469727,397.759764 375.513671,397.493654 375.601562,397.225098 C375.689454,396.956542 375.811523,396.709962 375.967773,396.485352 C376.124024,396.260741 376.312011,396.077637 376.531738,395.936035 C376.751466,395.794433 376.998046,395.723633 377.271484,395.723633 C377.57422,395.723633 377.808593,395.813964 377.974609,395.994629 C378.140626,396.175294 378.223633,396.431639 378.223633,396.763672 Z M392.798828,414.195312 C391.910152,414.722659 391.155765,415.13037 390.535645,415.418457 C389.915524,415.706544 389.419924,415.850586 389.048828,415.850586 C388.70703,415.850586 388.440919,415.696779 388.250488,415.38916 C388.060058,415.081541 387.964844,414.664065 387.964844,414.136719 C387.964844,413.960937 387.996582,413.645998 388.060059,413.191895 C388.123535,412.737791 388.204101,412.208011 388.301758,411.602539 C388.399415,410.997067 388.506835,410.352542 388.624023,409.668945 C388.741212,408.985348 388.848632,408.335941 388.946289,407.720703 C389.043946,407.105466 389.124511,406.553713 389.187988,406.06543 C389.251465,405.577146 389.283203,405.220704 389.283203,404.996094 C389.283203,404.253903 389.205079,403.73633 389.048828,403.443359 C388.892577,403.150389 388.599612,403.003906 388.169922,403.003906 C388.042968,403.003906 387.820802,403.08203 387.503418,403.238281 C387.186034,403.394532 386.82715,403.628905 386.426758,403.941406 C386.026365,404.253908 385.608889,404.644529 385.174316,405.113281 C384.739744,405.582034 384.341799,406.128903 383.980469,406.753906 C383.70703,407.222659 383.484864,407.784176 383.313965,408.438477 C383.143066,409.092777 382.97461,409.89355 382.808594,410.84082 C382.652343,411.709965 382.552246,412.457028 382.508301,413.082031 C382.464355,413.707034 382.452148,414.307614 382.47168,414.883789 C382.344726,414.952149 382.186036,415.027832 381.995605,415.11084 C381.805175,415.193848 381.609864,415.279296 381.409668,415.367188 C381.209472,415.455079 381.016602,415.540527 380.831055,415.623535 C380.645507,415.706543 380.494141,415.782226 380.376953,415.850586 L379.893555,415.396484 C380.030274,414.75195 380.16455,414.053715 380.296387,413.301758 C380.428223,412.549801 380.555175,411.795414 380.677246,411.038574 C380.799317,410.281734 380.914062,409.534672 381.021484,408.797363 C381.128907,408.060055 381.221679,407.381351 381.299805,406.76123 C381.37793,406.14111 381.438965,405.596682 381.48291,405.12793 C381.526856,404.659177 381.548828,404.312501 381.548828,404.087891 C381.548828,403.86328 381.536621,403.685059 381.512207,403.553223 C381.487793,403.421386 381.453614,403.323731 381.409668,403.260254 C381.365722,403.196777 381.309571,403.155274 381.241211,403.135742 C381.172851,403.116211 381.094727,403.106445 381.006836,403.106445 C380.918945,403.106445 380.789552,403.125976 380.618652,403.165039 C380.447753,403.204102 380.274415,403.248047 380.098633,403.296875 C379.893554,403.355469 379.673829,403.418945 379.439453,403.487305 L379.234375,402.916016 C379.644533,402.740233 380.057127,402.569337 380.472168,402.40332 C380.887209,402.237304 381.275389,402.090821 381.636719,401.963867 C381.998049,401.836913 382.312987,401.734375 382.581543,401.65625 C382.850099,401.578125 383.042968,401.539062 383.160156,401.539062 C383.296876,401.539062 383.404296,401.561035 383.482422,401.60498 C383.560547,401.648926 383.616699,401.729492 383.650879,401.84668 C383.685059,401.963868 383.707031,402.129882 383.716797,402.344727 C383.726563,402.559571 383.731445,402.842772 383.731445,403.194336 C383.731445,403.301758 383.726563,403.448241 383.716797,403.633789 C383.707031,403.819337 383.694824,404.017089 383.680176,404.227051 C383.665527,404.437013 383.648438,404.642089 383.628906,404.842285 C383.609375,405.042481 383.594727,405.201171 383.584961,405.318359 C384.112307,404.654294 384.644529,404.08301 385.181641,403.604492 C385.718753,403.125974 386.246091,402.732912 386.763672,402.425293 C387.281253,402.117674 387.781736,401.893067 388.265137,401.751465 C388.748538,401.609863 389.209959,401.539062 389.649414,401.539062 C389.95215,401.539062 390.223143,401.583007 390.462402,401.670898 C390.701661,401.75879 390.899413,401.902831 391.055664,402.103027 C391.211915,402.303224 391.331543,402.566893 391.414551,402.894043 C391.497559,403.221193 391.539062,403.619138 391.539062,404.087891 C391.539062,404.429689 391.507325,404.85449 391.443848,405.362305 C391.380371,405.87012 391.299805,406.419431 391.202148,407.010254 C391.104492,407.601077 390.997071,408.208981 390.879883,408.833984 C390.762695,409.458987 390.655274,410.054685 390.557617,410.621094 C390.45996,411.187503 390.379395,411.702634 390.315918,412.166504 C390.252441,412.630373 390.220703,412.999022 390.220703,413.272461 C390.220703,413.604494 390.264648,413.831542 390.352539,413.953613 C390.44043,414.075684 390.572265,414.136719 390.748047,414.136719 C390.972657,414.136719 391.231444,414.097657 391.524414,414.019531 C391.817384,413.941406 392.168943,413.819337 392.579102,413.65332 L392.798828,414.195312 Z M398.321289,413.84375 C398.526368,413.84375 398.804686,413.680177 399.15625,413.353027 C399.507814,413.025877 399.886228,412.58887 400.291504,412.041992 C400.696779,411.495114 401.106932,410.860355 401.521973,410.137695 C401.937014,409.415035 402.305662,408.658207 402.62793,407.867188 C402.666992,407.496092 402.708496,407.107912 402.752441,406.702637 C402.796387,406.297361 402.857421,405.865237 402.935547,405.40625 C402.964844,405.201171 403.006347,405.00586 403.060059,404.820312 C403.11377,404.634765 403.174804,404.458985 403.243164,404.292969 C403.096679,404.175781 402.935548,404.048829 402.759766,403.912109 C402.583983,403.77539 402.391114,403.643555 402.181152,403.516602 C401.97119,403.389648 401.744142,403.284668 401.5,403.20166 C401.255858,403.118652 400.997072,403.077148 400.723633,403.077148 C400.274412,403.077148 399.849611,403.187011 399.449219,403.406738 C399.048826,403.626466 398.680177,403.91699 398.343262,404.27832 C398.006346,404.63965 397.703615,405.052244 397.435059,405.516113 C397.166503,405.979983 396.937013,406.458494 396.746582,406.95166 C396.556151,407.444827 396.409668,407.930662 396.307129,408.40918 C396.204589,408.887698 396.15332,409.317381 396.15332,409.698242 C396.15332,410.333011 396.211913,410.904294 396.329102,411.412109 C396.44629,411.919924 396.602538,412.35449 396.797852,412.71582 C396.993165,413.07715 397.222655,413.355468 397.486328,413.550781 C397.750001,413.746095 398.028319,413.84375 398.321289,413.84375 Z M406.246094,402.051758 C405.914061,402.325197 405.652833,402.662107 405.462402,403.0625 C405.271972,403.462893 405.132813,404.014645 405.044922,404.717773 C404.908202,405.879889 404.808106,406.939448 404.744629,407.896484 C404.681152,408.85352 404.627442,409.749508 404.583496,410.584473 C404.539551,411.419438 404.48584,412.215328 404.422363,412.972168 C404.358886,413.729008 404.25879,414.483395 404.12207,415.235352 C403.946288,416.250982 403.636233,417.203121 403.191895,418.091797 C402.747556,418.980473 402.220218,419.756833 401.609863,420.420898 C400.999509,421.084964 400.325687,421.609861 399.588379,421.995605 C398.851071,422.38135 398.101566,422.574219 397.339844,422.574219 C396.929685,422.574219 396.487795,422.513184 396.01416,422.391113 C395.540525,422.269042 395.103518,422.120118 394.703125,421.944336 C394.302732,421.768554 393.968263,421.578126 393.699707,421.373047 C393.431151,421.167968 393.296875,420.97754 393.296875,420.801758 C393.296875,420.635741 393.360351,420.447755 393.487305,420.237793 C393.614258,420.027831 393.760741,419.83252 393.926758,419.651855 C394.092774,419.471191 394.256347,419.317383 394.41748,419.19043 C394.578614,419.063476 394.693359,419 394.761719,419 C394.839844,419 394.92041,419.048828 395.003418,419.146484 C395.086426,419.244141 395.188964,419.363769 395.311035,419.505371 C395.433106,419.646973 395.579589,419.803222 395.750488,419.974121 C395.921388,420.14502 396.128905,420.301269 396.373047,420.442871 C396.617189,420.584473 396.910155,420.704101 397.251953,420.801758 C397.593752,420.899415 397.994138,420.948242 398.453125,420.948242 C399.400395,420.948242 400.152341,420.523442 400.708984,419.673828 C401.265628,418.824215 401.685545,417.583993 401.96875,415.953125 C402.056641,415.406247 402.127441,414.891116 402.181152,414.407715 C402.234864,413.924314 402.278808,413.455569 402.312988,413.001465 C402.347168,412.547361 402.374023,412.10303 402.393555,411.668457 C402.413086,411.233885 402.432617,410.787112 402.452148,410.328125 C402.139647,410.943362 401.775881,411.57568 401.36084,412.225098 C400.945799,412.874515 400.50635,413.467771 400.04248,414.004883 C399.578611,414.541995 399.107424,414.983885 398.628906,415.330566 C398.150388,415.677248 397.696291,415.850586 397.266602,415.850586 C396.944334,415.850586 396.600099,415.757813 396.233887,415.572266 C395.867674,415.386718 395.52588,415.091311 395.208496,414.686035 C394.891112,414.28076 394.629884,413.758304 394.424805,413.118652 C394.219726,412.479001 394.117188,411.7002 394.117188,410.782227 C394.117188,410.010738 394.205077,409.256351 394.380859,408.519043 C394.556642,407.781735 394.822752,407.078617 395.179199,406.409668 C395.535646,405.740719 395.982419,405.110843 396.519531,404.52002 C397.056643,403.929196 397.68652,403.394534 398.40918,402.916016 C398.682619,402.740233 398.975584,402.569337 399.288086,402.40332 C399.600588,402.237304 399.92285,402.090821 400.254883,401.963867 C400.586916,401.836913 400.916502,401.734375 401.243652,401.65625 C401.570802,401.578125 401.885741,401.539062 402.188477,401.539062 C402.403321,401.539062 402.61328,401.5708 402.818359,401.634277 C403.023439,401.697754 403.22119,401.77832 403.411621,401.875977 C403.602052,401.973633 403.782714,402.081054 403.953613,402.198242 C404.124513,402.31543 404.288085,402.422851 404.444336,402.520508 C404.668946,402.305663 404.90576,402.120118 405.154785,401.963867 C405.40381,401.807616 405.655272,401.666016 405.90918,401.539062 L406.246094,402.051758 Z" id="Default-Pricing" transform="translate(323.248047, 407.779297) rotate(-270.000000) translate(-323.248047, -407.779297) "></path>
        </g>
    </g>
</svg>