<?xml version="1.0" encoding="UTF-8"?>
<svg width="7px" height="7px" viewBox="0 0 7 7" version="1.1" xmlns="http://www.w3.org/2000/svg" xmlns:xlink="http://www.w3.org/1999/xlink">
    <!-- Generator: Sketch 46.2 (44496) - http://www.bohemiancoding.com/sketch -->
    <title>Page 1</title>
    <desc>Created with Sketch.</desc>
    <defs></defs>
    <g id="Website" stroke="none" stroke-width="1" fill="none" fill-rule="evenodd">
        <g id="Profile-profile-edit" transform="translate(-347.000000, -1135.000000)" fill="#FFFFFF">
            <g id="Group-6" transform="translate(155.500000, 1045.500000)">
                <path d="M192.192724,95.797645 C192.325801,95.9307212 192.49717,95.99764 192.66854,95.99764 C192.83991,95.99764 193.01128,95.9311 193.144356,95.797645 L195.000038,93.9419632 L196.85572,95.797645 C196.988796,95.9307212 197.160166,95.99764 197.331536,95.99764 C197.502906,95.99764 197.674275,95.9311 197.807352,95.797645 C198.064216,95.5407806 198.064216,95.1125463 197.807352,94.8556819 L195.941963,93 L197.807352,91.1346115 C198.064216,90.877747 198.064216,90.4495128 197.807352,90.1926483 C197.550487,89.9357839 197.122253,89.9357839 196.865389,90.1926483 L195,92.0580368 L193.144318,90.202355 C192.887454,89.9454905 192.459219,89.9454905 192.202355,90.202355 C191.945491,90.4592194 191.945491,90.8874537 192.202355,91.1443181 L194.058037,93 L192.192648,94.8653885 C191.935784,95.122253 191.935784,95.5408282 192.192648,95.7976926 L192.192724,95.797645 Z" id="Page-1"></path>
            </g>
        </g>
    </g>
</svg>