<?xml version="1.0" encoding="UTF-8"?>
<svg width="50px" height="51px" viewBox="0 0 50 51" version="1.1" xmlns="http://www.w3.org/2000/svg" xmlns:xlink="http://www.w3.org/1999/xlink">
    <!-- Generator: Sketch 46.2 (44496) - http://www.bohemiancoding.com/sketch -->
    <title>Group 14</title>
    <desc>Created with Sketch.</desc>
    <defs></defs>
    <g id="Website" stroke="none" stroke-width="1" fill="none" fill-rule="evenodd">
        <g id="Profile-account-verification" transform="translate(-988.000000, -415.000000)">
            <g id="Group-14" transform="translate(988.000000, 415.000000)">
                <circle id="Oval-8-Copy-2" fill="#55ACEE" cx="25" cy="25.5" r="25"></circle>
                <g id="twitter" transform="translate(12.500000, 15.500000)" fill-rule="nonzero" fill="#FFFFFF">
                    <path d="M25,2.40508065 C24.0801603,2.81301437 23.0916456,3.08871941 22.0541168,3.2127181 C23.1131351,2.57791067 23.9263506,1.57275321 24.30932,0.375105161 C23.3183364,0.962818682 22.2206372,1.38968141 21.0523428,1.61975566 C20.1166831,0.622919639 18.7836973,0 17.3085153,0 C14.4758403,0 12.1793043,2.29644464 12.1793043,5.12893668 C12.1793043,5.53092651 12.2247521,5.92240023 12.312173,6.29777973 C8.04939829,6.08389114 4.27009035,4.04193643 1.7403709,0.938860234 C1.29887706,1.69638611 1.0459417,2.57745346 1.0459417,3.51741103 C1.0459417,5.29682871 1.95151615,6.86674714 3.32775522,7.78649548 C2.48692345,7.75988515 1.69611178,7.52917078 1.00451735,7.14501262 C1.00415158,7.16641062 1.00415158,7.18790007 1.00415158,7.20948096 C1.00415158,9.69457549 2.7721387,11.7676214 5.11851201,12.2387432 C4.68808296,12.355975 4.23497567,12.4186145 3.76714584,12.4186145 C3.43666557,12.4186145 3.11532975,12.3865174 2.80222393,12.3266213 C3.45486302,14.3643696 5.34904349,15.8472329 7.59345623,15.8886572 C5.83808845,17.2642562 3.62650426,18.0842387 1.22352683,18.0842387 C0.809557774,18.0842387 0.401258275,18.0600059 0,18.0126376 C2.26983431,19.4678847 4.96589122,20.3169465 7.86239438,20.3169465 C17.296536,20.3169465 22.4554665,12.5014631 22.4554665,5.72369143 C22.4554665,5.50129852 22.4505285,5.28009437 22.4406525,5.06017045 C23.4427009,4.33702769 24.3123377,3.4336479 25,2.40508065" id="Shape"></path>
                </g>
            </g>
        </g>
    </g>
</svg>