<?xml version="1.0" encoding="UTF-8"?>
<svg width="14px" height="12px" viewBox="0 0 14 12" version="1.1" xmlns="http://www.w3.org/2000/svg" xmlns:xlink="http://www.w3.org/1999/xlink">
    <!-- Generator: Sketch 46 (44423) - http://www.bohemiancoding.com/sketch -->
    <title>Shape</title>
    <desc>Created with Sketch.</desc>
    <defs></defs>
    <g id="Website" stroke="none" stroke-width="1" fill="none" fill-rule="evenodd">
        <g id="Class-detail" transform="translate(-1351.000000, -956.000000)" fill-rule="nonzero" fill="#454545">
            <g id="Share-social" transform="translate(1095.000000, 905.500000)">
                <g id="Group-12" transform="translate(256.000000, 14.000000)">
                    <path d="M14,38.3467162 C13.4848897,38.5751372 12.9313215,38.7295172 12.3503054,38.7989498 C12.9433556,38.4434917 13.3987563,37.8806574 13.6132192,37.2100388 C13.0582684,37.5391268 12.4435568,37.778147 11.789312,37.9069763 C11.2653425,37.3488016 10.5188705,37 9.69276859,37 C8.10647059,37 6.82041041,38.2858858 6.82041041,39.8719294 C6.82041041,40.0970222 6.8458612,40.3162265 6.89481691,40.5264189 C4.50766304,40.4066527 2.3912506,39.2632676 0.974607703,37.5257114 C0.727371154,37.9498852 0.585727352,38.4432357 0.585727352,38.9695615 C0.585727352,39.96594 1.09284905,40.8450101 1.86354293,41.3600198 C1.39267713,41.3451195 0.949822595,41.2159318 0.562529718,41.0008238 C0.562324886,41.0128056 0.562324886,41.0248385 0.562324886,41.0369226 C0.562324886,42.4284423 1.55239767,43.5892368 2.86636673,43.8530397 C2.62532646,43.9186833 2.37158638,43.953758 2.10960167,43.953758 C1.92453272,43.953758 1.74458466,43.9357854 1.5692454,43.9022468 C1.93472329,45.0432765 2.99546435,45.8736004 4.25233549,45.8967958 C3.26932953,46.6670574 2.03084238,47.1262037 0.685175023,47.1262037 C0.453352354,47.1262037 0.224704634,47.1126346 0,47.0861109 C1.27110721,47.9009712 2.78089908,48.3764003 4.40294086,48.3764003 C9.68606018,48.3764003 12.5750612,44.0001488 12.5750612,40.2049602 C12.5750612,40.0804321 12.572296,39.9565696 12.5667654,39.833424 C13.1279125,39.4285029 13.6149091,38.9226587 14,38.3467162" id="Shape"></path>
                </g>
            </g>
        </g>
    </g>
</svg>