<?xml version="1.0" encoding="UTF-8"?>
<svg width="35px" height="37px" viewBox="0 0 35 37" version="1.1" xmlns="http://www.w3.org/2000/svg" xmlns:xlink="http://www.w3.org/1999/xlink">
    <!-- Generator: Sketch 43.2 (39069) - http://www.bohemiancoding.com/sketch -->
    <title>Group 2 Copy 15</title>
    <desc>Created with Sketch.</desc>
    <defs>
        <filter x="-11.7%" y="-7.7%" width="123.3%" height="123.1%" filterUnits="objectBoundingBox" id="filter-1">
            <feOffset dx="0" dy="1" in="SourceAlpha" result="shadowOffsetOuter1"></feOffset>
            <feGaussianBlur stdDeviation="1" in="shadowOffsetOuter1" result="shadowBlurOuter1"></feGaussianBlur>
            <feColorMatrix values="0 0 0 0 0.550010629   0 0 0 0 0.550010629   0 0 0 0 0.550010629  0 0 0 0.5 0" type="matrix" in="shadowBlurOuter1" result="shadowMatrixOuter1"></feColorMatrix>
            <feMerge>
                <feMergeNode in="shadowMatrixOuter1"></feMergeNode>
                <feMergeNode in="SourceGraphic"></feMergeNode>
            </feMerge>
        </filter>
    </defs>
    <g id="Website" stroke="none" stroke-width="1" fill="none" fill-rule="evenodd">
        <g id="Search-a-class" transform="translate(-769.000000, -604.000000)">
            <g id="Group-2-Copy-15" transform="translate(771.500000, 605.000000)">
                <g id="Group" filter="url(#filter-1)">
                    <rect id="Rectangle-4" fill="#28A8E0" x="0" y="0" width="30" height="30" rx="2.5"></rect>
                    <g id="packman" transform="translate(8.000000, 7.500000)" fill-rule="nonzero" fill="#FFFFFF">
                        <g id="Layer_1">
                            <path d="M13.55,12 L8.05,7.35 L13.15,2.6 C13.2,2.55 13.25,2.5 13.25,2.4 C13.25,2.3 13.2,2.25 13.2,2.2 C11.75,0.8 9.85,0 7.85,0 C5.85,0 3.95,0.8 2.55,2.2 C1.15,3.6 0.35,5.5 0.35,7.5 C0.35,9.5 1.15,11.4 2.55,12.8 C3.95,14.2 5.85,15 7.85,15 C9.85,15 11.75,14.2 13.15,12.8 C13.3,12.65 13.45,12.5 13.55,12.35 C13.6,12.3 13.6,12.25 13.6,12.15 C13.6,12.05 13.6,12.05 13.55,12 Z M7.35,3 C7.35,2.45 7.8,2 8.35,2 C8.9,2 9.35,2.45 9.35,3 C9.35,3.55 8.9,4 8.35,4 C7.8,4 7.35,3.55 7.35,3 Z" id="Shape"></path>
                        </g>
                    </g>
                    <path d="M13.7727379,33.6025792 L13.7727379,27.8902839 C13.7727379,27.7503966 13.8154742,27.6225685 13.8860479,27.5553813 C13.9587781,27.4757902 14.0507199,27.4826812 14.1195293,27.5715751 L16.6237203,30.4192813 C16.6909614,30.4854349 16.7307571,30.6132629 16.7270324,30.7490157 C16.7286007,30.8851129 16.689393,31.012941 16.6237203,31.0842629 L14.1195293,33.9226661 C14.0836543,33.9657349 14.0422903,33.9915762 13.9985738,33.9995008 C13.9579939,34.0036354 13.9181982,33.9819288 13.8852638,33.9402382 C13.81469,33.8730509 13.7719537,33.7424665 13.7727379,33.6025792 Z" id="Page-1" fill="#28A8E0" transform="translate(15.250000, 30.750000) rotate(-270.000000) translate(-15.250000, -30.750000) "></path>
                </g>
            </g>
        </g>
    </g>
</svg>