<?xml version="1.0" encoding="UTF-8"?>
<svg width="20px" height="5px" viewBox="0 0 20 5" version="1.1" xmlns="http://www.w3.org/2000/svg" xmlns:xlink="http://www.w3.org/1999/xlink">
    <!-- Generator: Sketch 45.2 (43514) - http://www.bohemiancoding.com/sketch -->
    <title>Page 1</title>
    <desc>Created with Sketch.</desc>
    <defs></defs>
    <g id="Website" stroke="none" stroke-width="1" fill="none" fill-rule="evenodd">
        <g id="Class-detail" transform="translate(-1420.000000, -6262.000000)" fill="#C7C7C7">
            <path d="M1437.5,6262 C1438.88,6262 1440,6263.12 1440,6264.5 C1440,6265.88 1438.88,6267 1437.5,6267 C1436.12,6267 1435,6265.88 1435,6264.5 C1435,6263.12 1436.12,6262 1437.5,6262 Z M1430,6262 C1431.38,6262 1432.5,6263.12 1432.5,6264.5 C1432.5,6265.88 1431.38,6267 1430,6267 C1428.62,6267 1427.5,6265.88 1427.5,6264.5 C1427.5,6263.12 1428.62,6262 1430,6262 Z M1422.5,6262 C1423.88,6262 1425,6263.12 1425,6264.5 C1425,6265.88 1423.88,6267 1422.5,6267 C1421.12,6267 1420,6265.88 1420,6264.5 C1420,6263.12 1421.12,6262 1422.5,6262 Z" id="Page-1" transform="translate(1430.000000, 6264.500000) rotate(-360.000000) translate(-1430.000000, -6264.500000) "></path>
        </g>
    </g>
</svg>