<?xml version="1.0" encoding="UTF-8"?>
<svg width="31px" height="35px" viewBox="0 0 31 35" version="1.1" xmlns="http://www.w3.org/2000/svg" xmlns:xlink="http://www.w3.org/1999/xlink">
    <!-- Generator: Sketch 43.2 (39069) - http://www.bohemiancoding.com/sketch -->
    <title>notification</title>
    <desc>Created with Sketch.</desc>
    <defs></defs>
    <g id="Website" stroke="none" stroke-width="1" fill="none" fill-rule="evenodd">
        <g id="Landing" transform="translate(-187.000000, -2875.000000)" fill-rule="nonzero" fill="#454545">
            <g id="Group-16" transform="translate(155.000000, 2838.500000)">
                <g id="Group-34" transform="translate(0.000000, 6.000000)">
                    <g id="notification" transform="translate(32.500000, 30.500000)">
                        <path d="M29.7662826,26.7225 L28.2827391,25.239413 C27.7118619,24.6685467 27.3911942,23.8942477 27.3913043,23.086913 L27.3913043,12.173913 C27.3913043,5.45044652 21.9408578,-1.43846288e-15 15.2173913,-1.77635684e-15 C8.49392478,-2.1142508e-15 3.04347826,5.45044652 3.04347826,12.173913 L3.04347826,23.086913 C3.04366913,23.8942786 2.72305442,24.6686367 2.15219565,25.2395652 L0.6685,26.7226522 C0.240509775,27.1506745 4.85633654e-05,27.7311642 0,28.3364565 L0,30.4347826 L9.3456087,30.4347826 C10.0286324,33.1202594 12.4464916,35.0001394 15.2174674,35.0001394 C17.9884432,35.0001394 20.4063024,33.1202594 21.0893261,30.4347826 L30.4347826,30.4347826 L30.4347826,28.3364565 C30.4347744,27.7311115 30.1943101,27.1505597 29.7662826,26.7225 L29.7662826,26.7225 Z M15.2173913,33.4782609 C13.2892172,33.4720236 11.5735033,32.253347 10.9326304,30.4347826 L19.502,30.4347826 C18.8611839,32.2533232 17.1455241,33.4720047 15.2173913,33.4782609 L15.2173913,33.4782609 Z M28.9130435,28.9130435 L1.52173913,28.9130435 L1.52173913,28.3364565 C1.52134501,28.134591 1.60160285,27.9409313 1.74467391,27.7985217 L3.22821739,26.3154348 C4.08707605,25.4609423 4.56849529,24.2984348 4.56521739,23.086913 L4.56521739,12.173913 C4.56521748,6.2908799 9.33435816,1.52173929 15.2173913,1.52173929 C21.1004244,1.52173929 25.8695651,6.2908799 25.8695652,12.173913 L25.8695652,23.086913 C25.8663276,24.2984568 26.3478029,25.4609674 27.2067174,26.3154348 L28.6902609,27.7985217 C28.8332761,27.9409564 28.9134779,28.134613 28.9130435,28.3364565 L28.9130435,28.9130435 Z" id="Shape"></path>
                    </g>
                </g>
            </g>
        </g>
    </g>
</svg>