<?xml version="1.0" encoding="UTF-8"?>
<svg width="34px" height="37px" viewBox="0 0 34 37" version="1.1" xmlns="http://www.w3.org/2000/svg" xmlns:xlink="http://www.w3.org/1999/xlink">
    <!-- Generator: Sketch 48.2 (47327) - http://www.bohemiancoding.com/sketch -->
    <title>Group 4</title>
    <desc>Created with Sketch.</desc>
    <defs>
        <filter x="-11.7%" y="-7.7%" width="123.3%" height="123.1%" filterUnits="objectBoundingBox" id="filter-1">
            <feOffset dx="0" dy="1" in="SourceAlpha" result="shadowOffsetOuter1"></feOffset>
            <feGaussianBlur stdDeviation="1" in="shadowOffsetOuter1" result="shadowBlurOuter1"></feGaussianBlur>
            <feColorMatrix values="0 0 0 0 0.550010629   0 0 0 0 0.550010629   0 0 0 0 0.550010629  0 0 0 0.5 0" type="matrix" in="shadowBlurOuter1" result="shadowMatrixOuter1"></feColorMatrix>
            <feMerge>
                <feMergeNode in="shadowMatrixOuter1"></feMergeNode>
                <feMergeNode in="SourceGraphic"></feMergeNode>
            </feMerge>
        </filter>
    </defs>
    <g id="Search-a-class" stroke="none" stroke-width="1" fill="none" fill-rule="evenodd" transform="translate(-1318.000000, -598.000000)">
        <g id="Group-15" transform="translate(615.000000, 156.000000)">
            <g id="Group-4" transform="translate(705.000000, 443.000000)">
                <g id="Group-2-Copy-13" fill="#9B9B9B">
                    <g id="Group" filter="url(#filter-1)">
                        <rect id="Rectangle-4" x="0" y="0" width="30" height="30" rx="2.5"></rect>
                        <path d="M13.7727379,33.6025792 L13.7727379,27.8902839 C13.7727379,27.7503966 13.8154742,27.6225685 13.8860479,27.5553813 C13.9587781,27.4757902 14.0507199,27.4826812 14.1195293,27.5715751 L16.6237203,30.4192813 C16.6909614,30.4854349 16.7307571,30.6132629 16.7270324,30.7490157 C16.7286007,30.8851129 16.689393,31.012941 16.6237203,31.0842629 L14.1195293,33.9226661 C14.0836543,33.9657349 14.0422903,33.9915762 13.9985738,33.9995008 C13.9579939,34.0036354 13.9181982,33.9819288 13.8852638,33.9402382 C13.81469,33.8730509 13.7719537,33.7424665 13.7727379,33.6025792 Z" id="Page-1" transform="translate(15.250000, 30.750000) rotate(-270.000000) translate(-15.250000, -30.750000) "></path>
                    </g>
                </g>
                <g id="Page-1" transform="translate(6.500000, 6.500000)" fill="#FFFFFF">
                    <path d="M5.60723333,6.55246667 C3.42346667,7.16053333 1.25416667,7.49583333 0,7.2807 C0,7.2807 3.85816667,17.8672667 9.24116667,16.2367333 C11.1526333,15.6578333 12.0467667,13.9034 12.4096,11.8836667 C12.0458333,11.9793333 11.6603667,12.033 11.2501667,12.033 C8.26793333,12.033 6.57066667,9.3597 5.60723333,6.55246667 Z M4.65476667,10.9585 C4.17993333,10.4561333 4.20186667,9.66606667 4.70306667,9.19123333 C5.20356667,8.71616667 5.9955,8.7381 6.47033333,9.23953333 L4.65476667,10.9585 Z M6.5415,13.7895333 C6.5415,13.7895333 6.77763333,12.4121667 7.97346667,12.0505 C9.1693,11.6886 10.1299333,12.7029 10.1299333,12.7029 L6.5415,13.7895333 Z" id="Fill-1"></path>
                    <path d="M5.00033333,0.158666667 C5.00033333,0.158666667 5.62543333,11.4088333 11.2501667,11.4088333 C16.8756,11.4088333 17.5,0.158666667 17.5,0.158666667 C14.9998333,1.40816667 7.5005,1.40816667 5.00033333,0.158666667 Z M9.37533333,3.283 C10.0653,3.283 10.6248333,3.84276667 10.6248333,4.53273333 L8.12466667,4.53273333 C8.12466667,3.8437 8.68443333,3.283 9.37533333,3.283 Z M11.2501667,8.90866667 C10.0004333,8.90866667 9.37533333,7.65893333 9.37533333,7.65893333 L13.125,7.65893333 C13.125,7.658 12.4996667,8.90866667 11.2501667,8.90866667 Z M13.125,3.283 C13.8149667,3.283 14.3745,3.84276667 14.3745,4.53273333 L11.8745667,4.53273333 C11.8755,3.8437 12.4341,3.283 13.125,3.283 Z" id="Fill-2"></path>
                </g>
            </g>
        </g>
    </g>
</svg>