<?xml version="1.0" encoding="UTF-8"?>
<svg width="8px" height="6px" viewBox="0 0 8 6" version="1.1" xmlns="http://www.w3.org/2000/svg" xmlns:xlink="http://www.w3.org/1999/xlink">
    <!-- Generator: Sketch 43.2 (39069) - http://www.bohemiancoding.com/sketch -->
    <title>Page 1 Copy 11</title>
    <desc>Created with Sketch.</desc>
    <defs></defs>
    <g id="Website" stroke="none" stroke-width="1" fill="none" fill-rule="evenodd">
        <g id="Landing" transform="translate(-199.000000, -2132.000000)" fill="#28A8E0">
            <g id="Group-37" transform="translate(-9.500000, 1665.000000)">
                <g id="Group-24" transform="translate(212.500000, 441.500000) scale(1, -1) translate(-212.500000, -441.500000) translate(192.500000, 393.000000)">
                    <path d="M17.500018,22.8678646 L17.500018,17.375273 C17.500018,17.240766 17.5723409,17.1178544 17.6917734,17.0532512 C17.8148552,16.9767214 17.9704491,16.9833473 18.0868958,17.0688222 L22.3247574,19.8070012 C22.43855,19.8706105 22.5058966,19.9935221 22.4995932,20.1240535 C22.5022473,20.2549163 22.4358959,20.3778279 22.3247574,20.4464066 L18.0868958,23.1756405 C18.0261843,23.2170528 17.9561836,23.2419002 17.8822018,23.24952 C17.8135281,23.2534956 17.7461815,23.2326238 17.6904464,23.1925367 C17.5710139,23.1279336 17.4986909,23.0023716 17.500018,22.8678646 Z" id="Page-1-Copy-11" transform="translate(20.000000, 20.125000) rotate(-90.000000) translate(-20.000000, -20.125000) "></path>
                </g>
            </g>
        </g>
    </g>
</svg>