<?xml version="1.0" encoding="UTF-8"?>
<svg width="16px" height="15px" viewBox="0 0 16 15" version="1.1" xmlns="http://www.w3.org/2000/svg" xmlns:xlink="http://www.w3.org/1999/xlink">
    <!-- Generator: Sketch 46.2 (44496) - http://www.bohemiancoding.com/sketch -->
    <title>Group</title>
    <desc>Created with Sketch.</desc>
    <defs></defs>
    <g id="Website" stroke="none" stroke-width="1" fill="none" fill-rule="evenodd">
        <g id="Profile-profile-edit" transform="translate(-885.000000, -970.000000)" stroke="#FFFFFF" stroke-width="0.2" fill="#28A8E0">
            <g id="Group-5" transform="translate(155.500000, 777.500000)">
                <g id="Group" transform="translate(730.000000, 193.500000)">
                    <path d="M5.14274554,3.81360709 L6.67756696,2.27878566 L6.67756696,10.0372678 C6.67756696,10.4069107 6.97756696,10.7069107 7.34720982,10.7069107 C7.71685268,10.7069107 8.01685268,10.4069107 8.01685268,10.0372678 L8.01685268,2.27878566 L9.55167411,3.81360709 C9.68426339,3.94485709 9.85435268,4.0091428 10.0257812,4.0091428 C10.1972098,4.0091428 10.3686384,3.9435178 10.4998884,3.81360709 C10.7610491,3.55244637 10.7610491,3.1278928 10.4998884,2.86673209 L7.82131696,0.188160658 C7.75837054,0.12521423 7.68604911,0.0810178011 7.61104911,0.0475356582 C7.60837054,0.0461963725 7.60703125,0.0435178011 7.60435268,0.0421785154 L7.60301339,0.0421785154 C7.49453125,-0.0020179132 7.37801339,-0.00737505606 7.26283482,0.0073570868 C7.23337054,0.0113749439 7.20926339,0.0153928011 7.17979911,0.0234285154 C7.06863839,0.0528928011 6.96149554,0.0997678011 6.87444196,0.186821373 L4.19587054,2.8653928 C3.93470982,3.12655352 3.93470982,3.55110709 4.19587054,3.8122678 C4.45837054,4.07342852 4.88158482,4.0747678 5.14274554,3.81360709 Z" id="Path"></path>
                    <path d="M14.0625,9.5 C13.6928571,9.5 13.3928571,9.8 13.3928571,10.1696429 L13.3928571,12.1785714 L1.33928571,12.1785714 L1.33928571,10.1696429 C1.33928571,9.8 1.03928571,9.5 0.669642857,9.5 C0.3,9.5 0,9.8 0,10.1696429 L0,12.8482143 C0,13.2178571 0.3,13.5178571 0.669642857,13.5178571 L14.0625,13.5178571 C14.4321429,13.5178571 14.7321429,13.2178571 14.7321429,12.8482143 L14.7321429,10.1696429 C14.7321429,9.8 14.4321429,9.5 14.0625,9.5 Z" id="Path"></path>
                </g>
            </g>
        </g>
    </g>
</svg>