<?xml version="1.0" encoding="UTF-8"?>
<svg width="41px" height="31px" viewBox="0 0 41 31" version="1.1" xmlns="http://www.w3.org/2000/svg" xmlns:xlink="http://www.w3.org/1999/xlink">
    <!-- Generator: Sketch 43.2 (39069) - http://www.bohemiancoding.com/sketch -->
    <title>Group 56</title>
    <desc>Created with Sketch.</desc>
    <defs></defs>
    <g id="Website" stroke="none" stroke-width="1" fill="none" fill-rule="evenodd">
        <g id="Landing" transform="translate(-872.000000, -2166.000000)" fill-rule="nonzero" fill="#454545">
            <g id="Group-18" transform="translate(845.000000, 1977.500000)">
                <g id="Group-56" transform="translate(27.000000, 189.000000)">
                    <path d="M34.1,0 C33.6581722,0 33.3,0.3581722 33.3,0.8 C33.3,1.2418278 33.6581722,1.6 34.1,1.6 C36.7509668,1.6 38.9,3.7490332 38.9,6.4 C38.9,9.0509668 36.7509668,11.2 34.1,11.2 L10.9,11.2 C10.4581722,11.2 10.1,11.5581722 10.1,12 C10.1,12.4418278 10.4581722,12.8 10.9,12.8 L34.1,12.8 C37.6346224,12.8 40.5,9.9346224 40.5,6.4 C40.5,2.8653776 37.6346224,0 34.1,0 Z" id="Shape"></path>
                    <path d="M27.7,16 L1.3,16 C0.8581722,16 0.5,16.3581722 0.5,16.8 C0.5,17.2418278 0.8581722,17.6 1.3,17.6 L27.7,17.6 C30.3509668,17.6 32.5,19.7490332 32.5,22.4 C32.5,25.0509668 30.3509668,27.2 27.7,27.2 C27.2581722,27.2 26.9,27.5581722 26.9,28 C26.9,28.4418278 27.2581722,28.8 27.7,28.8 C31.2346224,28.8 34.1,25.9346224 34.1,22.4 C34.1,18.8653776 31.2346224,16 27.7,16 Z" id="Shape"></path>
                    <path d="M6.1,8 L30.1,8 C30.5418278,8 30.9,7.6418278 30.9,7.2 C30.9,6.7581722 30.5418278,6.4 30.1,6.4 L6.1,6.4 C5.6581722,6.4 5.3,6.7581722 5.3,7.2 C5.3,7.6418278 5.6581722,8 6.1,8 Z" id="Shape"></path>
                    <path d="M19.7,20.8 L6.1,20.8 C5.6581722,20.8 5.3,21.1581722 5.3,21.6 C5.3,22.0418278 5.6581722,22.4 6.1,22.4 L19.7,22.4 C21.4673112,22.4 22.9,23.8326888 22.9,25.6 C22.9,27.3673112 21.4673112,28.8 19.7,28.8 C19.2581722,28.8 18.9,29.1581722 18.9,29.6 C18.9,30.0418278 19.2581722,30.4 19.7,30.4 C22.3509668,30.4 24.5,28.2509668 24.5,25.6 C24.5,22.9490332 22.3509668,20.8 19.7,20.8 Z" id="Shape"></path>
                </g>
            </g>
        </g>
    </g>
</svg>