<?xml version="1.0" encoding="UTF-8"?>
<svg width="12px" height="12px" viewBox="0 0 12 12" version="1.1" xmlns="http://www.w3.org/2000/svg" xmlns:xlink="http://www.w3.org/1999/xlink">
    <!-- Generator: Sketch 43.2 (39069) - http://www.bohemiancoding.com/sketch -->
    <title>calendar.1</title>
    <desc>Created with Sketch.</desc>
    <defs></defs>
    <g id="Website" stroke="none" stroke-width="1" fill="none" fill-rule="evenodd">
        <g id="Search-a-class" transform="translate(-1242.000000, -26.000000)">
            <g id="header" transform="translate(0.000000, -1.000000)">
                <g id="calendar.1" transform="translate(1242.000000, 27.000000)">
                    <g id="Layer_1">
                        <g id="Group">
                            <g>
                                <path d="M12,3.52269511 L12,1.75 C12,0.785 11.215,0 10.25,0 L10,0 L10,1.25 C10,1.6635 9.6635,2 9.25,2 C8.8365,2 8.5,1.6635 8.5,1.25 L8.5,0 L3.5,0 L3.5,1.25 C3.5,1.6635 3.1635,2 2.75,2 C2.3365,2 2,1.6635 2,1.25 L2,0 L1.75,0 C0.785,0 0,0.785 0,1.75 L0,3.52269511 L12,3.52269511 Z" id="Shape" fill="#454545" fill-rule="nonzero"></path>
                                <rect id="Rectangle-8" fill="#454545" x="1.5" y="0" width="9" height="2.5"></rect>
                                <circle id="Oval-4" fill="#FFFFFF" cx="2.75" cy="1.75" r="1"></circle>
                                <circle id="Oval-4-Copy" fill="#FFFFFF" cx="9.25" cy="1.75" r="1"></circle>
                                <path d="M0,4 L0,9.75 C0,10.715 0.785,11.5 1.75,11.5 L10.25,11.5 C11.215,11.5 12,10.715 12,9.75 L12,4 L0,4 Z" id="Shape" fill="#454545" fill-rule="nonzero"></path>
                            </g>
                        </g>
                    </g>
                </g>
            </g>
        </g>
    </g>
</svg>