<?xml version="1.0" encoding="UTF-8"?>
<svg width="148px" height="92px" viewBox="0 0 148 92" version="1.1" xmlns="http://www.w3.org/2000/svg" xmlns:xlink="http://www.w3.org/1999/xlink">
    <!-- Generator: Sketch 46.1 (44463) - http://www.bohemiancoding.com/sketch -->
    <title>8%</title>
    <desc>Created with Sketch.</desc>
    <defs></defs>
    <g id="Website" stroke="none" stroke-width="1" fill="none" fill-rule="evenodd">
        <g id="Onboarding-emaillogin-before-create-class" transform="translate(-649.000000, -1435.000000)" fill="#454545">
            <g id="Group-6" transform="translate(649.000000, 1435.000000)">
                <path d="M29.8125,91.625 C12.0625,91.625 0.1875,81 0.1875,64.875 C0.1875,52.875 8.0625,46 13.5625,43.375 C9.1875,40.875 2.8125,34.5 2.8125,25 C2.8125,10.75 13.8125,0.875 29.8125,0.875 C45.8125,0.875 56.9375,10.75 56.9375,25 C56.9375,34.5 50.5625,40.875 46.0625,43.375 C51.6875,46 59.5625,52.875 59.5625,64.875 C59.5625,81 47.4375,91.625 29.8125,91.625 Z M29.8125,50.25 C20.8125,50.25 14.3125,55.875 14.3125,64.75 C14.3125,72.375 19.8125,79 29.8125,79 C39.9375,79 45.3125,72.375 45.3125,64.75 C45.3125,55.875 38.9375,50.25 29.8125,50.25 Z M29.8125,38 C37.5625,38 43.0625,32.625 43.0625,25.625 C43.0625,19 38.4375,13.5 29.8125,13.5 C21.1875,13.5 16.6875,19 16.6875,25.625 C16.6875,32.625 22.0625,38 29.8125,38 Z M73.6875,90 L140.8125,2.5 L144.9375,2.5 L77.8125,90 L73.6875,90 Z M74.6875,18.625 C74.6875,26.75 80.4375,33.25 88.6875,33.25 C96.9375,33.25 102.6875,26.75 102.6875,18.625 C102.6875,10.5 96.9375,4 88.6875,4 C80.4375,4 74.6875,10.5 74.6875,18.625 Z M71.4375,18.625 C71.4375,8.875 78.5625,0.875 88.6875,0.875 C98.8125,0.875 105.9375,8.875 105.9375,18.625 C105.9375,28.375 98.8125,36.375 88.6875,36.375 C78.5625,36.375 71.4375,28.375 71.4375,18.625 Z M115.9375,73.875 C115.9375,82 121.6875,88.5 129.9375,88.5 C138.1875,88.5 143.9375,82 143.9375,73.875 C143.9375,65.75 138.1875,59.25 129.9375,59.25 C121.6875,59.25 115.9375,65.75 115.9375,73.875 Z M112.6875,73.875 C112.6875,64.125 119.8125,56.125 129.9375,56.125 C140.0625,56.125 147.1875,64.125 147.1875,73.875 C147.1875,83.625 140.0625,91.625 129.9375,91.625 C119.8125,91.625 112.6875,83.625 112.6875,73.875 Z" id="8%"></path>
            </g>
        </g>
    </g>
</svg>