<?xml version="1.0" encoding="UTF-8"?>
<svg width="53px" height="29px" viewBox="0 0 53 29" version="1.1" xmlns="http://www.w3.org/2000/svg" xmlns:xlink="http://www.w3.org/1999/xlink">
    <!-- Generator: Sketch 46.2 (44496) - http://www.bohemiancoding.com/sketch -->
    <title>visa</title>
    <desc>Created with Sketch.</desc>
    <defs></defs>
    <g id="Website" stroke="none" stroke-width="1" fill="none" fill-rule="evenodd">
        <g id="Profile-account-payment" transform="translate(-722.000000, -279.000000)" fill-rule="nonzero">
            <g id="Group-6-Copy" transform="translate(702.000000, 205.000000)">
                <g id="visa" transform="translate(20.500000, 74.500000)">
                    <path d="M4,28.5 C14.6298997,23.9563533 29.5407931,19.8354401 49.2926162,23.9593094 L49.5,18.9604112 C28.663856,16.6900659 13.7085232,23.3119063 4,27.9944934 L4,28.4881753 L4,28.4881753 L4,28.5 Z" id="Shape" fill="#E7A83A"></path>
                    <polygon id="Shape" fill="#1D5B99" points="15 15 19.492692 0 23.5 0 19.007308 15"></polygon>
                    <path d="M13.1773504,0 L9.44401709,6.35875927 C8.49273504,8.02380023 7.9482906,8.86656262 7.67008547,9.91708935 L7.62820513,9.91708935 C7.69401709,8.58271557 7.5025641,6.94401092 7.48760684,6.0193133 L7.05982906,0 L0.0717948718,0 L0,0.403823644 C1.79487179,0.403823644 2.85982906,1.28170113 3.15299145,3.09012876 L4.51410256,15 L8.82478632,15 L17.5,0 L13.1773504,0 Z" id="Shape" fill="#1D5B99"></path>
                    <path d="M44.800119,14.9970686 L44.687091,12.7604065 L39.5324212,12.7604065 L38.4794765,15 L34,15 L42.123141,0 L47.6228435,0 L49,15 L44.800119,15 L44.800119,14.9970686 Z M44.3271862,6.13249951 C44.2664597,4.96070114 44.2664597,3.78661174 44.3271862,2.61481337 L44.2647234,2.61481337 C44.0148721,3.35939027 42.9351576,5.60191518 42.4592504,6.70412351 L40.9185009,9.98143443 L44.5353956,9.98143443 L44.3242118,6.12956811 L44.3242118,6.12956811 L44.3271862,6.13249951 Z" id="Shape" fill="#1D5B99"></path>
                    <path d="M27.7283077,15.9993844 C25.5279246,16.0220898 23.3669052,15.4162726 21.5,14.2533491 L23.4660513,11.2571764 C24.706359,11.9490577 25.6789744,12.7419002 27.9275897,12.7419002 C28.6473846,12.7419002 29.3404103,12.554825 29.736,11.8748215 C30.3100513,10.8859954 29.6051282,10.3514948 27.9930256,9.43987435 L27.1958974,8.92319045 C24.8164103,7.29296364 23.7724103,5.74588137 24.8967179,3.04071448 C25.6165128,1.3124959 27.5141538,0 30.6461538,0 C32.5801348,0.039928741 34.4527734,0.68492231 36,1.84402704 L33.754359,4.49871332 C32.6032821,3.56927618 31.6485128,3.09713399 30.5569231,3.09713399 C29.6854359,3.09713399 29.0251282,3.43268158 28.7961026,3.88403764 C28.3677949,4.73329969 28.9358974,5.312342 30.1910769,6.09330676 L31.1369231,6.6871963 C34.0369231,8.51340666 34.7299487,10.4287005 34.0012308,12.2192774 C32.752,15.3015642 30.3011282,15.9904761 27.7550769,15.9904761 L27.7550769,15.9904761 L27.7283077,15.9993844 Z" id="Shape" fill="#1D5B99"></path>
                    <path d="M50.2266534,2.35776575 L49.9537396,2.35776575 L49.9537396,0.689792729 L50.5865398,0.689792729 C50.9884129,0.689792729 51.1863504,0.830790448 51.1863504,1.16978497 C51.1948295,1.28944877 51.1524751,1.4071423 51.0696948,1.49394486 C50.9869146,1.58074742 50.8713823,1.62861225 50.7514877,1.62577759 L51.21934,2.35776575 L50.9194347,2.35776575 L50.4815729,1.6437773 L50.2236544,1.6437773 L50.2236544,2.35776575 L50.2236544,2.35776575 L50.2266534,2.35776575 Z M50.5265587,1.40978108 C50.7334934,1.40978108 50.9134366,1.38878142 50.9134366,1.14878531 C50.9134366,0.908789187 50.7214972,0.923788944 50.5565493,0.923788944 L50.2266534,0.923788944 L50.2266534,1.41278104 L50.5265587,1.41278104 L50.5265587,1.40978108 Z M50.5265587,2.99975537 C49.9177204,3.01071951 49.3627093,2.65229568 49.1220827,2.09275069 C48.8814562,1.5332057 49.003001,0.883661598 49.4296564,0.449055446 C49.8563119,0.0144492931 50.5033468,-0.118908909 51.0670022,0.111587611 C51.6306577,0.34208413 51.9989951,0.890660237 51.9990938,1.49977963 C52.013139,1.89703156 51.8634177,2.28261106 51.5849901,2.56622717 C51.3065625,2.84984328 50.9238813,3.00658759 50.5265587,2.99975537 L50.5265587,2.99975537 L50.5265587,2.99975537 Z M50.5265587,0.248799861 C50.0147789,0.20930344 49.5310452,0.487385773 49.3075053,0.949592984 C49.0839654,1.4118002 49.1662459,1.96379124 49.5148598,2.34066133 C49.8634737,2.71753141 50.4072655,2.84235764 50.8852652,2.65523493 C51.3632649,2.46811222 51.6779081,2.00723416 51.6781951,1.49377973 C51.6987707,1.17380885 51.5871687,0.859411999 51.369473,0.624071457 C51.1517773,0.388730915 50.8470664,0.253071395 50.5265587,0.248799861 L50.5265587,0.248799861 L50.5265587,0.248799861 Z" id="Shape" fill="#1D5B99"></path>
                </g>
            </g>
        </g>
    </g>
</svg>