<?xml version="1.0" encoding="UTF-8"?>
<svg width="9px" height="17px" viewBox="0 0 9 17" version="1.1" xmlns="http://www.w3.org/2000/svg" xmlns:xlink="http://www.w3.org/1999/xlink">
    <!-- Generator: Sketch 46.1 (44463) - http://www.bohemiancoding.com/sketch -->
    <title>Shape</title>
    <desc>Created with Sketch.</desc>
    <defs></defs>
    <g id="Website" stroke="none" stroke-width="1" fill="none" fill-rule="evenodd">
        <g id="Onboarding-login" transform="translate(-549.000000, -206.000000)" fill-rule="nonzero" fill="#FFFFFF">
            <g id="Group-2" transform="translate(498.000000, 85.000000)">
                <g id="Rectangle-2-Copy">
                    <g id="facebook.3" transform="translate(51.000000, 121.500000)">
                        <g id="Layer_1">
                            <path d="M6.33333333,2.66666667 L8.33333333,2.66666667 C8.51733333,2.66666667 8.66666667,2.51733333 8.66666667,2.33333333 L8.66666667,0.333333333 C8.66666667,0.149333333 8.51733333,0 8.33333333,0 L6.33333333,0 C4.312,0 2.66666667,1.64466667 2.66666667,3.66666667 L2.66666667,6 L0.333333333,6 C0.149333333,6 0,6.14933333 0,6.33333333 L0,8.33333333 C0,8.51733333 0.149333333,8.66666667 0.333333333,8.66666667 L2.66666667,8.66666667 L2.66666667,15.6666667 C2.66666667,15.8506667 2.816,16 3,16 L5,16 C5.184,16 5.33333333,15.8506667 5.33333333,15.6666667 L5.33333333,8.66666667 L7.66666667,8.66666667 C7.81,8.66666667 7.93733333,8.57466667 7.98333333,8.43866667 L8.65,6.43866667 C8.684,6.33733333 8.66666667,6.22533333 8.604,6.138 C8.54066667,6.05133333 8.44066667,6 8.33333333,6 L5.33333333,6 L5.33333333,3.66666667 C5.33333333,3.11533333 5.782,2.66666667 6.33333333,2.66666667 Z" id="Shape"></path>
                        </g>
                    </g>
                </g>
            </g>
        </g>
    </g>
</svg>