<?xml version="1.0" encoding="UTF-8"?>
<svg width="17px" height="17px" viewBox="0 0 17 17" version="1.1" xmlns="http://www.w3.org/2000/svg" xmlns:xlink="http://www.w3.org/1999/xlink">
    <!-- Generator: Sketch 46.1 (44463) - http://www.bohemiancoding.com/sketch -->
    <title>google-icon</title>
    <desc>Created with Sketch.</desc>
    <defs></defs>
    <g id="Website" stroke="none" stroke-width="1" fill="none" fill-rule="evenodd">
        <g id="Onboarding-login" transform="translate(-545.000000, -261.000000)" fill-rule="nonzero">
            <g id="Group-2" transform="translate(498.000000, 85.000000)">
                <g id="Rectangle-2-Copy">
                    <g id="google-icon" transform="translate(47.500000, 176.500000)">
                        <g id="Group">
                            <path d="M15.571523,8.14967939 C15.571523,7.49416794 15.5185181,7.01581679 15.4038059,6.51975573 L7.94465461,6.51975573 L7.94465461,9.47841221 L12.3230082,9.47841221 C12.2347681,10.2136794 11.7580888,11.3209771 10.6987813,12.0650382 L10.6839326,12.1640916 L13.0423783,13.9975573 L13.2057747,14.0139237 C14.7064046,12.623145 15.571523,10.576855 15.571523,8.14967939" id="Shape" fill="#4285F4"></path>
                            <path d="M7.94465461,15.9450382 C10.0896809,15.9450382 11.890449,15.2363359 13.2057747,14.0139237 L10.6987813,12.0650382 C10.0279128,12.5345344 9.12749836,12.8622901 7.94465461,12.8622901 C5.84374836,12.8622901 4.06062829,11.4715725 3.42499507,9.54931298 L3.33182566,9.55725191 L0.879480263,11.4618015 L0.847409539,11.5512672 C2.15385033,14.1556031 4.83738487,15.9450382 7.94465461,15.9450382" id="Shape" fill="#34A853"></path>
                            <path d="M3.42499507,9.54931298 C3.25727796,9.05325191 3.16021382,8.52170992 3.16021382,7.97251908 C3.16021382,7.42326718 3.25727796,6.89178626 3.41617105,6.39572519 L3.41172862,6.29007634 L0.928651316,4.3549313 L0.847409539,4.39370992 C0.308962171,5.47444275 0,6.68806107 0,7.97251908 C0,9.2569771 0.308962171,10.4705344 0.847409539,11.5512672 L3.42499507,9.54931298" id="Shape" fill="#FBBC05"></path>
                            <path d="M7.94465461,3.08268702 C9.43646053,3.08268702 10.4427632,3.72934351 11.0165674,4.26974046 L13.2587188,2.07285496 C11.8816859,0.788396947 10.0896809,0 7.94465461,0 C4.83738487,0 2.15385033,1.78937405 0.847409539,4.39370992 L3.41617105,6.39572519 C4.06062829,4.47346565 5.84374836,3.08268702 7.94465461,3.08268702" id="Shape" fill="#EB4335"></path>
                        </g>
                    </g>
                </g>
            </g>
        </g>
    </g>
</svg>