<?xml version="1.0" encoding="UTF-8"?>
<svg width="41px" height="24px" viewBox="0 0 41 24" version="1.1" xmlns="http://www.w3.org/2000/svg" xmlns:xlink="http://www.w3.org/1999/xlink">
    <!-- Generator: Sketch 47.1 (45422) - http://www.bohemiancoding.com/sketch -->
    <title>Page 1</title>
    <desc>Created with Sketch.</desc>
    <defs></defs>
    <g id="popups" stroke="none" stroke-width="1" fill="none" fill-rule="evenodd">
        <g id="add-payment-popup" transform="translate(-510.000000, -184.000000)">
            <g id="Rectangle-17" transform="translate(385.000000, 103.500000)">
                <g id="Group" transform="translate(30.000000, 75.000000)">
                    <g id="Page-1" transform="translate(95.500000, 5.500000)">
                        <polygon id="Fill-1" fill="#FBB230" points="27.8712766 -4.25531915e-05 27.2604255 0.0161276596 26.653617 0.0601702128 26.0589362 0.136765957 25.4723404 0.241234043 24.8976596 0.373787234 24.3310638 0.534425532 23.7804255 0.723361702 23.2380851 0.936340426 22.7117021 1.17740426 22.2012766 1.43868085 21.7029787 1.724 21.2208511 2.0333617 20.7546809 2.36676596 20.3046809 2.72038298 19.8746809 3.094 19.4608511 3.48782979 19.0670213 3.90165957 18.6931915 4.33591489 18.3397872 4.78187234 18.0102128 5.24782979 17.7006383 5.73421277 17.4153191 6.22846809 17.1504255 6.74293617 16.9131915 7.26931915 16.7002128 7.80782979 16.5153191 8.36229787 16.3544681 8.9246383 16.2221277 9.49931915 16.1174468 10.0820851 16.0412766 10.676766 15.9970213 11.2795319 15.9808511 11.890383 15.9970213 12.5050638 16.0412766 13.1118723 16.1174468 13.7065532 16.2221277 14.2974043 16.3544681 14.8718723 16.5153191 15.4384681 16.7002128 15.9929362 16.9131915 16.5354894 17.1504255 17.0659149 17.4153191 17.5801702 17.7006383 18.0784681 18.0102128 18.5648511 18.3397872 19.0310213 18.6931915 19.4810213 19.0670213 19.9148511 19.4608511 20.3288936 19.8746809 20.7265532 20.3046809 21.100383 20.7546809 21.4537872 21.2208511 21.7874043 21.7029787 22.096766 22.2012766 22.3861277 22.7117021 22.6474043 23.2380851 22.8884681 23.7804255 23.1014468 24.3310638 23.2901702 24.8976596 23.4510213 25.4723404 23.5835745 26.0589362 23.6882553 26.653617 23.7644255 27.2604255 23.8086809 27.8712766 23.8246383 28.4859574 23.8086809 29.092766 23.7644255 29.6874468 23.6882553 30.2782979 23.5835745 30.852766 23.4510213 31.4193617 23.2901702 31.9740426 23.1014468 32.516383 22.8884681 33.0468085 22.6474043 33.5612766 22.3861277 34.0593617 22.096766 34.5457447 21.7874043 35.0117021 21.4537872 35.4619149 21.100383 35.8957447 20.7265532 36.3097872 20.3288936 36.7076596 19.9148511 37.0810638 19.4810213 37.4348936 19.0310213 37.7682979 18.5648511 38.0778723 18.0784681 38.367234 17.5801702 38.6280851 17.0659149 38.8693617 16.5354894 39.0823404 15.9929362 39.2712766 15.4384681 39.4321277 14.8718723 39.5644681 14.2974043 39.6691489 13.7065532 39.7453191 13.1118723 39.7895745 12.5050638 39.8057447 11.890383 39.7895745 11.2795319 39.7453191 10.676766 39.6691489 10.0820851 39.5644681 9.49931915 39.4321277 8.9246383 39.2712766 8.36229787 39.0823404 7.80782979 38.8693617 7.26931915 38.6280851 6.74293617 38.367234 6.22846809 38.0778723 5.73421277 37.7682979 5.24782979 37.4348936 4.78187234 37.0810638 4.33591489 36.7076596 3.90165957 36.3097872 3.48782979 35.8957447 3.094 35.4619149 2.72038298 35.0117021 2.36676596 34.5457447 2.0333617 34.0593617 1.724 33.5612766 1.43868085 33.0468085 1.17740426 32.516383 0.936340426 31.9740426 0.723361702 31.4193617 0.534425532 30.852766 0.373787234 30.2782979 0.241234043 29.6874468 0.136765957 29.092766 0.0601702128 28.4859574 0.0161276596"></polygon>
                        <polygon id="Fill-2" fill="#EC1C2D" points="11.934383 -4.25531915e-05 11.3197021 0.0161276596 10.7128936 0.0601702128 10.1182128 0.136765957 9.5273617 0.241234043 8.95289362 0.373787234 8.38629787 0.534425532 7.83161702 0.723361702 7.2892766 0.936340426 6.75885106 1.17740426 6.24438298 1.43868085 5.74629787 1.724 5.26012766 2.0333617 4.79374468 2.36676596 4.34374468 2.72038298 3.90991489 3.094 3.49587234 3.48782979 3.098 3.90165957 2.72438298 4.33591489 2.37076596 4.78187234 2.0373617 5.24782979 1.72778723 5.73421277 1.43842553 6.22846809 1.1773617 6.74293617 0.936297872 7.26931915 0.723319149 7.80782979 0.534382979 8.36229787 0.373531915 8.9246383 0.241191489 9.49931915 0.136510638 10.0820851 0.0601276596 10.676766 0.0158723404 11.2795319 -8.5106383e-05 11.890383 0.0158723404 12.5050638 0.0601276596 13.1118723 0.136510638 13.7065532 0.241191489 14.2974043 0.373531915 14.8718723 0.534382979 15.4384681 0.723319149 15.9929362 0.936297872 16.5354894 1.1773617 17.0659149 1.43842553 17.5801702 1.72778723 18.0784681 2.0373617 18.5648511 2.37076596 19.0310213 2.72438298 19.4810213 3.098 19.9148511 3.49587234 20.3288936 3.90991489 20.7265532 4.34374468 21.100383 4.79374468 21.4537872 5.26012766 21.7874043 5.74629787 22.096766 6.24438298 22.3861277 6.75885106 22.6474043 7.2892766 22.8884681 7.83161702 23.1014468 8.38629787 23.2901702 8.95289362 23.4510213 9.5273617 23.5835745 10.1182128 23.6882553 10.7128936 23.7644255 11.3197021 23.8086809 11.934383 23.8246383 12.545234 23.8086809 13.1520426 23.7644255 13.7467234 23.6882553 14.3333191 23.5835745 14.908 23.4510213 15.4745957 23.2901702 16.025234 23.1014468 16.5675745 22.8884681 17.0941702 22.6474043 17.604383 22.3861277 18.1026809 22.096766 18.5848085 21.7874043 19.0509787 21.4537872 19.5009787 21.100383 19.9309787 20.7265532 20.3448085 20.3288936 20.7386383 19.9148511 21.1122553 19.4810213 21.4658723 19.0310213 21.795234 18.5648511 22.1050213 18.0784681 22.3901277 17.5801702 22.655234 17.0659149 22.8924681 16.5354894 23.1054468 15.9929362 23.2903404 15.4384681 23.4509787 14.8718723 23.5837447 14.2974043 23.688 13.7065532 23.764383 13.1118723 23.8086383 12.5050638 23.8248085 11.890383 23.8086383 11.2795319 23.764383 10.676766 23.688 10.0820851 23.5837447 9.49931915 23.4509787 8.9246383 23.2903404 8.36229787 23.1054468 7.80782979 22.8924681 7.26931915 22.655234 6.74293617 22.3901277 6.22846809 22.1050213 5.73421277 21.795234 5.24782979 21.4658723 4.78187234 21.1122553 4.33591489 20.7386383 3.90165957 20.3448085 3.48782979 19.9309787 3.094 19.5009787 2.72038298 19.0509787 2.36676596 18.5848085 2.0333617 18.1026809 1.724 17.604383 1.43868085 17.0941702 1.17740426 16.5675745 0.936340426 16.025234 0.723361702 15.4745957 0.534425532 14.908 0.373787234 14.3333191 0.241234043 13.7467234 0.136765957 13.1520426 0.0601702128 12.545234 0.0161276596"></polygon>
                        <polygon id="Fill-3" fill="#FBB230" points="18.5084255 4.56887234 24.8373617 4.56887234 24.8373617 3.92185106 19.0548085 3.92185106"></polygon>
                        <polygon id="Fill-4" fill="#FBB230" points="17.5600851 6.00748936 24.8373191 6.00748936 24.8373191 5.36046809 17.9417872 5.36046809"></polygon>
                        <polygon id="Fill-5" fill="#FBB230" points="16.8528723 7.442 24.8373404 7.442 24.8373404 6.79497872 17.1341489 6.79497872"></polygon>
                        <polygon id="Fill-6" fill="#FBB230" points="16.3666383 8.88048936 24.8372766 8.88048936 24.8372766 8.23368085 16.5677021 8.23368085"></polygon>
                        <polygon id="Fill-7" fill="#FBB230" points="16.6479362 15.8322979 24.8575106 15.8322979 24.8575106 15.1852766 16.4470851 15.1852766"></polygon>
                        <polygon id="Fill-8" fill="#FBB230" points="17.2547234 17.2708511 24.8574894 17.2708511 24.8574894 16.6238298 16.9534468 16.6238298"></polygon>
                        <polygon id="Fill-9" fill="#FBB230" points="18.1066383 18.7054255 24.8574894 18.7054255 24.8574894 18.0584043 17.7006809 18.0584043"></polygon>
                        <polygon id="Fill-10" fill="#FBB230" points="19.28 20.1439787 24.8574468 20.1439787 24.8574468 19.4931277 18.7134043 19.4931277"></polygon>
                        <polygon id="Fill-11" fill="#FBB230" points="16.0813617 10.3151064 24.8373191 10.3151064 24.8373191 9.66808511 16.2058298 9.66808511"></polygon>
                        <polygon id="Fill-12" fill="#FBB230" points="21.4177447 14.3977234 24.7568936 14.3977234 24.7568936 13.7507021 21.5381702 13.7507021"></polygon>
                        <polygon id="Fill-13" fill="#FBB230" points="21.6829149 12.9632128 24.7569574 12.9632128 24.7569574 12.3121489 21.8035532 12.3121489"></polygon>
                        <polygon id="Fill-14" fill="#FBB230" points="15.8603191 12.3122128 16.7284043 12.3122128 16.7284043 12.9632766 15.9005319 12.9632766"></polygon>
                        <polygon id="Fill-15" fill="#FEFEFE" points="14.2409574 11.5286383 14.1847872 11.5245957 14.1284043 11.5165106 14.0762766 11.5086383 14.0239362 11.5005532 13.9758511 11.4924681 13.9235106 11.484383 13.8711702 11.4765106 13.815 11.4684255 13.7588298 11.4603404 13.6945745 11.4562979 13.622234 11.4522553 13.5458511 11.4482128 13.461383 11.4482128 13.3690426 11.4522553 13.2645745 11.4603404 13.1479787 11.4684255 13.0675532 11.4805532 12.9911702 11.4924681 12.9228723 11.5165106 12.8626596 11.540766 12.8064894 11.5688511 12.7541489 11.6009787 12.7139362 11.6411915 12.677766 11.6773617 12.6537234 11.721617 12.6335106 11.7656596 12.6256383 11.8139574 12.6256383 11.8622553 12.6375532 11.914383 12.6537234 11.9667234 12.6858511 12.0188511 12.7260638 12.0711915 12.8064894 12.1473617 12.9028723 12.2077872 13.0154255 12.2599149 13.1358511 12.3041702 13.2645745 12.344383 13.3971277 12.3886383 13.5296809 12.4367234 13.6581915 12.4890638 13.7788298 12.5573617 13.891383 12.641617 13.9918085 12.7422553 14.0762766 12.8667234 14.1405319 13.0194894 14.1807447 13.2003404 14.1967021 13.4171489 14.1807447 13.6703404 14.1524468 13.8592766 14.1043617 14.0239574 14.0401064 14.1767234 13.9596809 14.3092766 13.8673404 14.4258723 13.7626596 14.5262979 13.6503191 14.6148085 13.5256383 14.6909787 13.3971277 14.7511915 13.2645745 14.8035319 13.127766 14.8437447 12.9873404 14.8758723 12.8505319 14.9001277 12.7179787 14.9120426 12.5854255 14.9201277 12.4607447 14.9241702 12.2879787 14.9241702 12.1273404 14.9201277 11.9867021 14.9201277 11.8541489 14.9160851 11.7335106 14.9120426 11.625 14.9039574 11.528617 14.8960851 11.4360638 14.8839574 11.3518085 14.8758723 11.2754255 14.8599149 11.1990426 14.8477872 11.1307447 14.8277872 11.0624468 14.811617 10.9981915 14.7875745 10.9339362 14.7633191 10.8656383 14.7392766 11.0462766 13.8511915 11.0826596 13.8592766 11.1267021 13.8711915 11.1830851 13.8873617 11.251383 13.9035319 11.3237234 13.9194894 11.4039362 13.9356596 11.4924468 13.9556596 11.5888298 13.9718298 11.6892553 13.9877872 11.7937234 14.0039574 11.902234 14.0160851 12.0147872 14.028 12.131383 14.0320426 12.247766 14.0360851 12.3643617 14.0360851 12.4809574 14.0320426 12.5975532 14.008 12.6898936 13.9758723 12.762234 13.931617 12.8184043 13.8754468 12.858617 13.8190638 12.8907447 13.7548085 12.9109574 13.6905532 12.9269149 13.6303404 12.935 13.5137447 12.8988298 13.4133191 12.8305319 13.3328936 12.7301064 13.2645957 12.6094681 13.204383 12.4688298 13.1439574 12.312234 13.0877872 12.1554255 13.0235319 11.9947872 12.9511915 11.8420213 12.8667234 11.701383 12.7622553 11.5728723 12.6377872 11.472234 12.4850213 11.3998936 12.3041702 11.3637234 12.0871489 11.367766 11.8299149 11.3879787 11.6733191 11.4160638 11.5245957 11.4562766 11.388 11.5043617 11.2594894 11.5688298 11.1388511 11.6411702 11.034383 11.7254255 10.9339574 11.8260638 10.8456596 11.9424468 10.7692766 12.0709574 10.7048085 12.2156383 10.6445957 12.3764894 10.6005532 12.5573404 10.5641702 12.7541489 10.5360851 12.9711702 10.5201277 13.2081915 10.5160851 13.3569149 10.5160851 13.4935106 10.5201277 13.6181915 10.5241702 13.7305319 10.528 13.8311702 10.5360851 13.9235106 10.5441702 14.0039362 10.5522553 14.0762766 10.5601277 14.1445745 10.5682128 14.2007447 10.5803404 14.2530851 10.5884255 14.3011702 10.5962979 14.341383 10.604383 14.3775532 10.6084255 14.4137234 10.6165106 14.4458511 10.6205532"></polygon>
                        <polyline id="Stroke-16" stroke="#FEFEFE" stroke-width="0.5" points="14.2409574 11.5286383 14.2409574 11.5286383 14.1847872 11.5245957 14.1284043 11.5165106 14.0762766 11.5086383 14.0239362 11.5005532 13.9758511 11.4924681 13.9235106 11.484383 13.8711702 11.4765106 13.815 11.4684255 13.7588298 11.4603404 13.6945745 11.4562979 13.622234 11.4522553 13.5458511 11.4482128 13.461383 11.4482128 13.3690426 11.4522553 13.2645745 11.4603404 13.1479787 11.4684255 13.0675532 11.4805532 12.9911702 11.4924681 12.9228723 11.5165106 12.8626596 11.540766 12.8064894 11.5688511 12.7541489 11.6009787 12.7139362 11.6411915 12.677766 11.6773617 12.6537234 11.721617 12.6335106 11.7656596 12.6256383 11.8139574 12.6256383 11.8622553 12.6375532 11.914383 12.6537234 11.9667234 12.6858511 12.0188511 12.7260638 12.0711915 12.8064894 12.1473617 12.9028723 12.2077872 13.0154255 12.2599149 13.1358511 12.3041702 13.2645745 12.344383 13.3971277 12.3886383 13.5296809 12.4367234 13.6581915 12.4890638 13.7788298 12.5573617 13.891383 12.641617 13.9918085 12.7422553 14.0762766 12.8667234 14.1405319 13.0194894 14.1807447 13.2003404 14.1967021 13.4171489 14.1807447 13.6703404 14.1524468 13.8592766 14.1043617 14.0239574 14.0401064 14.1767234 13.9596809 14.3092766 13.8673404 14.4258723 13.7626596 14.5262979 13.6503191 14.6148085 13.5256383 14.6909787 13.3971277 14.7511915 13.2645745 14.8035319 13.127766 14.8437447 12.9873404 14.8758723 12.8505319 14.9001277 12.7179787 14.9120426 12.5854255 14.9201277 12.4607447 14.9241702 12.2879787 14.9241702 12.1273404 14.9201277 11.9867021 14.9201277 11.8541489 14.9160851 11.7335106 14.9120426 11.625 14.9039574 11.528617 14.8960851 11.4360638 14.8839574 11.3518085 14.8758723 11.2754255 14.8599149 11.1990426 14.8477872 11.1307447 14.8277872 11.0624468 14.811617 10.9981915 14.7875745 10.9339362 14.7633191 10.8656383 14.7392766 11.0462766 13.8511915 11.0826596 13.8592766 11.1267021 13.8711915 11.1830851 13.8873617 11.251383 13.9035319 11.3237234 13.9194894 11.4039362 13.9356596 11.4924468 13.9556596 11.5888298 13.9718298 11.6892553 13.9877872 11.7937234 14.0039574 11.902234 14.0160851 12.0147872 14.028 12.131383 14.0320426 12.247766 14.0360851 12.3643617 14.0360851 12.4809574 14.0320426 12.5975532 14.008 12.6898936 13.9758723 12.762234 13.931617 12.8184043 13.8754468 12.858617 13.8190638 12.8907447 13.7548085 12.9109574 13.6905532 12.9269149 13.6303404 12.935 13.5137447 12.8988298 13.4133191 12.8305319 13.3328936 12.7301064 13.2645957 12.6094681 13.204383 12.4688298 13.1439574 12.312234 13.0877872 12.1554255 13.0235319 11.9947872 12.9511915 11.8420213 12.8667234 11.701383 12.7622553 11.5728723 12.6377872 11.472234 12.4850213 11.3998936 12.3041702 11.3637234 12.0871489 11.367766 11.8299149 11.3879787 11.6733191 11.4160638 11.5245957 11.4562766 11.388 11.5043617 11.2594894 11.5688298 11.1388511 11.6411702 11.034383 11.7254255 10.9339574 11.8260638 10.8456596 11.9424468 10.7692766 12.0709574 10.7048085 12.2156383 10.6445957 12.3764894 10.6005532 12.5573404 10.5641702 12.7541489 10.5360851 12.9711702 10.5201277 13.2081915 10.5160851 13.3569149 10.5160851 13.4935106 10.5201277 13.6181915 10.5241702 13.7305319 10.528 13.8311702 10.5360851 13.9235106 10.5441702 14.0039362 10.5522553 14.0762766 10.5601277 14.1445745 10.5682128 14.2007447 10.5803404 14.2530851 10.5884255 14.3011702 10.5962979 14.341383 10.604383 14.3775532 10.6084255 14.4137234 10.6165106 14.4458511 10.6205532 14.2409574 11.5286383"></polyline>
                        <polygon id="Fill-17" fill="#FEFEFE" points="15.1932766 9.62797872 16.3064681 9.62797872 16.1415745 10.6005319 16.8126383 10.6005319 16.6679574 11.508617 15.9607234 11.4884043 15.5749787 13.7307447 15.5709362 13.8111702 15.5911489 13.8792553 15.6313617 13.9315957 15.6834894 13.9758511 15.7558298 14.0039362 15.8362553 14.0279787 15.9245532 14.0441489 16.0211489 14.052234 16.1094468 14.0481915 16.1898723 14.0401064 16.2622128 14.0279787 16.3264681 14.0120213 16.3788085 13.9958511 16.4149787 13.9839362 16.4390213 13.9758511 16.4471064 13.9718085 16.3064681 14.7192553 16.2781702 14.7392553 16.2500851 14.7554255 16.222 14.771383 16.1939149 14.7875532 16.1658298 14.7994681 16.1337021 14.8115957 16.0973191 14.8237234 16.0613617 14.8358511 16.0211489 14.847766 15.9809362 14.8558511 15.9326383 14.8639362 15.8845532 14.8718085 15.8322128 14.8798936 15.772 14.8879787 15.7077447 14.8960638 15.639234 14.9039362 15.3339149 14.9039362 15.1732766 14.8920213 15.0326383 14.8758511 14.9039149 14.8518085 14.795617 14.8237234 14.7030638 14.7875532 14.6266809 14.7473404 14.558383 14.6990426 14.5060426 14.6469149 14.4660426 14.5905319 14.4379574 14.522234 14.4177447 14.4539362 14.405617 14.3775532 14.4017872 14.2932979 14.4017872 14.2047872 14.4137021 14.1124468 14.4258298 14.0120213"></polygon>
                        <polyline id="Stroke-18" stroke="#FEFEFE" stroke-width="0.5" points="15.1932766 9.62797872 16.3064681 9.62797872 16.1415745 10.6005319 16.8126383 10.6005319 16.6679574 11.508617 15.9607234 11.4884043 15.5749787 13.7307447 15.5709362 13.8111702 15.5911489 13.8792553 15.6313617 13.9315957 15.6834894 13.9758511 15.7558298 14.0039362 15.8362553 14.0279787 15.9245532 14.0441489 16.0211489 14.052234 16.1094468 14.0481915 16.1898723 14.0401064 16.2622128 14.0279787 16.3264681 14.0120213 16.3788085 13.9958511 16.4149787 13.9839362 16.4390213 13.9758511 16.4471064 13.9718085 16.3064681 14.7192553 16.2781702 14.7392553 16.2500851 14.7554255 16.222 14.771383 16.1939149 14.7875532 16.1658298 14.7994681 16.1337021 14.8115957 16.0973191 14.8237234 16.0613617 14.8358511 16.0211489 14.847766 15.9809362 14.8558511 15.9326383 14.8639362 15.8845532 14.8718085 15.8322128 14.8798936 15.772 14.8879787 15.7077447 14.8960638 15.639234 14.9039362 15.3339149 14.9039362 15.1732766 14.8920213 15.0326383 14.8758511 14.9039149 14.8518085 14.795617 14.8237234 14.7030638 14.7875532 14.6266809 14.7473404 14.558383 14.6990426 14.5060426 14.6469149 14.4660426 14.5905319 14.4379574 14.522234 14.4177447 14.4539362 14.405617 14.3775532 14.4017872 14.2932979 14.4017872 14.2047872 14.4137021 14.1124468 14.4258298 14.0120213 15.1932766 9.62797872"></polyline>
                        <polygon id="Fill-19" fill="#FEFEFE" points="17.7007234 13.0234681 17.6885957 13.091766 17.684766 13.1641064 17.6926383 13.2404894 17.7088085 13.3168723 17.7368936 13.3932553 17.7690213 13.465383 17.8132766 13.541766 17.8613617 13.6100638 17.9177447 13.6783617 17.9779574 13.7387872 18.0424255 13.799 18.1145532 13.8472979 18.1868936 13.8913404 18.2673191 13.9275106 18.3477447 13.9555957 18.4281702 13.971766 18.5326383 13.9879362 18.6330638 13.9998511 18.7375319 14.0119787 18.842 14.0200638 18.9464681 14.0241064 19.0549787 14.0241064 19.1594468 14.0200638 19.2679574 14.0119787 19.3764681 13.9960213 19.484766 13.9758085 19.5973191 13.951766 19.7058298 13.9155957 19.818383 13.8713404 19.9349787 13.8230426 20.0475319 13.7587872 20.1639149 13.6904894 20.0032766 14.679 19.9390213 14.7111277 19.874766 14.7432553 19.8102979 14.7675106 19.7500851 14.7915532 19.6898723 14.8115532 19.625617 14.831766 19.5613617 14.8477234 19.4928511 14.8598511 19.4205106 14.8719787 19.3402979 14.8798511 19.2558298 14.8879362 19.1634894 14.8960213 19.0590213 14.9000638 18.9505106 14.9000638 18.8258298 14.9041064 18.6932766 14.9041064 18.4964681 14.9000638 18.2954043 14.8798511 18.0945532 14.851766 17.8937021 14.8036809 17.6966809 14.7432553 17.5079574 14.6668723 17.3271064 14.5664468 17.158383 14.4498511 17.0015745 14.3132553 16.8649787 14.1485745 16.748383 13.9636809 16.652 13.7507021 16.5837021 13.5136809 16.5394468 13.2445319 16.5273191 12.9470851 16.5475319 12.6177234 16.5634894 12.489 16.5877447 12.3402766 16.6198723 12.1836809 16.6641277 12.0149574 16.7243404 11.8419787 16.7966809 11.6692128 16.8890213 11.4924043 17.0015745 11.3236809 17.1300851 11.1630426 17.2868936 11.0102766 17.4637021 10.8736809 17.6645532 10.7530426 17.8977447 10.652617 18.1588085 10.5802766 18.4481702 10.5321915 18.7737021 10.5160213 18.9302979 10.5200638 19.0951915 10.5360213 19.2598723 10.5643191 19.4245532 10.6043191 19.5854043 10.6647447 19.742 10.7370851 19.8866809 10.8334681 20.0194468 10.9460213 20.1398723 11.082617 20.2402979 11.2434681 20.3207234 11.4281489 20.3768936 11.6411277 20.4090213 11.8821915 20.4130638 12.1555957 20.3849787 12.4609149 20.324766 12.7983617 20.3045532 13.0434681 17.3751915 13.0434681 17.5600851 12.2519787 19.3200851 12.2519787 19.3281702 12.1515532 19.3241277 12.0549574 19.3160426 11.9666596 19.3000851 11.886234 19.272 11.8098511 19.2437021 11.7415532 19.2037021 11.6813404 19.1634894 11.6251702 19.1151915 11.5768723 19.0630638 11.5366596 19.0026383 11.5004894 18.9424255 11.4683617 18.8781702 11.4443191 18.8139149 11.4281489 18.7454043 11.416234 18.6732766 11.4081489 18.5968936 11.4121915 18.5245532 11.4241064 18.4562553 11.4402766 18.3879574 11.4643191 18.3196596 11.4964468 18.259234 11.532617 18.1990213 11.5768723 18.1468936 11.6251702 18.0945532 11.6813404 18.0462553 11.7415532 18.002 11.8058085 17.9660426 11.8743191 17.9298723 11.9464468 17.9017872 12.0268723 17.8775319 12.1072979 17.8613617 12.1915532"></polygon>
                        <polyline id="Stroke-20" stroke="#FEFEFE" stroke-width="0.5" points="17.7007234 13.0234681 17.7007234 13.0234681 17.6885957 13.091766 17.684766 13.1641064 17.6926383 13.2404894 17.7088085 13.3168723 17.7368936 13.3932553 17.7690213 13.465383 17.8132766 13.541766 17.8613617 13.6100638 17.9177447 13.6783617 17.9779574 13.7387872 18.0424255 13.799 18.1145532 13.8472979 18.1868936 13.8913404 18.2673191 13.9275106 18.3477447 13.9555957 18.4281702 13.971766 18.5326383 13.9879362 18.6330638 13.9998511 18.7375319 14.0119787 18.842 14.0200638 18.9464681 14.0241064 19.0549787 14.0241064 19.1594468 14.0200638 19.2679574 14.0119787 19.3764681 13.9960213 19.484766 13.9758085 19.5973191 13.951766 19.7058298 13.9155957 19.818383 13.8713404 19.9349787 13.8230426 20.0475319 13.7587872 20.1639149 13.6904894 20.0032766 14.679 19.9390213 14.7111277 19.874766 14.7432553 19.8102979 14.7675106 19.7500851 14.7915532 19.6898723 14.8115532 19.625617 14.831766 19.5613617 14.8477234 19.4928511 14.8598511 19.4205106 14.8719787 19.3402979 14.8798511 19.2558298 14.8879362 19.1634894 14.8960213 19.0590213 14.9000638 18.9505106 14.9000638 18.8258298 14.9041064 18.6932766 14.9041064 18.4964681 14.9000638 18.2954043 14.8798511 18.0945532 14.851766 17.8937021 14.8036809 17.6966809 14.7432553 17.5079574 14.6668723 17.3271064 14.5664468 17.158383 14.4498511 17.0015745 14.3132553 16.8649787 14.1485745 16.748383 13.9636809 16.652 13.7507021 16.5837021 13.5136809 16.5394468 13.2445319 16.5273191 12.9470851 16.5475319 12.6177234 16.5634894 12.489 16.5877447 12.3402766 16.6198723 12.1836809 16.6641277 12.0149574 16.7243404 11.8419787 16.7966809 11.6692128 16.8890213 11.4924043 17.0015745 11.3236809 17.1300851 11.1630426 17.2868936 11.0102766 17.4637021 10.8736809 17.6645532 10.7530426 17.8977447 10.652617 18.1588085 10.5802766 18.4481702 10.5321915 18.7737021 10.5160213 18.9302979 10.5200638 19.0951915 10.5360213 19.2598723 10.5643191 19.4245532 10.6043191 19.5854043 10.6647447 19.742 10.7370851 19.8866809 10.8334681 20.0194468 10.9460213 20.1398723 11.082617 20.2402979 11.2434681 20.3207234 11.4281489 20.3768936 11.6411277 20.4090213 11.8821915 20.4130638 12.1555957 20.3849787 12.4609149 20.324766 12.7983617 20.3045532 13.0434681 17.3751915 13.0434681 17.5600851 12.2519787 19.3200851 12.2519787 19.3281702 12.1515532 19.3241277 12.0549574 19.3160426 11.9666596 19.3000851 11.886234 19.272 11.8098511 19.2437021 11.7415532 19.2037021 11.6813404 19.1634894 11.6251702 19.1151915 11.5768723 19.0630638 11.5366596 19.0026383 11.5004894 18.9424255 11.4683617 18.8781702 11.4443191 18.8139149 11.4281489 18.7454043 11.416234 18.6732766 11.4081489 18.5968936 11.4121915 18.5245532 11.4241064 18.4562553 11.4402766 18.3879574 11.4643191 18.3196596 11.4964468 18.259234 11.532617 18.1990213 11.5768723 18.1468936 11.6251702 18.0945532 11.6813404 18.0462553 11.7415532 18.002 11.8058085 17.9660426 11.8743191 17.9298723 11.9464468 17.9017872 12.0268723 17.8775319 12.1072979 17.8613617 12.1915532 17.7007234 13.0234681"></polyline>
                        <polygon id="Fill-21" fill="#FEFEFE" points="27.2844894 10.8415106 27.2323617 10.8134255 27.1800213 10.789383 27.1238511 10.7610851 27.0634255 10.733 27.0032128 10.7089574 26.9349149 10.6849149 26.866617 10.6606596 26.7942766 10.636617 26.7178936 10.6164043 26.6415106 10.6004468 26.5572553 10.5842766 26.4727872 10.5723617 26.3804468 10.5642766 26.2878936 10.5561915 26.1915106 10.5561915 26.0910851 10.5561915 25.9906596 10.5561915 25.8861915 10.5642766 25.7776809 10.5764043 25.6651277 10.5964043 25.5525745 10.6285319 25.4400213 10.6727872 25.3274681 10.7289574 25.2149149 10.8012979 25.106617 10.8898085 25.0021489 10.9942766 24.9017234 11.1227872 24.8051277 11.2715106 24.7168298 11.4483191 24.6323617 11.6491702 24.5559787 11.8742766 24.4917234 12.1312979 24.4676809 12.2759787 24.4515106 12.416617 24.4434255 12.5572553 24.4474681 12.6940638 24.4595957 12.8306596 24.4876809 12.9591702 24.5238511 13.0798085 24.5681064 13.200234 24.6283191 13.3087447 24.7006596 13.4132128 24.7851277 13.505766 24.8815106 13.5900213 24.9900213 13.6623617 25.1144894 13.7225745 25.2512979 13.7749149 25.4038511 13.8110851 25.4561915 13.8232128 25.5164043 13.8351277 25.5887447 13.8432128 25.6691702 13.8512979 25.7574681 13.8591702 25.8498085 13.8591702 25.9504468 13.8591702 26.0508723 13.8512979 26.1553404 13.8391702 26.2598085 13.8191702 26.360234 13.7910851 26.4606596 13.7587447 26.5610851 13.7147021 26.6536383 13.6623617 26.7381064 13.5981064 26.8183191 13.525766 26.6374681 14.5987447 26.6134255 14.6187447 26.589383 14.6427872 26.5572553 14.6710851 26.5210851 14.6951277 26.4768298 14.7272553 26.4204468 14.7553404 26.3561915 14.7834255 26.2838511 14.8076809 26.1915106 14.835766 26.0870426 14.855766 25.9664043 14.8719362 25.825766 14.8878936 25.6691702 14.8959787 25.4883191 14.9000213 25.2834255 14.8959787 25.0583191 14.8838511 24.8734255 14.8638511 24.6885319 14.8236383 24.5038511 14.7634255 24.3189574 14.683 24.1421489 14.586617 23.9734255 14.4659787 23.8125745 14.3253404 23.6640638 14.1647021 23.5312979 13.9838511 23.4187447 13.783 23.3223617 13.5578936 23.2500213 13.3127872 23.2019362 13.0436383 23.185766 12.7583191 23.1938511 12.4449149 23.2378936 12.1112979 23.270234 11.946617 23.3064043 11.785766 23.3464043 11.6291702 23.386617 11.4804468 23.4308723 11.3398085 23.483 11.1991702 23.5353404 11.066617 23.5915106 10.9419362 23.6519362 10.8174681 23.7121489 10.7008723 23.7804468 10.5883191 23.8527872 10.4838511 23.9251277 10.3834255 24.0055532 10.2870426 24.085766 10.1985319 24.170234 10.1142766 24.2627872 10.0338511 24.3551277 9.95746809 24.4515106 9.88917021 24.5519362 9.82491489 24.6604468 9.76448936 24.7689574 9.7123617 24.8815106 9.66406383 24.9981064 9.62002128 25.1225745 9.57980851 25.2472553 9.54768085 25.375766 9.51938298 25.5123617 9.49534043 25.6489574 9.47512766 25.7936383 9.45917021 25.9383191 9.45108511 26.0910851 9.44725532 26.2195957 9.45108511 26.3442766 9.45917021 26.4647021 9.47108511 26.5853404 9.48725532 26.6978936 9.50342553 26.8064043 9.52746809 26.9108723 9.54768085 27.0072553 9.5717234 27.0995957 9.59576596 27.1800213 9.62002128 27.2564043 9.64406383 27.3206596 9.66810638 27.3768298 9.68831915 27.4251277 9.7042766 27.4612979 9.72044681 27.4853404 9.72853191"></polygon>
                        <polyline id="Stroke-22" stroke="#FEFEFE" stroke-width="0.5" points="27.2844894 10.8415106 27.2844894 10.8415106 27.2323617 10.8134255 27.1800213 10.789383 27.1238511 10.7610851 27.0634255 10.733 27.0032128 10.7089574 26.9349149 10.6849149 26.866617 10.6606596 26.7942766 10.636617 26.7178936 10.6164043 26.6415106 10.6004468 26.5572553 10.5842766 26.4727872 10.5723617 26.3804468 10.5642766 26.2878936 10.5561915 26.1915106 10.5561915 26.0910851 10.5561915 25.9906596 10.5561915 25.8861915 10.5642766 25.7776809 10.5764043 25.6651277 10.5964043 25.5525745 10.6285319 25.4400213 10.6727872 25.3274681 10.7289574 25.2149149 10.8012979 25.106617 10.8898085 25.0021489 10.9942766 24.9017234 11.1227872 24.8051277 11.2715106 24.7168298 11.4483191 24.6323617 11.6491702 24.5559787 11.8742766 24.4917234 12.1312979 24.4676809 12.2759787 24.4515106 12.416617 24.4434255 12.5572553 24.4474681 12.6940638 24.4595957 12.8306596 24.4876809 12.9591702 24.5238511 13.0798085 24.5681064 13.200234 24.6283191 13.3087447 24.7006596 13.4132128 24.7851277 13.505766 24.8815106 13.5900213 24.9900213 13.6623617 25.1144894 13.7225745 25.2512979 13.7749149 25.4038511 13.8110851 25.4561915 13.8232128 25.5164043 13.8351277 25.5887447 13.8432128 25.6691702 13.8512979 25.7574681 13.8591702 25.8498085 13.8591702 25.9504468 13.8591702 26.0508723 13.8512979 26.1553404 13.8391702 26.2598085 13.8191702 26.360234 13.7910851 26.4606596 13.7587447 26.5610851 13.7147021 26.6536383 13.6623617 26.7381064 13.5981064 26.8183191 13.525766 26.6374681 14.5987447 26.6134255 14.6187447 26.589383 14.6427872 26.5572553 14.6710851 26.5210851 14.6951277 26.4768298 14.7272553 26.4204468 14.7553404 26.3561915 14.7834255 26.2838511 14.8076809 26.1915106 14.835766 26.0870426 14.855766 25.9664043 14.8719362 25.825766 14.8878936 25.6691702 14.8959787 25.4883191 14.9000213 25.2834255 14.8959787 25.0583191 14.8838511 24.8734255 14.8638511 24.6885319 14.8236383 24.5038511 14.7634255 24.3189574 14.683 24.1421489 14.586617 23.9734255 14.4659787 23.8125745 14.3253404 23.6640638 14.1647021 23.5312979 13.9838511 23.4187447 13.783 23.3223617 13.5578936 23.2500213 13.3127872 23.2019362 13.0436383 23.185766 12.7583191 23.1938511 12.4449149 23.2378936 12.1112979 23.270234 11.946617 23.3064043 11.785766 23.3464043 11.6291702 23.386617 11.4804468 23.4308723 11.3398085 23.483 11.1991702 23.5353404 11.066617 23.5915106 10.9419362 23.6519362 10.8174681 23.7121489 10.7008723 23.7804468 10.5883191 23.8527872 10.4838511 23.9251277 10.3834255 24.0055532 10.2870426 24.085766 10.1985319 24.170234 10.1142766 24.2627872 10.0338511 24.3551277 9.95746809 24.4515106 9.88917021 24.5519362 9.82491489 24.6604468 9.76448936 24.7689574 9.7123617 24.8815106 9.66406383 24.9981064 9.62002128 25.1225745 9.57980851 25.2472553 9.54768085 25.375766 9.51938298 25.5123617 9.49534043 25.6489574 9.47512766 25.7936383 9.45917021 25.9383191 9.45108511 26.0910851 9.44725532 26.2195957 9.45108511 26.3442766 9.45917021 26.4647021 9.47108511 26.5853404 9.48725532 26.6978936 9.50342553 26.8064043 9.52746809 26.9108723 9.54768085 27.0072553 9.5717234 27.0995957 9.59576596 27.1800213 9.62002128 27.2564043 9.64406383 27.3206596 9.66810638 27.3768298 9.68831915 27.4251277 9.7042766 27.4612979 9.72044681 27.4853404 9.72853191 27.2844894 10.8415106"></polyline>
                        <polygon id="Fill-23" fill="#FEFEFE" points="37.1776383 14.9040426 36.0646596 14.9040426 36.1450851 14.4580851 36.1450851 14.4178723 36.080617 14.4980851 36.0123191 14.5704255 35.9440213 14.6348936 35.8716809 14.6910638 35.7993404 14.7434043 35.727 14.7874468 35.6546596 14.823617 35.5782766 14.8597872 35.5018936 14.8880851 35.4257234 14.9080851 35.3493404 14.9280851 35.2689149 14.9402128 35.1884894 14.9523404 35.1121064 14.9602128 35.0318936 14.9642553 34.9514681 14.9642553 34.7425319 14.9482979 34.549766 14.9040426 34.3727447 14.8357447 34.2121064 14.7434043 34.0674255 14.6268085 33.9389149 14.4902128 33.8263617 14.3414894 33.7299787 14.172766 33.6495532 13.9919149 33.5852979 13.8029787 33.5410426 13.6061702 33.5089149 13.4012766 33.4967872 13.1961702 33.5008298 12.987234 33.5210426 12.7823404 33.5572128 12.5774468 33.6174255 12.3404255 33.689766 12.1153191 33.774234 11.9104255 33.8744468 11.7174468 33.9791277 11.5365957 34.0995532 11.3759574 34.224234 11.2312766 34.3567872 11.0987234 34.4974255 10.9821277 34.6461489 10.8817021 34.7989149 10.7934043 34.9514681 10.7248936 35.1121064 10.6687234 35.2729574 10.6325532 35.4335957 10.6085106 35.5984894 10.6004255 35.7148723 10.6044681 35.8274255 10.6165957 35.9318936 10.6365957 36.0284894 10.6646809 36.1208298 10.6968085 36.2012553 10.7329787 36.2816809 10.777234 36.3538085 10.8214894 36.4182766 10.8695745 36.4784894 10.9219149 36.530617 10.9740426 36.5789149 11.026383 36.6191277 11.0785106 36.6552979 11.1308511 36.6874255 11.1791489 36.7114681 11.227234 36.9927447 9.64808511 38.0857234 9.64808511"></polygon>
                        <polyline id="Stroke-24" stroke="#FEFEFE" stroke-width="0.5" points="37.1776383 14.9040426 36.0646596 14.9040426 36.1450851 14.4580851 36.1450851 14.4178723 36.080617 14.4980851 36.0123191 14.5704255 35.9440213 14.6348936 35.8716809 14.6910638 35.7993404 14.7434043 35.727 14.7874468 35.6546596 14.823617 35.5782766 14.8597872 35.5018936 14.8880851 35.4257234 14.9080851 35.3493404 14.9280851 35.2689149 14.9402128 35.1884894 14.9523404 35.1121064 14.9602128 35.0318936 14.9642553 34.9514681 14.9642553 34.7425319 14.9482979 34.549766 14.9040426 34.3727447 14.8357447 34.2121064 14.7434043 34.0674255 14.6268085 33.9389149 14.4902128 33.8263617 14.3414894 33.7299787 14.172766 33.6495532 13.9919149 33.5852979 13.8029787 33.5410426 13.6061702 33.5089149 13.4012766 33.4967872 13.1961702 33.5008298 12.987234 33.5210426 12.7823404 33.5572128 12.5774468 33.6174255 12.3404255 33.689766 12.1153191 33.774234 11.9104255 33.8744468 11.7174468 33.9791277 11.5365957 34.0995532 11.3759574 34.224234 11.2312766 34.3567872 11.0987234 34.4974255 10.9821277 34.6461489 10.8817021 34.7989149 10.7934043 34.9514681 10.7248936 35.1121064 10.6687234 35.2729574 10.6325532 35.4335957 10.6085106 35.5984894 10.6004255 35.7148723 10.6044681 35.8274255 10.6165957 35.9318936 10.6365957 36.0284894 10.6646809 36.1208298 10.6968085 36.2012553 10.7329787 36.2816809 10.777234 36.3538085 10.8214894 36.4182766 10.8695745 36.4784894 10.9219149 36.530617 10.9740426 36.5789149 11.026383 36.6191277 11.0785106 36.6552979 11.1308511 36.6874255 11.1791489 36.7114681 11.227234 36.9927447 9.64808511 38.0857234 9.64808511 37.1776383 14.9040426"></polyline>
                        <polygon id="Fill-25" fill="#FBB230" points="35.357383 13.9316383 35.4699362 13.9235532 35.5744043 13.8995106 35.6707872 13.8712128 35.7631277 13.8271702 35.8475957 13.7788723 35.9280213 13.7186596 36.0041915 13.6503617 36.0727021 13.5780213 36.1329149 13.4975957 36.1890851 13.4092979 36.2414255 13.3167447 36.2854681 13.2203617 36.3258936 13.1199362 36.3580213 13.0154681 36.3861064 12.9069574 36.4061064 12.7984468 36.4263191 12.6858936 36.438234 12.5692979 36.438234 12.4607872 36.4341915 12.3484468 36.4222766 12.2439787 36.4061064 12.1435532 36.3780213 12.0469574 36.3458936 11.954617 36.3056809 11.8741915 36.257383 11.7978085 36.2052553 11.7335532 36.1450426 11.677383 36.0767447 11.6290851 36.0041915 11.5969574 35.9280213 11.5769574 35.8435532 11.5688723 35.7350426 11.5769574 35.634617 11.5929149 35.5422766 11.6250426 35.4497234 11.6652553 35.3692979 11.7175957 35.2890851 11.7818511 35.2207872 11.8501489 35.1524894 11.9265319 35.0920638 12.0148298 35.0358936 12.1071702 34.9835532 12.203766 34.9395106 12.308234 34.8992979 12.4167447 34.8671702 12.5252553 34.8350426 12.6416383 34.8107872 12.758234 34.7907872 12.9350426 34.7988723 13.1280213 34.8269574 13.3248298 34.8790851 13.513766 34.9595106 13.6784468 35.0639787 13.811 35.1967447 13.8995106"></polygon>
                        <polygon id="Fill-26" fill="#FEFEFE" points="10.6807021 14.0119787 10.5200638 14.9041064 9.50729787 14.9041064 9.53538298 14.7392128 9.55559574 14.5907021 9.57155319 14.4781489 9.5877234 14.4177234 9.53155319 14.4821915 9.46708511 14.5464468 9.39091489 14.6066596 9.30644681 14.6630426 9.21006383 14.7192128 9.10942553 14.7675106 9.00517021 14.8155957 8.89665957 14.8558085 8.78006383 14.8919787 8.66346809 14.9200638 8.54687234 14.9441064 8.42644681 14.9602766 8.30985106 14.9683617 8.19325532 14.9724043 8.08091489 14.9602766 7.97240426 14.9441064 7.83176596 14.9081489 7.70304255 14.8679362 7.59070213 14.8155957 7.49006383 14.755383 7.40176596 14.6911277 7.32134043 14.6187872 7.25708511 14.5424043 7.20070213 14.4619787 7.15261702 14.3777234 7.11240426 14.2892128 7.0802766 14.2009149 7.05623404 14.1124043 7.04006383 14.0200638 7.02814894 13.9275106 7.02006383 13.8392128 7.02006383 13.7507021 7.03197872 13.5941064 7.05623404 13.445383 7.09623404 13.3047447 7.14857447 13.1681489 7.21282979 13.0396383 7.28517021 12.9230426 7.3696383 12.8104894 7.46602128 12.7100638 7.56644681 12.6177234 7.679 12.5332553 7.79559574 12.4568723 7.91602128 12.392617 8.04474468 12.336234 8.17729787 12.2921915 8.31389362 12.2560213 8.45453191 12.2319787 8.46261702 12.2319787 8.48261702 12.2279362 8.51091489 12.2238936 8.55517021 12.2198511 8.60325532 12.211766 8.65942553 12.2077234 8.7196383 12.1996383 8.78814894 12.1915532 8.85644681 12.1836809 8.92474468 12.1755957 8.99708511 12.1715532 9.06134043 12.1634681 9.12559574 12.1594255 9.18580851 12.1555957 9.24219149 12.1515532 9.28644681 12.1515532 9.37878723 12.1515532 9.47517021 12.1555957 9.56368085 12.1594255 9.65197872 12.1594255 9.72431915 12.1634681 9.78070213 12.1675106 9.82070213 12.1715532 9.83282979 12.1715532 9.84091489 12.1434681 9.86495745 12.0711277 9.88517021 11.9866596 9.89325532 11.9102766 9.87708511 11.8219787 9.84091489 11.7415532 9.79261702 11.6692128 9.7283617 11.609 9.65197872 11.5568723 9.56751064 11.5207021 9.47112766 11.4964468 9.36665957 11.4885745 9.25431915 11.4845319 9.13368085 11.4804894 9.009 11.4804894 8.88048936 11.4845319 8.74793617 11.492617 8.61921277 11.5045319 8.49070213 11.5166596 8.36623404 11.532617 8.24559574 11.5487872 8.129 11.5687872 8.02453191 11.589 7.92814894 11.609 7.8396383 11.6332553 7.76751064 11.6572979 7.71112766 11.685383 7.66687234 11.7094255 7.95219149 10.7411277 8.04070213 10.7049574 8.129 10.6728298 8.22538298 10.6445319 8.32197872 10.6245319 8.4183617 10.6043191 8.52282979 10.5883617 8.62729787 10.5721915 8.73580851 10.5643191 8.8483617 10.556234 8.96474468 10.5521915 9.08538298 10.5481489 9.21006383 10.5481489 9.33857447 10.5481489 9.47112766 10.5481489 9.61176596 10.5521915 9.75240426 10.556234 9.86495745 10.5643191 9.98559574 10.5843191 10.1100638 10.6124043 10.2387872 10.6485745 10.3632553 10.6968723 10.4838936 10.7530426 10.6043191 10.8213404 10.7168723 10.8977234 10.8172979 10.986234 10.9058085 11.082617 10.9860213 11.1911277 11.0464468 11.3115532 11.0864468 11.4402766 11.1107021 11.5768723 11.1107021 11.7296383 11.0864468 11.8902766"></polygon>
                        <polyline id="Stroke-27" stroke="#FEFEFE" stroke-width="0.5" points="10.6807021 14.0119787 10.5200638 14.9041064 9.50729787 14.9041064 9.53538298 14.7392128 9.55559574 14.5907021 9.57155319 14.4781489 9.5877234 14.4177234 9.53155319 14.4821915 9.46708511 14.5464468 9.39091489 14.6066596 9.30644681 14.6630426 9.21006383 14.7192128 9.10942553 14.7675106 9.00517021 14.8155957 8.89665957 14.8558085 8.78006383 14.8919787 8.66346809 14.9200638 8.54687234 14.9441064 8.42644681 14.9602766 8.30985106 14.9683617 8.19325532 14.9724043 8.08091489 14.9602766 7.97240426 14.9441064 7.83176596 14.9081489 7.70304255 14.8679362 7.59070213 14.8155957 7.49006383 14.755383 7.40176596 14.6911277 7.32134043 14.6187872 7.25708511 14.5424043 7.20070213 14.4619787 7.15261702 14.3777234 7.11240426 14.2892128 7.0802766 14.2009149 7.05623404 14.1124043 7.04006383 14.0200638 7.02814894 13.9275106 7.02006383 13.8392128 7.02006383 13.7507021 7.03197872 13.5941064 7.05623404 13.445383 7.09623404 13.3047447 7.14857447 13.1681489 7.21282979 13.0396383 7.28517021 12.9230426 7.3696383 12.8104894 7.46602128 12.7100638 7.56644681 12.6177234 7.679 12.5332553 7.79559574 12.4568723 7.91602128 12.392617 8.04474468 12.336234 8.17729787 12.2921915 8.31389362 12.2560213 8.45453191 12.2319787 8.46261702 12.2319787 8.48261702 12.2279362 8.51091489 12.2238936 8.55517021 12.2198511 8.60325532 12.211766 8.65942553 12.2077234 8.7196383 12.1996383 8.78814894 12.1915532 8.85644681 12.1836809 8.92474468 12.1755957 8.99708511 12.1715532 9.06134043 12.1634681 9.12559574 12.1594255 9.18580851 12.1555957 9.24219149 12.1515532 9.28644681 12.1515532 9.37878723 12.1515532 9.47517021 12.1555957 9.56368085 12.1594255 9.65197872 12.1594255 9.72431915 12.1634681 9.78070213 12.1675106 9.82070213 12.1715532 9.83282979 12.1715532 9.84091489 12.1434681 9.86495745 12.0711277 9.88517021 11.9866596 9.89325532 11.9102766 9.87708511 11.8219787 9.84091489 11.7415532 9.79261702 11.6692128 9.7283617 11.609 9.65197872 11.5568723 9.56751064 11.5207021 9.47112766 11.4964468 9.36665957 11.4885745 9.25431915 11.4845319 9.13368085 11.4804894 9.009 11.4804894 8.88048936 11.4845319 8.74793617 11.492617 8.61921277 11.5045319 8.49070213 11.5166596 8.36623404 11.532617 8.24559574 11.5487872 8.129 11.5687872 8.02453191 11.589 7.92814894 11.609 7.8396383 11.6332553 7.76751064 11.6572979 7.71112766 11.685383 7.66687234 11.7094255 7.95219149 10.7411277 8.04070213 10.7049574 8.129 10.6728298 8.22538298 10.6445319 8.32197872 10.6245319 8.4183617 10.6043191 8.52282979 10.5883617 8.62729787 10.5721915 8.73580851 10.5643191 8.8483617 10.556234 8.96474468 10.5521915 9.08538298 10.5481489 9.21006383 10.5481489 9.33857447 10.5481489 9.47112766 10.5481489 9.61176596 10.5521915 9.75240426 10.556234 9.86495745 10.5643191 9.98559574 10.5843191 10.1100638 10.6124043 10.2387872 10.6485745 10.3632553 10.6968723 10.4838936 10.7530426 10.6043191 10.8213404 10.7168723 10.8977234 10.8172979 10.986234 10.9058085 11.082617 10.9860213 11.1911277 11.0464468 11.3115532 11.0864468 11.4402766 11.1107021 11.5768723 11.1107021 11.7296383 11.0864468 11.8902766 10.6807021 14.0119787"></polyline>
                        <polygon id="Fill-28" fill="#EC1C2D" points="9.7122766 12.9632128 9.70823404 12.943 9.6922766 12.923 9.66802128 12.9108723 9.62780851 12.903 9.58376596 12.8949149 9.53142553 12.8908723 9.47121277 12.8908723 9.411 12.8908723 9.34653191 12.8949149 9.27823404 12.903 9.21397872 12.9108723 9.1497234 12.9189574 9.08951064 12.9270426 9.03312766 12.9391702 8.98504255 12.9510851 8.94078723 12.9632128 8.91270213 12.9712979 8.8803617 12.9832128 8.83631915 12.999383 8.79206383 13.019383 8.7397234 13.0436383 8.68759574 13.0717234 8.63142553 13.0998085 8.57908511 13.1319362 8.52291489 13.1721489 8.47057447 13.2123617 8.42248936 13.2604468 8.37823404 13.3087447 8.33802128 13.3610851 8.30993617 13.4172553 8.28568085 13.4815106 8.27376596 13.545766 8.2697234 13.6825745 8.2897234 13.7910851 8.32993617 13.8712979 8.3822766 13.9317234 8.44248936 13.9717234 8.51078723 13.9959787 8.57504255 14.0078936 8.63951064 14.0119362 8.75993617 14.0078936 8.86844681 13.9959787 8.97291489 13.9798085 9.06525532 13.9555532 9.14568085 13.9276809 9.22206383 13.8912979 9.2903617 13.8553404 9.35057447 13.8110851 9.40291489 13.7708723 9.451 13.7225745 9.49121277 13.6785319 9.52334043 13.630234 9.5516383 13.5819362 9.57568085 13.5338511 9.59568085 13.4895957 9.60780851 13.4453404 9.63993617 13.3289574 9.66802128 13.1961915 9.6922766 13.0676809"></polygon>
                        <polygon id="Fill-29" fill="#FEFEFE" points="2.22610638 14.9040426 1.13312766 14.9040426 2.04525532 9.62808511 3.94589362 9.62808511 4.12674468 12.7582979 5.44078723 9.62808511 7.42589362 9.62808511 6.49355319 14.9040426 5.40057447 14.9040426 6.09185106 10.9621277 6.04759574 10.9621277 4.41206383 14.9040426 3.17844681 14.9040426 3.1703617 14.7393617 3.1422766 14.3012766 3.10610638 13.6785106 3.06589362 12.9631915 3.02568085 12.2438298 2.98951064 11.6129787 2.96142553 11.1548936 2.95334043 10.9621277 2.94142553 10.9621277 2.91717021 10.9621277 2.89312766 10.9621277"></polygon>
                        <polyline id="Stroke-30" stroke="#FEFEFE" stroke-width="0.5" points="2.22610638 14.9040426 1.13312766 14.9040426 2.04525532 9.62808511 3.94589362 9.62808511 4.12674468 12.7582979 5.44078723 9.62808511 7.42589362 9.62808511 6.49355319 14.9040426 5.40057447 14.9040426 6.09185106 10.9621277 6.04759574 10.9621277 4.41206383 14.9040426 3.17844681 14.9040426 3.1703617 14.7393617 3.1422766 14.3012766 3.10610638 13.6785106 3.06589362 12.9631915 3.02568085 12.2438298 2.98951064 11.6129787 2.96142553 11.1548936 2.95334043 10.9621277 2.94142553 10.9621277 2.91717021 10.9621277 2.89312766 10.9621277 2.22610638 14.9040426"></polyline>
                        <polygon id="Fill-31" fill="#FEFEFE" points="30.6238298 14.0119787 30.4591489 14.9041064 29.4504255 14.9041064 29.4585106 14.7392128 29.4625532 14.5947447 29.4625532 14.486234 29.4704255 14.4379362 29.4182979 14.4981489 29.3578723 14.5583617 29.2857447 14.6147447 29.2053191 14.6709149 29.1208511 14.7232553 29.0244681 14.7713404 28.9240426 14.8196383 28.823617 14.8598511 28.7151064 14.8919787 28.6025532 14.9241064 28.49 14.9441064 28.3774468 14.9602766 28.2608511 14.9683617 28.1485106 14.9724043 28.04 14.9602766 27.9314894 14.9441064 27.7868085 14.9081489 27.6580851 14.8679362 27.5457447 14.8155957 27.4412766 14.755383 27.352766 14.6911277 27.276383 14.6187872 27.2121277 14.5424043 27.1559574 14.4619787 27.1076596 14.3777234 27.0714894 14.2892128 27.0393617 14.2009149 27.0193617 14.1124043 27.0031915 14.0200638 26.9910638 13.9275106 26.9831915 13.8392128 26.9831915 13.7507021 26.9910638 13.5941064 27.0153191 13.445383 27.0514894 13.3047447 27.103617 13.1681489 27.1638298 13.0396383 27.2402128 12.9230426 27.3246809 12.8104894 27.4170213 12.7100638 27.5214894 12.6177234 27.63 12.5332553 27.7465957 12.4568723 27.8712766 12.392617 27.9957447 12.336234 28.1282979 12.2921915 28.2608511 12.2560213 28.3976596 12.2319787 28.4055319 12.2319787 28.4257447 12.2279362 28.4538298 12.2238936 28.4940426 12.2198511 28.546383 12.211766 28.6025532 12.2077234 28.662766 12.1996383 28.7270213 12.1915532 28.7955319 12.1836809 28.8676596 12.1755957 28.9361702 12.1715532 29.0042553 12.1634681 29.0687234 12.1594255 29.1248936 12.1555957 29.1812766 12.1515532 29.2253191 12.1515532 29.3219149 12.1515532 29.4182979 12.1555957 29.5106383 12.1594255 29.5991489 12.1594255 29.6755319 12.1634681 29.7397872 12.1675106 29.7759574 12.1715532 29.7919149 12.1715532 29.8 12.1434681 29.8121277 12.0711277 29.8240426 11.9866596 29.8321277 11.9102766 29.8161702 11.8219787 29.7840426 11.7415532 29.7317021 11.6692128 29.6714894 11.609 29.5991489 11.5568723 29.5146809 11.5207021 29.426383 11.4964468 29.3297872 11.4885745 29.217234 11.4845319 29.0968085 11.4804894 28.9721277 11.4804894 28.843617 11.4845319 28.7110638 11.492617 28.5823404 11.5045319 28.4538298 11.5166596 28.3293617 11.532617 28.2087234 11.5487872 28.0921277 11.5687872 27.9876596 11.589 27.8912766 11.609 27.802766 11.6332553 27.7306383 11.6572979 27.6742553 11.685383 27.63 11.7094255 27.9112766 10.7411277 27.9997872 10.7049574 28.0921277 10.6728298 28.1846809 10.6445319 28.2810638 10.6245319 28.3814894 10.6043191 28.4819149 10.5883617 28.586383 10.5721915 28.6948936 10.5643191 28.8074468 10.556234 28.9240426 10.5521915 29.0404255 10.5481489 29.1651064 10.5481489 29.2897872 10.5481489 29.4182979 10.5481489 29.5548936 10.5521915 29.6914894 10.556234 29.8040426 10.5643191 29.9246809 10.5843191 30.0491489 10.6124043 30.1776596 10.6485745 30.3023404 10.6968723 30.4268085 10.7530426 30.5474468 10.8213404 30.66 10.8977234 30.7604255 10.986234 30.852766 11.082617 30.9331915 11.1911277 30.9934043 11.3115532 31.0376596 11.4402766 31.0657447 11.5768723 31.0657447 11.7296383 31.0457447 11.8902766"></polygon>
                        <polygon id="Fill-35" fill="#FEFEFE" points="27.9274255 14.9683404 27.9274255 14.9683404 28.0399787 14.9845106 28.1484894 14.9964255 28.2610426 14.992383 28.3774255 14.9845106 28.4940213 14.9683404 28.6065745 14.9483404 28.7191277 14.916 28.8314681 14.8838723 28.9321064 14.8438723 29.0365745 14.7955745 29.1329574 14.7472766 29.2172128 14.6911064 29.3016809 14.6347234 29.3740213 14.5785532 29.4382766 14.5142979 29.490617 14.4540851 29.4504043 14.4217447 29.3982766 14.4821702 29.3418936 14.5383404 29.2695532 14.5947234 29.1931702 14.6508936 29.1089149 14.6991915 29.0123191 14.7472766 28.9159362 14.7955745 28.8155106 14.8357872 28.7110426 14.8679149 28.5984894 14.9000426 28.4859362 14.9200426 28.3774255 14.9362128 28.2610426 14.9442979 28.1484894 14.9483404 28.0399787 14.9362128 27.9355106 14.9200426"></polygon>
                        <polygon id="Fill-36" fill="#FEFEFE" points="26.9550213 13.750766 26.9550213 13.750766 26.9590638 13.8392766 26.9671489 13.9275745 26.9790638 14.0239574 26.995234 14.1165106 27.015234 14.2048085 27.0473617 14.2973617 27.0835319 14.3897021 27.1358723 14.4741702 27.1920426 14.5584255 27.2562979 14.6348085 27.3367234 14.7111915 27.4292766 14.7754468 27.5337447 14.8397021 27.6501277 14.8920426 27.7828936 14.9322553 27.9273617 14.9684255 27.9354468 14.9201277 27.790766 14.8839574 27.6662979 14.8437447 27.5577872 14.7914043 27.4533191 14.735234 27.3688511 14.6709787 27.2965106 14.6026809 27.2322553 14.5262979 27.1760851 14.4499149 27.1318298 14.3656596 27.0956596 14.2811915 27.0635319 14.1967234 27.0435319 14.1084255 27.0273617 14.0160851 27.015234 13.9275745 27.0071489 13.8392766 27.0111915 13.750766"></polygon>
                        <polygon id="Fill-37" fill="#FEFEFE" points="28.3975957 12.207766 28.3975957 12.207766 28.2569574 12.2318085 28.1203617 12.2679787 27.9878085 12.312234 27.8590851 12.3684043 27.734617 12.4328723 27.6139787 12.5130851 27.5054681 12.5975532 27.401 12.6939362 27.304617 12.7943617 27.2201489 12.9069149 27.1399362 13.0275532 27.0795106 13.1601064 27.027383 13.2967021 26.9912128 13.441383 26.9671702 13.5941489 26.9550426 13.7507447 27.0112128 13.7507447 27.0152553 13.5941489 27.0392979 13.4494681 27.0754681 13.3128723 27.1278085 13.1762766 27.1880213 13.0515957 27.2603617 12.9390426 27.3448298 12.8264894 27.4331277 12.7260638 27.5375957 12.637766 27.6461064 12.5532979 27.7586596 12.4809574 27.8831277 12.4167021 28.003766 12.3605319 28.1363191 12.3162766 28.2650426 12.2801064 28.3975957 12.2558511"></polygon>
                        <polygon id="Fill-45" fill="#FEFEFE" points="31.069766 11.8943191 31.069766 11.8943191 31.089766 11.7296383 31.089766 11.5768723 31.0616809 11.436234 31.0176383 11.3036809 30.953383 11.179 30.8729574 11.0664468 30.7763617 10.9660213 30.6759362 10.8777234 30.5595532 10.8013404 30.4389149 10.729 30.3104043 10.6728298 30.1857234 10.6245319 30.0531702 10.5883617 29.9284894 10.5602766 29.8040213 10.5400638 29.6914681 10.5321915 29.6914681 10.5802766 29.8040213 10.5883617 29.920617 10.6085745 30.0450851 10.6366596 30.169766 10.6728298 30.294234 10.7209149 30.4148723 10.7772979 30.5352979 10.8415532 30.6438085 10.9179362 30.744234 11.006234 30.8327447 11.0985745 30.9131702 11.2030426 30.9693404 11.3196383 31.0135957 11.4443191 31.0416809 11.5768723 31.0416809 11.7296383 31.0216809 11.886234"></polygon>
                        <polygon id="Fill-47" fill="#FBB230" points="29.6512979 12.9632128 29.6432128 12.9391702 29.6272553 12.9189574 29.5991702 12.9070426 29.5589574 12.8949149 29.5147021 12.8908723 29.4625745 12.8868298 29.4021489 12.8868298 29.3419362 12.8908723 29.2776809 12.8989574 29.2132128 12.9070426 29.1489574 12.9149149 29.0887447 12.923 29.0285319 12.9351277 28.9761915 12.943 28.9240638 12.9551277 28.8838511 12.9632128 28.8555532 12.9672553 28.8234255 12.9791702 28.7834255 12.9912979 28.7391702 13.0072553 28.6868298 13.0315106 28.6387447 13.0555532 28.5823617 13.0836383 28.530234 13.1198085 28.4778936 13.1561915 28.425766 13.200234 28.3815106 13.2444894 28.3372553 13.2968298 28.3010851 13.353 28.273 13.4132128 28.2489574 13.4774681 28.2368298 13.545766 28.2327872 13.6825745 28.253 13.7910851 28.2851277 13.8712979 28.3332128 13.9317234 28.3936383 13.9717234 28.4619362 13.9959787 28.530234 14.0078936 28.5985319 14.0119362 28.7189574 14.0078936 28.8315106 13.9959787 28.9359787 13.975766 29.0285319 13.9476809 29.1168298 13.9155532 29.1932128 13.879383 29.2655532 13.8391702 29.3298085 13.7910851 29.3861915 13.746617 29.4342766 13.6944894 29.4785319 13.6461915 29.5147021 13.5940638 29.5427872 13.545766 29.5627872 13.4976809 29.5789574 13.449383 29.5910851 13.4051277 29.6070426 13.2927872 29.6272553 13.1761915 29.6432128 13.0636383"></polygon>
                        <polygon id="Fill-48" fill="#FEFEFE" points="37.9290638 14.3535319 37.9371489 14.2611915 37.9692766 14.1526809 38.0256596 14.0562979 38.0937447 13.9718298 38.1782128 13.9035319 38.2745957 13.855234 38.3790638 13.8231064 38.491617 13.8111915 38.6041702 13.8231064 38.7086383 13.855234 38.8050213 13.9035319 38.8894894 13.9718298 38.9577872 14.0562979 39.0139574 14.1526809 39.0462979 14.2611915 39.0541702 14.3535319 38.9337447 14.3535319 38.9297021 14.2811915 38.9056596 14.1928936 38.865234 14.1124681 38.8131064 14.0441702 38.7488511 13.9877872 38.6724681 13.9477872 38.5841702 13.9194894 38.491617 13.9114043 38.3992766 13.9194894 38.310766 13.9477872 38.234383 13.9877872 38.1701277 14.0441702 38.118 14.1124681 38.0777872 14.1928936 38.0537447 14.2811915 38.0456596 14.3535319"></polygon>
                        <polygon id="Fill-50" fill="#FEFEFE" points="37.9290638 14.3535319 37.9250213 14.3775745 37.9371489 14.4941702 37.9692766 14.6026809 38.0256596 14.6990638 38.0937447 14.7794894 38.1782128 14.8477872 38.2745957 14.9001277 38.3790638 14.9322553 38.491617 14.9441702 38.6041702 14.9322553 38.7086383 14.9001277 38.8050213 14.8477872 38.8894894 14.7794894 38.9577872 14.6990638 39.0139574 14.6026809 39.0462979 14.4941702 39.0582128 14.3775745 39.0541702 14.3535319 38.9337447 14.3535319 38.9377872 14.3775745 38.9297021 14.4741702 38.9056596 14.5624681 38.865234 14.6388511 38.8131064 14.7071489 38.7488511 14.7633191 38.6724681 14.8075745 38.5841702 14.8358723 38.491617 14.8437447 38.3992766 14.8358723 38.310766 14.8075745 38.234383 14.7633191 38.1701277 14.7071489 38.118 14.6388511 38.0777872 14.5624681 38.0537447 14.4741702 38.0456596 14.3775745 38.0456596 14.3535319"></polygon>
                        <path d="M38.4916596,14.8438085 L38.4916596,14.8438085 L38.5842128,14.8357234 L38.6725106,14.8076383 L38.7488936,14.763383 L38.8131489,14.707 L38.8652766,14.6389149 L38.9054894,14.5625319 L38.9297447,14.4740213 L38.937617,14.3776383 L38.9297447,14.2812553 L38.9054894,14.1927447 L38.8652766,14.1125319 L38.8131489,14.044234 L38.7488936,13.9878511 L38.6725106,13.9476383 L38.5842128,13.9195532 L38.4916596,13.9114681 L38.3993191,13.9195532 L38.3108085,13.9476383 L38.2344255,13.9878511 L38.1701702,14.044234 L38.1180426,14.1125319 L38.0778298,14.1927447 L38.0535745,14.2812553 L38.0457021,14.3776383 L38.0535745,14.4740213 L38.0778298,14.5625319 L38.1180426,14.6389149 L38.1701702,14.707 L38.2344255,14.763383 L38.3108085,14.8076383 L38.3993191,14.8357234 L38.4916596,14.8438085 M38.4916596,14.3576383 L38.4916596,14.3576383 L38.5278298,14.3495532 L38.5559149,14.3455106 L38.5801702,14.3374255 L38.6001702,14.3295532 L38.6163404,14.3174255 L38.6242128,14.3052979 L38.6322979,14.2852979 L38.6322979,14.257 L38.6282553,14.237 L38.6201702,14.2210426 L38.6082553,14.2129574 L38.5961277,14.2048723 L38.5761277,14.2008298 L38.5559149,14.1967872 L38.5359149,14.1967872 L38.5116596,14.1967872 L38.391234,14.1967872 L38.391234,14.3576383 L38.4916596,14.3576383 M38.391234,14.5987021 L38.2908085,14.5987021 L38.2908085,14.1125319 L38.5116596,14.1125319 L38.5599574,14.1163617 L38.6042128,14.1244468 L38.6363404,14.1365745 L38.6644255,14.1525319 L38.6846383,14.1767872 L38.7005957,14.2008298 L38.7086809,14.2289149 L38.7127234,14.257 L38.7086809,14.293383 L38.7005957,14.3214681 L38.6886809,14.3455106 L38.6725106,14.3655106 L38.6525106,14.3816809 L38.6282553,14.389766 L38.6001702,14.3976383 L38.5720851,14.3976383 L38.6927234,14.5987021 L38.6122979,14.5987021 L38.4916596,14.3976383 L38.391234,14.3976383 L38.391234,14.5987021 M37.9250638,14.3776383 L37.9250638,14.3776383 L37.9371915,14.2610426 L37.9693191,14.1525319 L38.0254894,14.0561489 L38.0937872,13.9718936 L38.1782553,13.9035957 L38.2746383,13.8552979 L38.3791064,13.8231702 L38.4916596,13.8110426 L38.6042128,13.8231702 L38.7086809,13.8552979 L38.8050638,13.9035957 L38.8895319,13.9718936 L38.9578298,14.0561489 L39.014,14.1525319 L39.0461277,14.2610426 L39.0582553,14.3776383 L39.0461277,14.494234 L39.014,14.6027447 L38.9578298,14.6991277 L38.8895319,14.7795532 L38.8050638,14.8478511 L38.7086809,14.8999787 L38.6042128,14.9323191 L38.4916596,14.944234 L38.3791064,14.9323191 L38.2746383,14.8999787 L38.1782553,14.8478511 L38.0937872,14.7795532 L38.0254894,14.6991277 L37.9693191,14.6027447 L37.9371915,14.494234 L37.9250638,14.3776383" id="Stroke-52" stroke="#FEFEFE" stroke-width="0.5"></path>
                        <polygon id="Fill-53" fill="#FEFEFE" points="30.9251489 14.9040426 32.0583404 14.9040426 32.4642979 12.6176596 32.4802553 12.5291489 32.5042979 12.4408511 32.5285532 12.3523404 32.5606809 12.2640426 32.6008936 12.1755319 32.6489787 12.0912766 32.7013191 12.0108511 32.7655745 11.9344681 32.8379149 11.8661702 32.9181277 11.8019149 33.0106809 11.7417021 33.1151489 11.6934043 33.2317447 11.6531915 33.3602553 11.6210638 33.5008936 11.5970213 33.6577021 11.5889362 33.7138723 11.5889362 33.746 11.5889362 33.7581277 11.5889362 33.938766 10.5561702 33.8264255 10.5642553 33.7179149 10.576383 33.6174894 10.596383 33.5208936 10.6244681 33.4325957 10.6565957 33.3481277 10.6968085 33.2679149 10.7410638 33.1915319 10.7893617 33.1191915 10.8455319 33.0508936 10.9019149 32.9866383 10.9661702 32.9221702 11.0304255 32.8619574 11.0987234 32.8017447 11.1751064 32.7415319 11.2474468 32.6851489 11.3276596 32.8057872 10.6004255 31.6766383 10.6004255"></polygon>
                        <polyline id="Stroke-54" stroke="#FEFEFE" stroke-width="0.5" points="30.9251489 14.9040426 32.0583404 14.9040426 32.4642979 12.6176596 32.4802553 12.5291489 32.5042979 12.4408511 32.5285532 12.3523404 32.5606809 12.2640426 32.6008936 12.1755319 32.6489787 12.0912766 32.7013191 12.0108511 32.7655745 11.9344681 32.8379149 11.8661702 32.9181277 11.8019149 33.0106809 11.7417021 33.1151489 11.6934043 33.2317447 11.6531915 33.3602553 11.6210638 33.5008936 11.5970213 33.6577021 11.5889362 33.7138723 11.5889362 33.746 11.5889362 33.7581277 11.5889362 33.938766 10.5561702 33.8264255 10.5642553 33.7179149 10.576383 33.6174894 10.596383 33.5208936 10.6244681 33.4325957 10.6565957 33.3481277 10.6968085 33.2679149 10.7410638 33.1915319 10.7893617 33.1191915 10.8455319 33.0508936 10.9019149 32.9866383 10.9661702 32.9221702 11.0304255 32.8619574 11.0987234 32.8017447 11.1751064 32.7415319 11.2474468 32.6851489 11.3276596 32.8057872 10.6004255 31.6766383 10.6004255 30.9251489 14.9040426"></polyline>
                        <polygon id="Fill-55" fill="#FEFEFE" points="20.2845532 14.9040426 21.4177447 14.9040426 21.4377447 14.9040426 21.8234894 12.6176596 21.8396596 12.5291489 21.8596596 12.4448936 21.8798723 12.3604255 21.9079574 12.28 21.9400851 12.1997872 21.9802979 12.1234043 22.0285957 12.0510638 22.084766 11.982766 22.1490213 11.9223404 22.2213617 11.8621277 22.3098723 11.8140426 22.4062553 11.7697872 22.5188085 11.733617 22.6432766 11.7014894 22.7798723 11.6812766 22.9366809 11.6693617 22.9485957 11.6693617 22.964766 11.6734043 22.9849787 11.677234 23.0049787 11.677234 23.0249787 11.6812766 23.0411489 11.6853191 23.0530638 11.6893617 23.0571064 11.6893617 23.0611489 11.6734043 23.0732766 11.6251064 23.089234 11.552766 23.1094468 11.4642553 23.1375319 11.3597872 23.165617 11.2474468 23.2017872 11.1348936 23.2379574 11.0223404 23.2700851 10.9459574 23.3102979 10.8695745 23.3505106 10.7934043 23.3907234 10.7248936 23.4268936 10.6646809 23.4549787 10.6165957 23.4751915 10.5882979 23.4830638 10.576383 23.479234 10.576383 23.4630638 10.5723404 23.4428511 10.5682979 23.414766 10.5642553 23.3866809 10.5642553 23.3545532 10.5602128 23.3264681 10.5561702 23.298383 10.5561702 23.1737021 10.5642553 23.0611489 10.576383 22.9566809 10.596383 22.8602979 10.6206383 22.7679574 10.652766 22.6834894 10.692766 22.6071064 10.7329787 22.534766 10.7812766 22.4664681 10.8334043 22.4022128 10.8938298 22.342 10.9540426 22.2815745 11.0223404 22.2213617 11.0906383 22.1651915 11.1670213 22.1049787 11.2474468 22.0445532 11.3276596 22.189234 10.6004255 21.0360426 10.6004255"></polygon>
                        <polyline id="Stroke-56" stroke="#FEFEFE" stroke-width="0.5" points="20.2845532 14.9040426 21.4177447 14.9040426 21.4377447 14.9040426 21.8234894 12.6176596 21.8396596 12.5291489 21.8596596 12.4448936 21.8798723 12.3604255 21.9079574 12.28 21.9400851 12.1997872 21.9802979 12.1234043 22.0285957 12.0510638 22.084766 11.982766 22.1490213 11.9223404 22.2213617 11.8621277 22.3098723 11.8140426 22.4062553 11.7697872 22.5188085 11.733617 22.6432766 11.7014894 22.7798723 11.6812766 22.9366809 11.6693617 22.9485957 11.6693617 22.964766 11.6734043 22.9849787 11.677234 23.0049787 11.677234 23.0249787 11.6812766 23.0411489 11.6853191 23.0530638 11.6893617 23.0571064 11.6893617 23.0611489 11.6734043 23.0732766 11.6251064 23.089234 11.552766 23.1094468 11.4642553 23.1375319 11.3597872 23.165617 11.2474468 23.2017872 11.1348936 23.2379574 11.0223404 23.2700851 10.9459574 23.3102979 10.8695745 23.3505106 10.7934043 23.3907234 10.7248936 23.4268936 10.6646809 23.4549787 10.6165957 23.4751915 10.5882979 23.4830638 10.576383 23.479234 10.576383 23.4630638 10.5723404 23.4428511 10.5682979 23.414766 10.5642553 23.3866809 10.5642553 23.3545532 10.5602128 23.3264681 10.5561702 23.298383 10.5561702 23.1737021 10.5642553 23.0611489 10.576383 22.9566809 10.596383 22.8602979 10.6206383 22.7679574 10.652766 22.6834894 10.692766 22.6071064 10.7329787 22.534766 10.7812766 22.4664681 10.8334043 22.4022128 10.8938298 22.342 10.9540426 22.2815745 11.0223404 22.2213617 11.0906383 22.1651915 11.1670213 22.1049787 11.2474468 22.0445532 11.3276596 22.189234 10.6004255 21.0360426 10.6004255 20.2845532 14.9040426"></polyline>
                        <polygon id="Fill-62" fill="#FBB230" points="37.9250851 19.219766 37.9250851 19.2318936 37.9372128 19.3482766 37.9693404 19.4567872 38.0255106 19.553383 38.0938085 19.6376383 38.1782766 19.7059362 38.2746596 19.754234 38.3791277 19.7863617 38.4916809 19.7984894 38.604234 19.7863617 38.7087021 19.754234 38.8050851 19.7059362 38.8895532 19.6376383 38.9578511 19.553383 39.0140213 19.4567872 39.0461489 19.3482766 39.0582766 19.2318936 39.0582766 19.219766 38.9376383 19.219766 38.9376383 19.2318936 38.9295532 19.3282766 38.9055106 19.4165745 38.8652979 19.4929574 38.8131702 19.5612553 38.7489149 19.6176383 38.6725319 19.6616809 38.5840213 19.689766 38.4916809 19.6978511 38.3993404 19.689766 38.3108298 19.6616809 38.2344468 19.6176383 38.1701915 19.5612553 38.1180638 19.4929574 38.0778511 19.4165745 38.0535957 19.3282766 38.0457234 19.2318936 38.0457234 19.219766"></polygon>
                    </g>
                </g>
            </g>
        </g>
    </g>
</svg>