<?xml version="1.0" encoding="UTF-8"?>
<svg width="112px" height="112px" viewBox="0 0 112 112" version="1.1" xmlns="http://www.w3.org/2000/svg" xmlns:xlink="http://www.w3.org/1999/xlink">
    <!-- Generator: Sketch 47.1 (45422) - http://www.bohemiancoding.com/sketch -->
    <title>verify-email</title>
    <desc>Created with Sketch.</desc>
    <defs></defs>
    <g id="popups" stroke="none" stroke-width="1" fill="none" fill-rule="evenodd">
        <g id="Profile-account-verification" transform="translate(-664.000000, -168.000000)">
            <g id="Group-2" transform="translate(385.000000, 103.500000)">
                <g id="verify-email" transform="translate(280.000000, 65.500000)">
                    <circle id="Oval" stroke="#28A8E0" fill="#28A8E0" cx="55" cy="55" r="55"></circle>
                    <g id="mail" transform="translate(30.000000, 38.500000)" fill-rule="nonzero" fill="#FFFFFF">
                        <path d="M44.7916667,0 L5.20833333,0 C2.3375,0 0,2.3491875 0,5.234375 L0,28.265625 C0,31.1508125 2.3375,33.5 5.20833333,33.5 L44.7916667,33.5 C47.6625,33.5 50,31.1508125 50,28.265625 L50,5.234375 C50,2.3491875 47.6625,0 44.7916667,0 Z M18.375,18.600875 L5.875,29.069625 C5.68125,29.2329375 5.44375,29.3125 5.20833333,29.3125 C4.90833333,29.3125 4.6125,29.1847812 4.40625,28.935625 C4.0375,28.49175 4.09791667,27.830125 4.53958333,27.4595312 L17.0395833,16.9907813 C17.48125,16.6222813 18.1395833,16.683 18.5083333,17.1247813 C18.8770833,17.57075 18.8166667,18.232375 18.375,18.600875 Z M25,18.8793437 C23.8541667,18.8793437 22.70625,18.5359687 21.70625,17.847125 L4.62083333,6.09909375 C4.14583333,5.77246875 4.025,5.1213125 4.34791667,4.6439375 C4.67083333,4.1665625 5.31875,4.04303125 5.79583333,4.37175 L22.88125,16.1197812 C24.1666667,17.0033437 25.8291667,17.0033437 27.1166667,16.1197812 L44.2020833,4.37175 C44.6791667,4.04721875 45.3270833,4.1665625 45.65,4.6439375 C45.975,5.1213125 45.8541667,5.77246875 45.3791667,6.09909375 L28.29375,17.847125 C27.29375,18.5359687 26.1458333,18.8793437 25,18.8793437 Z M45.5916667,28.935625 C45.3854167,29.1847813 45.0895833,29.3125 44.7916667,29.3125 C44.55625,29.3125 44.3208333,29.2329375 44.125,29.069625 L31.625,18.600875 C31.1833333,18.2302813 31.1229167,17.57075 31.4916667,17.1247813 C31.8604167,16.683 32.5166667,16.6222813 32.9604167,16.9907813 L45.4604167,27.4595313 C45.9,27.830125 45.9604167,28.49175 45.5916667,28.935625 Z" id="Shape"></path>
                    </g>
                </g>
            </g>
        </g>
    </g>
</svg>