<?xml version="1.0" encoding="UTF-8"?>
<svg width="70px" height="70px" viewBox="0 0 70 70" version="1.1" xmlns="http://www.w3.org/2000/svg" xmlns:xlink="http://www.w3.org/1999/xlink">
    <!-- Generator: Sketch 47.1 (45422) - http://www.bohemiancoding.com/sketch -->
    <title>video-play</title>
    <desc>Created with Sketch.</desc>
    <defs></defs>
    <g id="popups" stroke="none" stroke-width="1" fill="none" fill-rule="evenodd">
        <g id="photo-video-uploader" transform="translate(-579.000000, -1419.000000)">
            <g id="edit-photo" transform="translate(385.000000, 1114.000000)">
                <g id="video-play" transform="translate(194.000000, 305.000000)">
                    <circle id="Oval" fill-opacity="0.9" fill="#252525" cx="35" cy="35" r="35"></circle>
                    <path d="M29.0000539,43.1035937 L29.0000539,26.625819 C29.0000539,26.2222979 29.2170228,25.8535631 29.5753202,25.6597537 C29.9445655,25.4301641 30.4113474,25.450042 30.7606873,25.7064667 L43.4742722,33.9210037 C43.8156499,34.1118314 44.0176898,34.4805662 43.9987797,34.8721606 C44.0067419,35.2647489 43.8076878,35.6334837 43.4742722,35.8392198 L30.7606873,44.0269216 C30.5785528,44.1511584 30.3685507,44.2257005 30.1466054,44.24856 C29.9405844,44.2604868 29.7385445,44.1978714 29.5713391,44.0776102 C29.2130417,43.8838008 28.9960728,43.5071148 29.0000539,43.1035937 Z" id="Page-1-Copy-33" fill="#FFFFFF" transform="translate(36.500000, 34.875000) rotate(-360.000000) translate(-36.500000, -34.875000) "></path>
                </g>
            </g>
        </g>
    </g>
</svg>