<?xml version="1.0" encoding="UTF-8"?>
<svg width="116px" height="20px" viewBox="0 0 116 20" version="1.1" xmlns="http://www.w3.org/2000/svg" xmlns:xlink="http://www.w3.org/1999/xlink">
    <!-- Generator: Sketch 43.2 (39069) - http://www.bohemiancoding.com/sketch -->
    <title>Group 58</title>
    <desc>Created with Sketch.</desc>
    <defs></defs>
    <g id="Website" stroke="none" stroke-width="1" fill="none" fill-rule="evenodd">
        <g id="Landing" transform="translate(-40.000000, -20.000000)">
            <g id="header">
                <g id="Group-58" transform="translate(40.000000, 20.000000)">
                    <g id="Page-1" transform="translate(0.500000, 0.000000)">
                        <g id="Group-3" transform="translate(0.000000, 0.304967)">
                            <path d="M11.500006,9.74995955 C11.500006,12.9256189 8.92561891,15.4999191 5.75004641,15.4999191 C2.57438706,15.4999191 0,12.9256189 0,9.74995955 C0,6.57430019 2.57438706,4 5.75004641,4 C8.92561891,4 11.500006,6.57430019 11.500006,9.74995955" id="Fill-1" fill="#ED592A"></path>
                            <path d="M35.2243832,9.61219161 C35.2243832,14.9208823 30.9208823,19.2243832 25.6121916,19.2243832 C20.303501,19.2243832 16,14.9208823 16,9.61219161 C16,4.30350096 20.303501,0 25.6121916,0 C30.9208823,0 35.2243832,4.30350096 35.2243832,9.61219161" id="Fill-4" fill="#2AA7DF"></path>
                        </g>
                    </g>
                    <g id="Page-1" transform="translate(46.000000, 0.000000)" fill="#454545">
                        <path d="M63.5981903,18.2674757 C62.4503142,19.2957942 61.3186991,19.5556615 60.8523938,19.6208606 L60.2634336,17.4344447 C60.775115,17.3065243 61.3194735,17.0465022 61.8001814,16.7005288 C62.3481018,16.34325 62.9240531,15.6813473 63.2670841,15.0154181 C63.3939204,14.7874535 63.445646,14.6437367 63.445646,14.5192235 C63.445646,14.4139137 63.4278363,14.2574978 63.2910885,13.9838473 L59.4480575,4.33375885 L62.2937434,4.33375885 L64.1950487,9.97294027 C64.4389646,10.7042235 64.6663097,11.5770553 64.7804469,12.0322102 L64.7877257,12.061635 L64.9120841,12.061635 L64.9201372,12.0334491 C65.0093407,11.7212367 65.1028805,11.368604 65.2018407,10.995219 C65.2941416,10.6472323 65.3895398,10.2874757 65.4846283,9.94986504 L67.1260664,4.33375885 L69.9068628,4.33375885 L67.2779912,11.4886261 C65.8420619,15.3891128 64.8792522,17.1629624 63.5981903,18.2674757 Z" id="Fill-1"></path>
                        <path d="M8.96514159,7.46731195 C8.44416814,6.96801991 7.40222124,6.23007743 5.96954425,6.23007743 C3.82045133,6.23007743 2.38777434,7.87972345 2.38777434,10.0288164 C2.38777434,12.1995907 3.95069469,13.871073 6.05626991,13.871073 C7.51062832,13.871073 8.53089381,13.0459403 9.00850442,12.6120022 L9.68140265,14.5656527 C9.11706637,15.0649447 7.81463274,15.9764934 5.92602655,15.9764934 C2.47465487,15.9764934 3.09734514e-05,13.4368252 3.09734514e-05,10.0288164 C3.09734514e-05,6.64248894 2.53969912,4.08098451 5.90434513,4.08098451 C7.77126991,4.08098451 9.03018584,4.90580752 9.68140265,5.47014381 L8.96514159,7.46731195 Z" id="Fill-3"></path>
                        <polygon id="Fill-5" points="11.5699779 15.6944027 13.9360398 15.6944027 13.9360398 0 11.5699779 0"></polygon>
                        <path d="M20.665177,14.0880265 C22.0544912,14.0880265 23.0529204,13.3065664 23.0529204,12.1343761 C23.0529204,10.9405044 22.0761726,10.1807257 20.6434956,10.1807257 C19.2106637,10.1807257 18.2555973,11.0055487 18.2555973,12.1343761 C18.2555973,13.2632035 19.2325,14.0880265 20.665177,14.0880265 M20.2744469,8.46572566 C21.5768805,8.46572566 22.5536283,8.89997345 22.9878761,9.29070354 L22.9878761,8.22692035 C22.9878761,6.92464159 22.0761726,6.14302655 20.5782965,6.14302655 C19.3193805,6.14302655 18.2339159,6.57727434 17.4090929,7.03304867 L16.4973894,5.38340265 C17.4090929,4.79738496 18.9286504,4.08096903 20.8171018,4.08096903 C24.1817478,4.08096903 25.3322566,5.90437611 25.3322566,8.379 L25.3322566,15.6943097 L23.2700442,15.6943097 L23.0746018,14.8478053 C22.4885841,15.4988673 21.5768805,15.9764779 20.165885,15.9764779 C17.7779867,15.9764779 15.8895354,14.4786018 15.8895354,12.1995752 C15.8895354,10.0069646 17.6695796,8.46572566 20.2744469,8.46572566" id="Fill-7"></path>
                        <path d="M28.5014757,12.5467721 C29.0224491,13.3065509 29.8039093,14.0228119 31.2149049,14.0228119 C32.2133341,14.0228119 32.9514314,13.5236748 32.9514314,12.6119712 C32.9514314,10.4411969 27.4378473,11.2226571 27.4378473,7.29367478 C27.4378473,5.2966615 29.1310111,4.08095354 31.3234668,4.08095354 C33.4507235,4.08095354 34.5795509,5.31818805 35.0136438,6.18668363 L33.3856792,7.2718385 C33.0599934,6.75086504 32.4521394,6.01292257 31.1932235,6.01292257 C30.3248827,6.01292257 29.6736659,6.4686969 29.6736659,7.25031195 C29.6736659,9.42093142 35.2090863,8.50922788 35.2090863,12.5034093 C35.2090863,14.6089845 33.429042,15.9764624 31.1063429,15.9764624 C28.8053252,15.9764624 27.5897721,14.7392279 27.0254358,13.7189624 L28.5014757,12.5467721 Z" id="Fill-8"></path>
                        <path d="M45.3463872,7.46731195 C44.8255686,6.96801991 43.7834668,6.23007743 42.350635,6.23007743 C40.2016969,6.23007743 38.7690199,7.87972345 38.7690199,10.0288164 C38.7690199,12.1995907 40.3319403,13.871073 42.4375155,13.871073 C43.8920288,13.871073 44.9122942,13.0459403 45.3895951,12.6120022 L46.0626482,14.5656527 C45.4981571,15.0649447 44.1957235,15.9764934 42.307427,15.9764934 C38.8559004,15.9764934 36.3812765,13.4368252 36.3812765,10.0288164 C36.3812765,6.64248894 38.9209447,4.08098451 42.2855907,4.08098451 C44.1525155,4.08098451 45.4114314,4.90580752 46.0626482,5.47014381 L45.3463872,7.46731195 Z" id="Fill-9"></path>
                        <path d="M47.9512389,15.6944027 L50.317146,15.6944027 L50.317146,4.36323009 L47.9512389,4.36323009 L47.9512389,15.6944027 Z M49.1234292,0.0867256637 C49.9482522,0.0867256637 50.599469,0.737942478 50.599469,1.56276549 C50.599469,2.38789823 49.9482522,3.03911504 49.1234292,3.03911504 C48.2986062,3.03911504 47.6473894,2.38789823 47.6473894,1.56276549 C47.6473894,0.737942478 48.2986062,0.0867256637 49.1234292,0.0867256637 L49.1234292,0.0867256637 Z" id="Fill-10"></path>
                        <path d="M53.1608341,1.99704425 L55.5053695,1.99704425 L55.5053695,4.36310619 L57.8062323,4.36310619 L57.8062323,6.3169115 L55.5053695,6.3169115 L55.5053695,11.5916903 C55.5053695,13.3500531 56.177958,13.7406283 57.4371836,13.7406283 C57.6326261,13.7406283 57.8931128,13.7189469 57.8931128,13.7189469 L57.8931128,15.7594779 C57.8931128,15.7594779 57.4805465,15.8463584 56.7424491,15.8463584 C53.9856571,15.8463584 53.1608341,14.0012699 53.1608341,11.2226416 L53.1608341,6.3169115 L51.9016084,6.3169115 L51.9016084,4.36310619 L53.1608341,4.36310619 L53.1608341,1.99704425 Z" id="Fill-11"></path>
                    </g>
                </g>
            </g>
        </g>
    </g>
</svg>