<?xml version="1.0" encoding="UTF-8"?>
<svg width="6px" height="10px" viewBox="0 0 6 10" version="1.1" xmlns="http://www.w3.org/2000/svg" xmlns:xlink="http://www.w3.org/1999/xlink">
    <!-- Generator: Sketch 43.2 (39069) - http://www.bohemiancoding.com/sketch -->
    <title>Shape</title>
    <desc>Created with Sketch.</desc>
    <defs></defs>
    <g id="Website" stroke="none" stroke-width="1" fill="none" fill-rule="evenodd">
        <g id="Landing" transform="translate(-889.000000, -4179.000000)" fill-rule="nonzero" fill="#9B9B9B">
            <g id="footer" transform="translate(-28.500000, 3961.000000)">
                <g id="Group-12" transform="translate(873.000000, 210.500000)">
                    <g id="Group-10" transform="translate(35.000000, 0.000000)">
                        <g id="facebook.3" transform="translate(10.000000, 7.500000)">
                            <g id="Layer_1">
                                <path d="M3.95833333,1.66666667 L5.20833333,1.66666667 C5.32333333,1.66666667 5.41666667,1.57333333 5.41666667,1.45833333 L5.41666667,0.208333333 C5.41666667,0.0933333333 5.32333333,0 5.20833333,0 L3.95833333,0 C2.695,0 1.66666667,1.02791667 1.66666667,2.29166667 L1.66666667,3.75 L0.208333333,3.75 C0.0933333333,3.75 0,3.84333333 0,3.95833333 L0,5.20833333 C0,5.32333333 0.0933333333,5.41666667 0.208333333,5.41666667 L1.66666667,5.41666667 L1.66666667,9.79166667 C1.66666667,9.90666667 1.76,10 1.875,10 L3.125,10 C3.24,10 3.33333333,9.90666667 3.33333333,9.79166667 L3.33333333,5.41666667 L4.79166667,5.41666667 C4.88125,5.41666667 4.96083333,5.35916667 4.98958333,5.27416667 L5.40625,4.02416667 C5.4275,3.96083333 5.41666667,3.89083333 5.3775,3.83625 C5.33791667,3.78208333 5.27541667,3.75 5.20833333,3.75 L3.33333333,3.75 L3.33333333,2.29166667 C3.33333333,1.94708333 3.61375,1.66666667 3.95833333,1.66666667 Z" id="Shape"></path>
                            </g>
                        </g>
                    </g>
                </g>
            </g>
        </g>
    </g>
</svg>