<?xml version="1.0" encoding="UTF-8"?>
<svg width="14px" height="14px" viewBox="0 0 14 14" version="1.1" xmlns="http://www.w3.org/2000/svg" xmlns:xlink="http://www.w3.org/1999/xlink">
    <!-- Generator: Sketch 43.2 (39069) - http://www.bohemiancoding.com/sketch -->
    <title>search-app.1.1</title>
    <desc>Created with Sketch.</desc>
    <defs></defs>
    <g id="Website" stroke="none" stroke-width="1" fill="none" fill-rule="evenodd">
        <g id="Landing" transform="translate(-418.000000, -299.000000)" fill-rule="nonzero" fill="#454545">
            <g id="Group-8" transform="translate(371.500000, 163.500000)">
                <g id="search-app.1.1" transform="translate(46.500000, 135.500000)">
                    <path d="M13.8424909,13.0821394 L10.4715272,9.71117564 C11.3298844,8.68373175 11.8468373,7.36334789 11.8468373,5.92341866 C11.8468373,2.6579995 9.1899148,0 5.92341866,0 C2.65692251,0 0,2.65907649 0,5.92341866 C0,9.18776083 2.65692251,11.8468373 5.92341866,11.8468373 C7.3622709,11.8468373 8.68265477,11.3298844 9.71009866,10.4726042 L13.0810624,13.8435679 C13.1866069,13.9480355 13.324461,14.0008077 13.4623151,14.0008077 C13.6001692,14.0008077 13.7380233,13.9480355 13.8424909,13.8435679 C14.052503,13.6335558 14.052503,13.2921515 13.8424909,13.0821394 Z M9.45916111,9.21576245 C9.40638883,9.24161009 9.35577053,9.26961171 9.31161413,9.3137681 C9.26853472,9.35684751 9.23945612,9.4085428 9.21360848,9.46023809 C8.34878935,10.265823 7.19749216,10.7698521 5.92341866,10.7698521 C3.25141835,10.7698521 1.07698521,8.59541897 1.07698521,5.92341866 C1.07698521,3.25141835 3.25141835,1.07698521 5.92341866,1.07698521 C8.59541897,1.07698521 10.7698521,3.25141835 10.7698521,5.92341866 C10.7698521,7.19749216 10.265823,8.34986634 9.45916111,9.21576245 Z" id="Shape"></path>
                </g>
            </g>
        </g>
    </g>
</svg>