<?xml version="1.0" encoding="UTF-8"?>
<svg width="8px" height="6px" viewBox="0 0 8 6" version="1.1" xmlns="http://www.w3.org/2000/svg" xmlns:xlink="http://www.w3.org/1999/xlink">
    <!-- Generator: Sketch 46.2 (44496) - http://www.bohemiancoding.com/sketch -->
    <title>Combined Shape</title>
    <desc>Created with Sketch.</desc>
    <defs></defs>
    <g id="Website" stroke="none" stroke-width="1" fill="none" fill-rule="evenodd">
        <g id="Profile-dashboard" transform="translate(-185.000000, -1115.000000)" fill="#C7C7C7">
            <g id="Group-4" transform="translate(185.000000, 1115.500000)">
                <path d="M1.5,3.5 L1.5,0.759392381 C1.5,0.328063965 1.16421356,0 0.75,0 C0.332898617,0 0,0.33999155 0,0.759392381 L0,4.24060762 C0,4.24217566 4.43773589e-06,4.24374234 1.33008428e-05,4.24530764 C4.92300671e-06,4.24686605 4.6020239e-17,4.24843246 4.5924255e-17,4.25 C3.31807584e-17,4.45811709 0.0838900036,4.64527093 0.219588629,4.78056804 C0.358116186,4.91917031 0.544396502,5 0.75,5 C0.750436946,5 0.750873799,4.99999963 0.751310559,4.99999888 C0.751746795,4.99999963 0.752183643,5 0.752620578,5 L7.24737942,5 C7.65625,5 8,4.66421356 8,4.25 C8,3.83289862 7.66304029,3.5 7.24737942,3.5 L1.5,3.5 Z" id="Combined-Shape"></path>
            </g>
        </g>
    </g>
</svg>