<?xml version="1.0" encoding="UTF-8"?>
<svg width="10px" height="9px" viewBox="0 0 10 9" version="1.1" xmlns="http://www.w3.org/2000/svg" xmlns:xlink="http://www.w3.org/1999/xlink">
    <!-- Generator: Sketch 43.2 (39069) - http://www.bohemiancoding.com/sketch -->
    <title>Shape</title>
    <desc>Created with Sketch.</desc>
    <defs></defs>
    <g id="Website" stroke="none" stroke-width="1" fill="none" fill-rule="evenodd">
        <g id="Landing" transform="translate(-852.000000, -4180.000000)" fill-rule="nonzero" fill="#9B9B9B">
            <g id="footer" transform="translate(-28.500000, 3961.000000)">
                <g id="Group-12" transform="translate(873.000000, 210.500000)">
                    <g id="Group-11">
                        <g id="twitter.3" transform="translate(7.500000, 9.000000)">
                            <g id="Layer_1">
                                <path d="M9.52903096,0.958773436 C9.46569762,0.889190103 9.36361429,0.871690103 9.27986429,0.914606769 C9.22778096,0.941273436 9.12986429,0.976273436 9.01361429,1.01085677 C9.16028096,0.815856769 9.27819762,0.597523436 9.33028096,0.401273436 C9.35278096,0.316690103 9.31986429,0.227523436 9.24819762,0.177106769 C9.17653096,0.127106769 9.08111429,0.127106769 9.00944762,0.177106769 C8.89653096,0.255856769 8.35153096,0.492523436 8.00694762,0.569190103 C7.22819762,-0.112893231 6.32194762,-0.183726564 5.37986429,0.366273436 C4.61403096,0.813356769 4.44736429,1.72252344 4.47986429,2.2766901 C2.72694762,2.1079401 1.63736429,1.18210677 1.02403096,0.415856769 C0.981114289,0.362106769 0.911947623,0.333773436 0.846947623,0.337940103 C0.778614289,0.342940103 0.716947623,0.380856769 0.681947623,0.439606769 C0.391947623,0.929190103 0.311530956,1.4704401 0.450280956,2.00502344 C0.526114289,2.2966901 0.658614289,2.55377344 0.812364289,2.76210677 C0.738614289,2.72585677 0.667364289,2.6804401 0.600280956,2.62627344 C0.538614289,2.5754401 0.452364289,2.56585677 0.379447623,2.59960677 C0.306947623,2.6341901 0.260697623,2.70752344 0.260697623,2.7879401 C0.260697623,3.70585677 0.834864289,4.31835677 1.37111429,4.63835677 C1.28444762,4.6279401 1.19403096,4.60877344 1.10278096,4.58085677 C1.02444762,4.55710677 0.939447623,4.58085677 0.885280956,4.64252344 C0.831114289,4.70377344 0.818197623,4.79127344 0.851947623,4.86585677 C1.15319762,5.53210677 1.72403096,5.9904401 2.43028096,6.1566901 C1.81361429,6.51877344 0.988197623,6.69627344 0.232364289,6.6091901 C0.134447623,6.5954401 0.0411142892,6.65752344 0.0102809559,6.7516901 C-0.0205523775,6.84585677 0.0198642892,6.9491901 0.106114289,6.99752344 C1.25278096,7.64127344 2.28944762,7.87127344 3.18528096,7.87127344 C4.48903096,7.87127344 5.49528096,7.38460677 6.10778096,6.97752344 C7.75903096,5.8816901 8.78819762,3.9141901 8.64486429,2.15377344 C8.90944762,1.95835677 9.30528096,1.59752344 9.55069762,1.20960677 C9.60153096,1.13127344 9.59236429,1.0279401 9.52903096,0.958773436 Z" id="Shape"></path>
                            </g>
                        </g>
                    </g>
                </g>
            </g>
        </g>
    </g>
</svg>