<?xml version="1.0" encoding="UTF-8"?>
<svg width="13px" height="13px" viewBox="0 0 13 13" version="1.1" xmlns="http://www.w3.org/2000/svg" xmlns:xlink="http://www.w3.org/1999/xlink">
    <!-- Generator: Sketch 46.1 (44463) - http://www.bohemiancoding.com/sketch -->
    <title>Page 1</title>
    <desc>Created with Sketch.</desc>
    <defs></defs>
    <g id="Website" stroke="none" stroke-width="1" fill="none" fill-rule="evenodd">
        <g id="Onboarding-emaillogin-createclass" transform="translate(-886.000000, -863.000000)" fill="#28A8E0">
            <g id="Group" transform="translate(875.000000, 852.000000)">
                <path d="M17.5,23.5 C17.16876,23.5 16.9,23.23124 16.9,22.9 L16.9,18.1 L12.1,18.1 C11.76876,18.1 11.5,17.83124 11.5,17.5 C11.5,17.16876 11.76876,16.9 12.1,16.9 L16.9,16.9 L16.9,12.1 C16.9,11.76876 17.16876,11.5 17.5,11.5 C17.83124,11.5 18.1,11.76876 18.1,12.1 L18.1,16.9 L22.9,16.9 C23.23124,16.9 23.5,17.16876 23.5,17.5 C23.5,17.83124 23.23124,18.1 22.9,18.1 L18.1,18.1 L18.1,22.9 C18.1,23.23124 17.83124,23.5 17.5,23.5 Z" id="Page-1"></path>
            </g>
        </g>
    </g>
</svg>