<?xml version="1.0" encoding="UTF-8"?>
<svg width="15px" height="15px" viewBox="0 0 15 15" version="1.1" xmlns="http://www.w3.org/2000/svg" xmlns:xlink="http://www.w3.org/1999/xlink">
    <!-- Generator: Sketch 46.2 (44496) - http://www.bohemiancoding.com/sketch -->
    <title>Group 11</title>
    <desc>Created with Sketch.</desc>
    <defs></defs>
    <g id="Website" stroke="none" stroke-width="1" fill="none" fill-rule="evenodd">
        <g id="Onboarding-emaillogin-createclass" transform="translate(-286.000000, -780.000000)" fill="#C7C7C7">
            <g id="Group-9" transform="translate(286.000000, 780.000000)">
                <g id="Group-11">
                    <path d="M7.5,0 C3.35805,0 0,3.35805 0,7.5 C0,11.64195 3.35805,15 7.5,15 C11.64195,15 15,11.64195 15,7.5 C15,3.35805 11.64195,0 7.5,0 Z M7.5,1.02246 C3.9228,1.02246 1.0224003,3.92286 1.0224003,7.50006 C1.0224003,11.07726 3.9228,13.9776594 7.5,13.9776594 C11.0772,13.9776594 13.9776,11.07726 13.9776,7.50006 C13.9776,3.92286 11.0772,1.02246 7.5,1.02246 Z" id="Fill-1"></path>
                    <path d="M7.66155441,6.5 C7.94397441,6.5 8.17308441,6.78242 8.17308441,7.01153 L8.17308441,10.07948 C8.17308441,10.3619 7.94398941,10.59101 7.66155441,10.59101 C7.37911941,10.59101 7.15002441,10.30859 7.15002441,10.07948 L7.15002441,7.01153 C7.15002441,6.72911 7.37911941,6.5 7.66155441,6.5 Z" id="Fill-2"></path>
                    <path d="M8.36407,5.1815925 C8.36407,6.0909675 7,6.0909675 7,5.1815925 C7,4.2728025 8.36407,4.2728025 8.36407,5.1815925" id="Fill-3"></path>
                </g>
            </g>
        </g>
    </g>
</svg>