<?xml version="1.0" encoding="UTF-8"?>
<svg width="7px" height="7px" viewBox="0 0 7 7" version="1.1" xmlns="http://www.w3.org/2000/svg" xmlns:xlink="http://www.w3.org/1999/xlink">
    <!-- Generator: Sketch 45.2 (43514) - http://www.bohemiancoding.com/sketch -->
    <title>Page 1</title>
    <desc>Created with Sketch.</desc>
    <defs></defs>
    <g id="Website" stroke="none" stroke-width="1" fill="none" fill-rule="evenodd">
        <g id="Class-detail" transform="translate(-1369.000000, -787.000000)" fill="#28A8E0">
            <g id="Group-13" transform="translate(1365.000000, 783.000000)">
                <path d="M7.5,4.5 C7.25466667,4.5 7.05555556,4.69911111 7.05555556,4.94444444 L7.05555556,7.05555556 L4.94444444,7.05555556 C4.69911111,7.05555556 4.5,7.25466667 4.5,7.5 C4.5,7.74533333 4.69911111,7.94444444 4.94444444,7.94444444 L7.05555556,7.94444444 L7.05555556,10.0555556 C7.05555556,10.3008889 7.25466667,10.5 7.5,10.5 C7.74533333,10.5 7.94444444,10.3008889 7.94444444,10.0555556 L7.94444444,7.94444444 L10.0555556,7.94444444 C10.3008889,7.94444444 10.5,7.74533333 10.5,7.5 C10.5,7.25466667 10.3008889,7.05555556 10.0555556,7.05555556 L7.94444444,7.05555556 L7.94444444,4.94444444 C7.94444444,4.69911111 7.74533333,4.5 7.5,4.5 Z" id="Page-1"></path>
            </g>
        </g>
    </g>
</svg>