<?xml version="1.0" encoding="UTF-8"?>
<svg width="34px" height="37px" viewBox="0 0 34 37" version="1.1" xmlns="http://www.w3.org/2000/svg" xmlns:xlink="http://www.w3.org/1999/xlink">
    <!-- Generator: Sketch 43.2 (39069) - http://www.bohemiancoding.com/sketch -->
    <title>Group 2 Copy 12</title>
    <desc>Created with Sketch.</desc>
    <defs>
        <filter x="-11.7%" y="-7.7%" width="123.3%" height="123.1%" filterUnits="objectBoundingBox" id="filter-1">
            <feOffset dx="0" dy="1" in="SourceAlpha" result="shadowOffsetOuter1"></feOffset>
            <feGaussianBlur stdDeviation="1" in="shadowOffsetOuter1" result="shadowBlurOuter1"></feGaussianBlur>
            <feColorMatrix values="0 0 0 0 0.550010629   0 0 0 0 0.550010629   0 0 0 0 0.550010629  0 0 0 0.5 0" type="matrix" in="shadowBlurOuter1" result="shadowMatrixOuter1"></feColorMatrix>
            <feMerge>
                <feMergeNode in="shadowMatrixOuter1"></feMergeNode>
                <feMergeNode in="SourceGraphic"></feMergeNode>
            </feMerge>
        </filter>
    </defs>
    <g id="Website" stroke="none" stroke-width="1" fill="none" fill-rule="evenodd">
        <g id="Search-a-class" transform="translate(-1208.000000, -530.000000)">
            <g id="Group-2-Copy-12" transform="translate(1210.000000, 531.500000)">
                <g id="Group" filter="url(#filter-1)">
                    <rect id="Rectangle-4" fill="#EE592A" x="0" y="0" width="30" height="30" rx="2.5"></rect>
                    <path d="M12.8121361,12.0549987 L20.5985702,10.1026095 L20.5985702,17.1500475 C20.2194152,16.9914888 19.7456864,16.9119934 19.2551922,16.9119934 C18.9564249,16.9119934 18.3872625,17.0861056 18.0244429,17.2766353 C17.3443712,17.6430053 16.9346947,18.2301478 16.9346947,18.8479651 C16.9346947,19.1819321 17.0756956,19.5465739 17.2820385,19.8014776 C17.551144,20.1034736 17.9758664,20.2620323 18.5450288,20.2620323 C19.2251005,20.2620323 19.9352639,19.9600363 20.5031366,19.4519571 C21.025442,18.9594314 21.2941176,18.3247645 21.2941176,17.5315389 L21.2941176,7.5 L12.1170185,9.73796768 L12.1170185,19.3880152 C11.801056,19.2463061 11.3595683,19.1668107 10.8695039,19.1668107 C10.5685873,19.1668107 10.2530546,19.2294565 9.90528091,19.3728938 C9.03735122,19.7219822 8.5,20.3717705 8.5,21.0872289 C8.5,21.4198998 8.64272048,21.7862698 8.84734383,22.0390132 C9.11601944,22.3414413 9.55793709,22.5 10.1270995,22.5 C11.0590815,22.5 12.2111625,21.8165126 12.5752717,21.023287 C12.7012268,20.7381405 12.8121361,20.182969 12.8121361,19.784628 C12.8121361,19.784628 12.8121361,20.182969 12.8121361,19.784628 L12.8121361,12.0549987 Z" id="Page-1" fill="#FFFFFF"></path>
                    <path d="M13.7727379,33.6025792 L13.7727379,27.8902839 C13.7727379,27.7503966 13.8154742,27.6225685 13.8860479,27.5553813 C13.9587781,27.4757902 14.0507199,27.4826812 14.1195293,27.5715751 L16.6237203,30.4192813 C16.6909614,30.4854349 16.7307571,30.6132629 16.7270324,30.7490157 C16.7286007,30.8851129 16.689393,31.012941 16.6237203,31.0842629 L14.1195293,33.9226661 C14.0836543,33.9657349 14.0422903,33.9915762 13.9985738,33.9995008 C13.9579939,34.0036354 13.9181982,33.9819288 13.8852638,33.9402382 C13.81469,33.8730509 13.7719537,33.7424665 13.7727379,33.6025792 Z" id="Page-1" fill="#EE592A" transform="translate(15.250000, 30.750000) rotate(-270.000000) translate(-15.250000, -30.750000) "></path>
                </g>
            </g>
        </g>
    </g>
</svg>