<?xml version="1.0" encoding="UTF-8"?>
<svg width="34px" height="34px" viewBox="0 0 34 34" version="1.1" xmlns="http://www.w3.org/2000/svg" xmlns:xlink="http://www.w3.org/1999/xlink">
    <!-- Generator: Sketch 43.2 (39069) - http://www.bohemiancoding.com/sketch -->
    <title>45-min</title>
    <desc>Created with Sketch.</desc>
    <defs></defs>
    <g id="Website" stroke="none" stroke-width="1" fill="none" fill-rule="evenodd">
        <g id="Landing" transform="translate(-186.000000, -3038.000000)" fill-rule="nonzero" fill="#454545">
            <g id="Group-16" transform="translate(155.000000, 2838.500000)">
                <g id="45-min" transform="translate(31.000000, 199.500000)">
                    <g id="Group">
                        <path d="M10.4375,6.36291667 C10.1852083,6.36291667 9.94020833,6.233125 9.80458333,5.99833333 L8.34625,3.4725 C8.14645833,3.1225 8.26604167,2.67770833 8.61458333,2.47645833 C8.96166667,2.27520833 9.40791667,2.39333333 9.610625,2.74333333 L11.0689583,5.26916667 C11.2702083,5.61770833 11.150625,6.0625 10.8020833,6.26520833 C10.686875,6.33083333 10.5614583,6.36291667 10.4375,6.36291667 Z" id="Shape"></path>
                        <path d="M25.0208333,31.62125 C24.7685417,31.62125 24.5235417,31.4914583 24.3879167,31.2566667 L22.9295833,28.7308333 C22.7283333,28.3822917 22.8479167,27.9360417 23.1964583,27.7347917 C23.5435417,27.5335417 23.9897917,27.6516667 24.1925,28.0016667 L25.6508333,30.5275 C25.8520833,30.8760417 25.7325,31.3222917 25.3839583,31.5235417 C25.2702083,31.590625 25.1447917,31.62125 25.0208333,31.62125 Z" id="Shape"></path>
                        <path d="M5.63229167,11.1666667 C5.50833333,11.1666667 5.38291667,11.1360417 5.26916667,11.0689583 L2.74333333,9.610625 C2.39333333,9.409375 2.27375,8.963125 2.47645833,8.61458333 C2.67770833,8.26458333 3.12395833,8.145 3.4725,8.34770833 L5.99833333,9.80604167 C6.346875,10.0072917 6.46645833,10.4535417 6.26520833,10.8020833 C6.12958333,11.036875 5.88458333,11.1666667 5.63229167,11.1666667 Z" id="Shape"></path>
                        <path d="M30.8920833,25.75 C30.768125,25.75 30.6427083,25.719375 30.5275,25.6522917 L28.0016667,24.1939583 C27.653125,23.9927083 27.5335417,23.5464583 27.7347917,23.1979167 C27.9360417,22.8479167 28.3822917,22.7283333 28.7308333,22.9310417 L31.2566667,24.389375 C31.6052083,24.590625 31.7247917,25.036875 31.5235417,25.3854167 C31.389375,25.6202083 31.144375,25.75 30.8920833,25.75 Z" id="Shape"></path>
                        <path d="M3.10791667,25.75 C2.855625,25.75 2.610625,25.6202083 2.475,25.3854167 C2.27375,25.036875 2.39333333,24.590625 2.741875,24.389375 L5.26770833,22.9310417 C5.61479167,22.7283333 6.0625,22.8479167 6.26520833,23.1979167 C6.46645833,23.5464583 6.346875,23.9927083 5.99833333,24.1939583 L3.4725,25.6522917 C3.35729167,25.719375 3.231875,25.75 3.10791667,25.75 Z" id="Shape"></path>
                        <path d="M28.3677083,11.1666667 C28.1154167,11.1666667 27.8704167,11.036875 27.7347917,10.8020833 C27.5335417,10.4535417 27.653125,10.0072917 28.0016667,9.80604167 L30.5275,8.34770833 C30.8745833,8.145 31.3208333,8.26458333 31.5235417,8.61458333 C31.7247917,8.963125 31.6052083,9.409375 31.2566667,9.610625 L28.7308333,11.0689583 C28.6170833,11.1360417 28.4916667,11.1666667 28.3677083,11.1666667 Z" id="Shape"></path>
                        <path d="M8.97916667,31.62125 C8.85520833,31.62125 8.72979167,31.590625 8.61458333,31.5235417 C8.26604167,31.3222917 8.14645833,30.8760417 8.34770833,30.5275 L9.80604167,28.0016667 C10.0072917,27.6516667 10.4535417,27.5335417 10.8020833,27.7347917 C11.150625,27.9360417 11.2702083,28.3822917 11.0689583,28.7308333 L9.610625,31.2566667 C9.475,31.4914583 9.23,31.62125 8.97916667,31.62125 Z" id="Shape"></path>
                        <path d="M23.5625,6.36291667 C23.4385417,6.36291667 23.313125,6.33229167 23.1979167,6.26520833 C22.849375,6.06395833 22.7297917,5.61770833 22.9310417,5.26916667 L24.389375,2.74333333 C24.590625,2.39333333 25.036875,2.27520833 25.3854167,2.47645833 C25.7339583,2.67770833 25.8535417,3.12395833 25.6522917,3.4725 L24.1939583,5.99833333 C24.0583333,6.23166667 23.8133333,6.36291667 23.5625,6.36291667 Z" id="Shape"></path>
                        <path d="M17,4.60416667 C16.5975,4.60416667 16.2708333,4.2775 16.2708333,3.875 L16.2708333,0.958333333 C16.2708333,0.555833333 16.5975,0.229166667 17,0.229166667 C17.4025,0.229166667 17.7291667,0.555833333 17.7291667,0.958333333 L17.7291667,3.875 C17.7291667,4.2775 17.4025,4.60416667 17,4.60416667 Z" id="Shape"></path>
                        <path d="M3.875,17.7291667 L0.958333333,17.7291667 C0.555833333,17.7291667 0.229166667,17.4025 0.229166667,17 C0.229166667,16.5975 0.555833333,16.2708333 0.958333333,16.2708333 L3.875,16.2708333 C4.2775,16.2708333 4.60416667,16.5975 4.60416667,17 C4.60416667,17.4025 4.2775,17.7291667 3.875,17.7291667 Z" id="Shape"></path>
                        <path d="M33.0416667,17.7291667 L30.125,17.7291667 C29.7225,17.7291667 29.3958333,17.4025 29.3958333,17 C29.3958333,16.5975 29.7225,16.2708333 30.125,16.2708333 L33.0416667,16.2708333 C33.4441667,16.2708333 33.7708333,16.5975 33.7708333,17 C33.7708333,17.4025 33.4441667,17.7291667 33.0416667,17.7291667 Z" id="Shape"></path>
                        <path d="M17,33.7708333 C16.5975,33.7708333 16.2708333,33.4441667 16.2708333,33.0416667 L16.2708333,30.125 C16.2708333,29.7225 16.5975,29.3958333 17,29.3958333 C17.4025,29.3958333 17.7291667,29.7225 17.7291667,30.125 L17.7291667,33.0416667 C17.7291667,33.4441667 17.4025,33.7708333 17,33.7708333 Z" id="Shape"></path>
                    </g>
                    <path d="M17,33.7708333 C7.75270833,33.7708333 0.229166667,26.2472917 0.229166667,17 C0.229166667,16.5975 0.555833333,16.2708333 0.958333333,16.2708333 L16.2708333,16.2708333 L16.2708333,0.958333333 C16.2708333,0.555833333 16.5975,0.229166667 17,0.229166667 C26.2472917,0.229166667 33.7708333,7.75270833 33.7708333,17 C33.7708333,26.2472917 26.2472917,33.7708333 17,33.7708333 Z M1.705,17.7291667 C2.08708333,25.8360417 8.80125,32.3125 17,32.3125 C25.44375,32.3125 32.3125,25.44375 32.3125,17 C32.3125,8.80125 25.8360417,2.085625 17.7291667,1.705 L17.7291667,17 C17.7291667,17.4025 17.4025,17.7291667 17,17.7291667 L1.705,17.7291667 Z" id="Shape"></path>
                </g>
            </g>
        </g>
    </g>
</svg>