<?xml version="1.0" encoding="UTF-8"?>
<svg width="12px" height="14px" viewBox="0 0 12 14" version="1.1" xmlns="http://www.w3.org/2000/svg" xmlns:xlink="http://www.w3.org/1999/xlink">
    <!-- Generator: Sketch 46 (44423) - http://www.bohemiancoding.com/sketch -->
    <title>files.3</title>
    <desc>Created with Sketch.</desc>
    <defs></defs>
    <g id="Website" stroke="none" stroke-width="1" fill="none" fill-rule="evenodd">
        <g id="Class-detail" transform="translate(-1352.000000, -1026.000000)" fill-rule="nonzero" fill="#454545">
            <g id="Share-social" transform="translate(1095.000000, 905.500000)">
                <g id="Group-12" transform="translate(256.000000, 14.000000)">
                    <g id="files.3" transform="translate(1.500000, 106.500000)">
                        <path d="M9.33333333,0 L4.08333333,0 C4.06991667,0 4.05883333,0.00583333333 4.046,0.00758333333 C4.03316667,0.00933333333 4.0215,0.0116666667 4.00925,0.0151666667 C3.95908333,0.0285833333 3.91241667,0.0501666667 3.87683333,0.08575 L0.377416667,3.58516667 C0.341833333,3.62075 0.32025,3.66683333 0.306833333,3.717 C0.303333333,3.72983333 0.301,3.7415 0.29925,3.75433333 C0.2975,3.76716667 0.291666667,3.77825 0.291666667,3.79166667 L0.291666667,11.9583333 C0.291666667,12.1193333 0.422333333,12.25 0.583333333,12.25 L9.33333333,12.25 C9.49433333,12.25 9.625,12.1193333 9.625,11.9583333 L9.625,0.291666667 C9.625,0.130666667 9.49433333,0 9.33333333,0 Z M3.79166667,0.99575 L3.79166667,3.20833333 C3.79166667,3.36933333 3.661,3.5 3.5,3.5 L1.28741667,3.5 L3.79166667,0.99575 Z" id="Shape"></path>
                        <path d="M11.0833333,1.75 L10.2083333,1.75 L10.2083333,12.5416667 C10.2083333,12.7026667 10.0776667,12.8333333 9.91666667,12.8333333 L2.04166667,12.8333333 L2.04166667,13.7083333 C2.04166667,13.8693333 2.17233333,14 2.33333333,14 L11.0833333,14 C11.2443333,14 11.375,13.8693333 11.375,13.7083333 L11.375,2.04166667 C11.375,1.88066667 11.2443333,1.75 11.0833333,1.75 Z" id="Shape"></path>
                    </g>
                </g>
            </g>
        </g>
    </g>
</svg>