<?xml version="1.0" encoding="UTF-8"?>
<svg width="34px" height="37px" viewBox="0 0 34 37" version="1.1" xmlns="http://www.w3.org/2000/svg" xmlns:xlink="http://www.w3.org/1999/xlink">
    <!-- Generator: Sketch 45.2 (43514) - http://www.bohemiancoding.com/sketch -->
    <title>Group</title>
    <desc>Created with Sketch.</desc>
    <defs>
        <filter x="-11.7%" y="-7.7%" width="123.3%" height="123.1%" filterUnits="objectBoundingBox" id="filter-1">
            <feOffset dx="0" dy="1" in="SourceAlpha" result="shadowOffsetOuter1"></feOffset>
            <feGaussianBlur stdDeviation="1" in="shadowOffsetOuter1" result="shadowBlurOuter1"></feGaussianBlur>
            <feColorMatrix values="0 0 0 0 0.550010629   0 0 0 0 0.550010629   0 0 0 0 0.550010629  0 0 0 0.5 0" type="matrix" in="shadowBlurOuter1" result="shadowMatrixOuter1"></feColorMatrix>
            <feMerge>
                <feMergeNode in="shadowMatrixOuter1"></feMergeNode>
                <feMergeNode in="SourceGraphic"></feMergeNode>
            </feMerge>
        </filter>
    </defs>
    <g id="Website" stroke="none" stroke-width="1" fill="none" fill-rule="evenodd">
        <g id="Landing" transform="translate(-1005.000000, -1181.000000)">
            <g id="Group-2-Copy-19" transform="translate(1007.000000, 1182.000000)">
                <g id="Group" filter="url(#filter-1)">
                    <rect id="Rectangle-4" fill="#28A8E0" x="0" y="0" width="30" height="30" rx="2.5"></rect>
                    <g id="bookmark.2.3" transform="translate(9.000000, 7.500000)" fill-rule="nonzero" fill="#FFFFFF">
                        <g id="Layer_1">
                            <g id="Group">
                                <path d="M11.5,5 L8.25,5 L8.25,9.75 C8.25,10.05 8.05,10.35 7.75,10.45 C7.45,10.55 7.1,10.45 6.9,10.25 L5.9,9.1 C5.8,9 5.6,9 5.5,9.1 L4.5,10.25 C4.3,10.5 3.95,10.55 3.65,10.45 C3.35,10.35 3.15,10.05 3.15,9.75 L3.15,5 L2,5 C1.25,5 0.65,4.7 0.25,4.2 L0.25,13.25 C0.25,14.25 1,15 2,15 L11.5,15 C11.65,15 11.75,14.9 11.75,14.75 L11.75,4.95 C11.65,5 11.6,5 11.5,5 Z" id="Shape"></path>
                                <path d="M4,2.5 C3.85,2.5 3.75,2.6 3.75,2.75 L3.75,9.75 C3.75,9.85 3.8,9.95 3.9,10 C4,10.05 4.1,10 4.2,9.95 L5.75,8.15 L7.3,9.95 C7.35,10 7.4,10.05 7.5,10.05 L7.6,10.05 C7.7,10 7.75,9.9 7.75,9.8 L7.75,2.8 C7.75,2.6 7.65,2.5 7.5,2.5 L4,2.5 Z" id="Shape"></path>
                                <path d="M2,4.5 L3,4.5 C3.15,4.5 3.25,4.4 3.25,4.25 L3.25,2.75 C3.25,2.65 3.25,2.6 3.3,2.5 L2,2.5 C1.85,2.5 1.75,2.4 1.75,2.25 C1.75,2.1 1.85,2 2,2 L4,2 L7.5,2 L11.15,2 C11.2,1.35 11.35,0.75 11.7,0.45 C11.75,0.4 11.8,0.25 11.75,0.2 C11.7,0.05 11.6,0 11.5,0 L2.05,0 C1,0 0.25,0.75 0.25,1.75 L0.25,2.75 C0.25,3.75 1,4.5 2,4.5 Z" id="Shape"></path>
                                <path d="M8.5,4.5 L11.5,4.5 C11.6,4.5 11.7,4.45 11.75,4.35 C11.8,4.25 11.75,4.15 11.7,4.1 C11.4,3.8 11.2,3.15 11.15,2.55 L8.2,2.55 C8.25,2.65 8.25,2.7 8.25,2.8 L8.25,4.3 C8.25,4.4 8.35,4.5 8.5,4.5 Z" id="Shape"></path>
                            </g>
                        </g>
                    </g>
                    <path d="M13.7727379,33.6025792 L13.7727379,27.8902839 C13.7727379,27.7503966 13.8154742,27.6225685 13.8860479,27.5553813 C13.9587781,27.4757902 14.0507199,27.4826812 14.1195293,27.5715751 L16.6237203,30.4192813 C16.6909614,30.4854349 16.7307571,30.6132629 16.7270324,30.7490157 C16.7286007,30.8851129 16.689393,31.012941 16.6237203,31.0842629 L14.1195293,33.9226661 C14.0836543,33.9657349 14.0422903,33.9915762 13.9985738,33.9995008 C13.9579939,34.0036354 13.9181982,33.9819288 13.8852638,33.9402382 C13.81469,33.8730509 13.7719537,33.7424665 13.7727379,33.6025792 Z" id="Page-1" fill="#28A8E0" transform="translate(15.250000, 30.750000) rotate(-270.000000) translate(-15.250000, -30.750000) "></path>
                </g>
            </g>
        </g>
    </g>
</svg>