<?xml version="1.0" encoding="UTF-8"?>
<svg width="39px" height="36px" viewBox="0 0 39 36" version="1.1" xmlns="http://www.w3.org/2000/svg" xmlns:xlink="http://www.w3.org/1999/xlink">
    <!-- Generator: Sketch 43.2 (39069) - http://www.bohemiancoding.com/sketch -->
    <title>Group 22</title>
    <desc>Created with Sketch.</desc>
    <defs></defs>
    <g id="Website" stroke="none" stroke-width="1" fill="none" fill-rule="evenodd">
        <g id="Landing" transform="translate(-298.000000, -3438.000000)" fill-rule="nonzero" fill="#454545">
            <g id="Group-20" transform="translate(270.000000, 3402.000000)">
                <g id="Group-29" transform="translate(0.000000, 6.000000)">
                    <g id="Group-22" transform="translate(28.500000, 30.000000)">
                        <path d="M30.0208333,16.0416667 C25.5991667,16.0416667 22,12.4439583 22,8.02083333 C22,3.59770833 25.5991667,0 30.0208333,0 C34.4425,0 38.0416667,3.59770833 38.0416667,8.02083333 C38.0416667,12.4439583 34.4425,16.0416667 30.0208333,16.0416667 Z M30.0208333,1.45833333 C26.4027083,1.45833333 23.4583333,4.40270833 23.4583333,8.02083333 C23.4583333,11.6389583 26.4027083,14.5833333 30.0208333,14.5833333 C33.6389583,14.5833333 36.5833333,11.6389583 36.5833333,8.02083333 C36.5833333,4.40270833 33.6389583,1.45833333 30.0208333,1.45833333 Z" id="Shape"></path>
                        <path d="M8.02083333,35.0416667 C3.59916667,35.0416667 0,31.4439583 0,27.0208333 C0,22.5977083 3.59916667,19 8.02083333,19 C12.4425,19 16.0416667,22.5977083 16.0416667,27.0208333 C16.0416667,31.4439583 12.4425,35.0416667 8.02083333,35.0416667 Z M8.02083333,20.4583333 C4.40270833,20.4583333 1.45833333,23.4027083 1.45833333,27.0208333 C1.45833333,30.6389583 4.40270833,33.5833333 8.02083333,33.5833333 C11.6389583,33.5833333 14.5833333,30.6389583 14.5833333,27.0208333 C14.5833333,23.4027083 11.6389583,20.4583333 8.02083333,20.4583333 Z" id="Shape-Copy"></path>
                        <path d="M13.4375,13.6666667 C13.2508333,13.6666667 13.0641667,13.5952083 12.92125,13.45375 L2.71291667,3.24541667 C2.42854167,2.96104167 2.42854167,2.49875 2.71291667,2.214375 C2.99729167,1.93 3.45958333,1.93 3.74395833,2.214375 L13.9522917,12.4227083 C14.2366667,12.7070833 14.2366667,13.169375 13.9522917,13.45375 C13.8108333,13.5952083 13.6241667,13.6666667 13.4375,13.6666667 Z" id="Shape"></path>
                        <path d="M3.22916667,13.6666667 C3.0425,13.6666667 2.85583333,13.5952083 2.71291667,13.45375 C2.42854167,13.169375 2.42854167,12.7070833 2.71291667,12.4227083 L12.92125,2.214375 C13.205625,1.93 13.6679167,1.93 13.9522917,2.214375 C14.2366667,2.49875 14.2366667,2.96104167 13.9522917,3.24541667 L3.74395833,13.45375 C3.6025,13.5952083 3.41583333,13.6666667 3.22916667,13.6666667 Z" id="Shape"></path>
                        <path d="M35.3125,33.0416667 C35.1258333,33.0416667 34.9391667,32.9702083 34.79625,32.82875 L24.5879167,22.6204167 C24.3035417,22.3360417 24.3035417,21.87375 24.5879167,21.589375 C24.8722917,21.305 25.3345833,21.305 25.6189583,21.589375 L35.8272917,31.7977083 C36.1116667,32.0820833 36.1116667,32.544375 35.8272917,32.82875 C35.6858333,32.9702083 35.4991667,33.0416667 35.3125,33.0416667 Z" id="Shape"></path>
                        <path d="M25.1041667,33.0416667 C24.9175,33.0416667 24.7308333,32.9702083 24.5879167,32.82875 C24.3035417,32.544375 24.3035417,32.0820833 24.5879167,31.7977083 L34.79625,21.589375 C35.080625,21.305 35.5429167,21.305 35.8272917,21.589375 C36.1116667,21.87375 36.1116667,22.3360417 35.8272917,22.6204167 L25.6189583,32.82875 C25.4775,32.9702083 25.2908333,33.0416667 25.1041667,33.0416667 Z" id="Shape"></path>
                    </g>
                </g>
            </g>
        </g>
    </g>
</svg>