<?xml version="1.0" encoding="UTF-8"?>
<svg width="22px" height="33px" viewBox="0 0 22 33" version="1.1" xmlns="http://www.w3.org/2000/svg" xmlns:xlink="http://www.w3.org/1999/xlink">
    <!-- Generator: Sketch 48 (47235) - http://www.bohemiancoding.com/sketch -->
    <title>Group</title>
    <desc>Created with Sketch.</desc>
    <defs></defs>
    <g id="Onboarding-emaillogin-createclass" stroke="none" stroke-width="1" fill="none" fill-rule="evenodd" transform="translate(-601.000000, -259.000000)">
        <g id="popup" transform="translate(-88.000000, -35.000000)">
            <g id="confirm-location" transform="translate(416.000000, 141.500000)">
                <g id="Group" transform="translate(273.000000, 152.500000)">
                    <ellipse id="Oval" fill="#FFFFFF" cx="11" cy="10.6764706" rx="7" ry="6.79411765"></ellipse>
                    <path d="M11.0373789,32.75171 C10.5025211,32.75171 10.0555293,32.3686201 9.92577391,31.8004196 C9.90789424,31.7019249 9.08594003,26.8836045 5.12482573,21.2575287 L4.48217912,20.3913695 C1.49678423,16.3679358 0,14.3475574 0,10.5582343 C0,4.63617946 4.80758921,0 10.9454262,0 C17.0316676,0 21.9848485,4.73665394 21.9848485,10.5582343 C21.9828051,14.1871942 19.5082581,17.597882 17.520549,20.3374201 C17.289135,20.6546819 17.0658944,20.9640245 16.8544034,21.2614883 C12.7952063,26.9014227 12.1689069,31.6707432 12.1627767,31.7192481 C12.0192284,32.3686201 11.5722366,32.75171 11.0373789,32.75171 Z M11.013369,6.08043821 C8.41724018,6.08043821 6.30386259,8.15724071 6.30386259,10.7091935 C6.30386259,13.3269743 8.4611731,15.5388976 11.013369,15.5388976 C13.6851033,15.5369179 15.8623369,13.3695398 15.8623369,10.7091935 C15.8623369,8.07210963 13.7770559,6.08043821 11.013369,6.08043821 Z" id="Fill-1" fill="#EE592A"></path>
                </g>
            </g>
        </g>
    </g>
</svg>