<?xml version="1.0" encoding="UTF-8"?>
<svg width="4px" height="15px" viewBox="0 0 4 15" version="1.1" xmlns="http://www.w3.org/2000/svg" xmlns:xlink="http://www.w3.org/1999/xlink">
    <!-- Generator: Sketch 45.2 (43514) - http://www.bohemiancoding.com/sketch -->
    <title>Page 1</title>
    <desc>Created with Sketch.</desc>
    <defs></defs>
    <g id="Website" stroke="none" stroke-width="1" fill="none" fill-rule="evenodd">
        <g id="Class-detail" transform="translate(-1022.000000, -522.000000)" fill="#C7C7C7">
            <g id="Group-8" transform="translate(385.000000, 491.000000)">
                <path d="M644.5,36.625 C645.535,36.625 646.375,37.465 646.375,38.5 C646.375,39.535 645.535,40.375 644.5,40.375 C643.465,40.375 642.625,39.535 642.625,38.5 C642.625,37.465 643.465,36.625 644.5,36.625 Z M638.875,36.625 C639.91,36.625 640.75,37.465 640.75,38.5 C640.75,39.535 639.91,40.375 638.875,40.375 C637.84,40.375 637,39.535 637,38.5 C637,37.465 637.84,36.625 638.875,36.625 Z M633.25,36.625 C634.285,36.625 635.125,37.465 635.125,38.5 C635.125,39.535 634.285,40.375 633.25,40.375 C632.215,40.375 631.375,39.535 631.375,38.5 C631.375,37.465 632.215,36.625 633.25,36.625 Z" id="Page-1" transform="translate(638.875000, 38.500000) rotate(-270.000000) translate(-638.875000, -38.500000) "></path>
            </g>
        </g>
    </g>
</svg>