<?xml version="1.0" encoding="UTF-8"?>
<svg width="9px" height="9px" viewBox="0 0 9 9" version="1.1" xmlns="http://www.w3.org/2000/svg" xmlns:xlink="http://www.w3.org/1999/xlink">
    <!-- Generator: Sketch 46.1 (44463) - http://www.bohemiancoding.com/sketch -->
    <title>Page 1</title>
    <desc>Created with Sketch.</desc>
    <defs></defs>
    <g id="Website" stroke="none" stroke-width="1" fill="none" fill-rule="evenodd">
        <g id="Onboarding-emaillogin-createclass" transform="translate(-534.000000, -1356.000000)" stroke="#979797" stroke-width="0.2" fill="#979797">
            <path d="M537.26122,1356.97309 C536.946274,1356.65781 536.565405,1356.5 536.119327,1356.5 C535.673249,1356.5 535.291007,1356.65781 534.973087,1356.97309 C534.657809,1357.29103 534.5,1357.67322 534.5,1358.11933 C534.5,1358.56543 534.657809,1358.94631 534.973087,1359.26122 C535.291032,1359.5795 535.673223,1359.73864 536.119327,1359.73864 C536.56543,1359.73864 536.946309,1359.5795 537.26122,1359.26122 C537.579497,1358.94627 537.738636,1358.5654 537.738636,1358.11933 C537.738636,1357.67325 537.579497,1357.29101 537.26122,1356.97309 L537.26122,1356.97309 Z M536.119318,1357.18182 C536.377659,1357.18182 536.597724,1357.2727 536.77983,1357.45448 C536.964602,1357.63925 537.056818,1357.86097 537.056818,1358.11932 C537.056818,1358.37767 536.964602,1358.59772 536.77983,1358.77983 C536.597724,1358.9646 536.377659,1359.05682 536.119318,1359.05682 C535.860977,1359.05682 535.63925,1358.9646 535.454477,1358.77983 C535.272705,1358.59772 535.181818,1358.37766 535.181818,1358.11932 C535.181818,1357.86098 535.272705,1357.63925 535.454477,1357.45448 C535.63925,1357.2727 535.860969,1357.18182 536.119318,1357.18182 L536.119318,1357.18182 Z M542,1362.38069 C542,1361.93457 541.840861,1361.55237 541.522583,1361.23445 C541.207638,1360.91917 540.826768,1360.76136 540.38069,1360.76136 C539.934612,1360.76136 539.55237,1360.91917 539.234451,1361.23445 C538.919173,1361.5524 538.761364,1361.93459 538.761364,1362.38069 C538.761364,1362.82679 538.919173,1363.20767 539.234451,1363.52258 C539.552396,1363.84086 539.934587,1364 540.38069,1364 C540.826794,1364 541.207672,1363.84086 541.522583,1363.52258 C541.840861,1363.20764 542,1362.82677 542,1362.38069 L542,1362.38069 Z M541.041193,1361.71584 C541.225966,1361.90061 541.318182,1362.12233 541.318182,1362.38068 C541.318182,1362.63903 541.225966,1362.85909 541.041193,1363.04119 C540.859088,1363.22597 540.639023,1363.31818 540.380682,1363.31818 C540.122341,1363.31818 539.900614,1363.22597 539.715841,1363.04119 C539.534068,1362.85909 539.443182,1362.63902 539.443182,1362.38068 C539.443182,1362.12234 539.534068,1361.90061 539.715841,1361.71584 C539.900614,1361.53407 540.122332,1361.44318 540.380682,1361.44318 C540.639031,1361.44318 540.859088,1361.53407 541.041193,1361.71584 L541.041193,1361.71584 Z M541.659091,1356.5 C541.565205,1356.5 541.483974,1356.53263 541.416057,1356.59788 L534.597875,1363.41606 C534.532622,1363.48397 534.5,1363.5652 534.5,1363.65909 C534.5,1363.75298 534.532626,1363.83255 534.597875,1363.8978 C534.66579,1363.96571 534.747023,1364 534.840909,1364 C534.934795,1364 535.014364,1363.96571 535.079614,1363.8978 L541.897795,1357.07961 C541.965711,1357.01436 542,1356.9348 542,1356.84091 C542,1356.74702 541.96571,1356.66579 541.897795,1356.59788 C541.832544,1356.53262 541.752977,1356.5 541.659091,1356.5 Z" id="Page-1"></path>
        </g>
    </g>
</svg>