<?xml version="1.0" encoding="UTF-8"?>
<svg width="14px" height="16px" viewBox="0 0 14 16" version="1.1" xmlns="http://www.w3.org/2000/svg" xmlns:xlink="http://www.w3.org/1999/xlink">
    <!-- Generator: Sketch 43.2 (39069) - http://www.bohemiancoding.com/sketch -->
    <title>Page 1</title>
    <desc>Created with Sketch.</desc>
    <defs></defs>
    <g id="Website" stroke="none" stroke-width="1" fill="none" fill-rule="evenodd">
        <g id="Search-a-class---pinned" transform="translate(-1083.000000, -162.000000)" fill="#FFFFFF">
            <g id="search-dropdown" transform="translate(0.000000, 61.000000)">
                <path d="M1087.81214,106.054999 L1095.59857,104.10261 L1095.59857,111.150048 C1095.21942,110.991489 1094.74569,110.911993 1094.25519,110.911993 C1093.95642,110.911993 1093.38726,111.086106 1093.02444,111.276635 C1092.34437,111.643005 1091.93469,112.230148 1091.93469,112.847965 C1091.93469,113.181932 1092.0757,113.546574 1092.28204,113.801478 C1092.55114,114.103474 1092.97587,114.262032 1093.54503,114.262032 C1094.2251,114.262032 1094.93526,113.960036 1095.50314,113.451957 C1096.02544,112.959431 1096.29412,112.324765 1096.29412,111.531539 L1096.29412,101.5 L1087.11702,103.737968 L1087.11702,113.388015 C1086.80106,113.246306 1086.35957,113.166811 1085.8695,113.166811 C1085.56859,113.166811 1085.25305,113.229456 1084.90528,113.372894 C1084.03735,113.721982 1083.5,114.371771 1083.5,115.087229 C1083.5,115.4199 1083.64272,115.78627 1083.84734,116.039013 C1084.11602,116.341441 1084.55794,116.5 1085.1271,116.5 C1086.05908,116.5 1087.21116,115.816513 1087.57527,115.023287 C1087.70123,114.73814 1087.81214,114.182969 1087.81214,113.784628 C1087.81214,113.784628 1087.81214,114.182969 1087.81214,113.784628 L1087.81214,106.054999 Z" id="Page-1"></path>
            </g>
        </g>
    </g>
</svg>