<?xml version="1.0" encoding="UTF-8"?>
<svg width="8px" height="6px" viewBox="0 0 8 6" version="1.1" xmlns="http://www.w3.org/2000/svg" xmlns:xlink="http://www.w3.org/1999/xlink">
    <!-- Generator: Sketch 43.2 (39069) - http://www.bohemiancoding.com/sketch -->
    <title>Page 1 Copy 12</title>
    <desc>Created with Sketch.</desc>
    <defs></defs>
    <g id="Website" stroke="none" stroke-width="1" fill="none" fill-rule="evenodd">
        <g id="Landing" transform="translate(-199.000000, -2075.000000)" fill="#28A8E0">
            <g id="Group-37" transform="translate(-9.500000, 1665.000000)">
                <g id="Group-24" transform="translate(212.500000, 441.500000) scale(1, -1) translate(-212.500000, -441.500000) translate(192.500000, 393.000000)">
                    <path d="M17.500018,79.3678646 L17.500018,73.875273 C17.500018,73.740766 17.5723409,73.6178544 17.6917734,73.5532512 C17.8148552,73.4767214 17.9704491,73.4833473 18.0868958,73.5688222 L22.3247574,76.3070012 C22.43855,76.3706105 22.5058966,76.4935221 22.4995932,76.6240535 C22.5022473,76.7549163 22.4358959,76.8778279 22.3247574,76.9464066 L18.0868958,79.6756405 C18.0261843,79.7170528 17.9561836,79.7419002 17.8822018,79.74952 C17.8135281,79.7534956 17.7461815,79.7326238 17.6904464,79.6925367 C17.5710139,79.6279336 17.4986909,79.5023716 17.500018,79.3678646 Z" id="Page-1-Copy-12" transform="translate(20.000000, 76.625000) scale(1, -1) rotate(-90.000000) translate(-20.000000, -76.625000) "></path>
                </g>
            </g>
        </g>
    </g>
</svg>